<svg width="231" height="262" viewBox="0 0 231 262" fill="none" xmlns="http://www.w3.org/2000/svg">
<g clip-path="url(#clip0_4587_4194)">
<path d="M68.3392 128.716C68.3392 128.716 55.6274 123.89 55.6274 95.9942C55.6274 68.0987 46.7808 96.9406 46.7808 96.9406C46.7808 96.9406 45.1871 116.71 52.9379 126.597C60.6886 136.484 64.2032 138.099 66.9186 138.763C69.634 139.427 68.3392 128.716 68.3392 128.716Z" fill="#FFF2C9"/>
<path d="M68.3392 128.716C68.3392 128.716 55.6274 123.89 55.6274 95.9942C55.6274 68.0987 46.7808 96.9406 46.7808 96.9406C46.7808 96.9406 45.1871 116.71 52.9379 126.597C60.6886 136.484 64.2032 138.099 66.9186 138.763C69.634 139.427 68.3392 128.716 68.3392 128.716Z" stroke="black" stroke-width="0.941621" stroke-linecap="round" stroke-linejoin="round"/>
<path d="M157.676 235.472C161.09 227.35 159.795 224.29 156.499 224.996C153.204 225.702 108.359 232.412 101.885 231.823C95.4117 231.234 94.2347 226.879 94.117 224.408C93.9993 221.936 99.8844 202.868 99.8844 202.868L110.007 206.046C110.007 206.046 106.358 214.403 105.181 217.581C104.004 220.759 105.299 221.701 106.24 222.289C107.182 222.878 107.77 223.348 120.129 222.054C132.488 220.759 160.384 215.933 162.502 215.227C164.621 214.521 167.446 212.402 171.212 212.167C174.979 211.931 178.745 214.874 180.393 219.582C182.041 224.29 181.452 228.998 180.04 232.176C178.627 235.354 178.274 238.65 178.392 240.651C178.51 242.652 178.745 250.302 176.862 253.127C174.979 255.952 172.036 257.011 165.916 258.188C159.795 259.365 160.854 259.719 156.97 260.787C153.086 261.856 150.497 260.896 148.496 260.307L147.436 258.895L142.093 259.349L136.729 257.038L135.974 255.619L133.257 255.127L131.704 252.994L132.576 247.882C132.576 247.882 137.452 239.39 145.917 237.432C154.381 235.472 154.616 234.883 157.676 235.472Z" fill="#FFF2C9"/>
<path d="M164.032 237.826C164.032 237.826 159.019 232.294 144.871 237.826C130.722 243.358 131.263 252.208 132.017 253.716C132.958 255.599 134.842 255.834 135.665 255.481" stroke="black" stroke-width="0.941621" stroke-linecap="round" stroke-linejoin="round"/>
<path d="M146.964 258.896C142.373 259.955 139.431 259.249 137.077 257.366C134.933 255.651 136.163 252.314 138.607 249.362C141.432 245.948 144.021 245.242 144.021 245.242" stroke="black" stroke-width="0.941621" stroke-linecap="round" stroke-linejoin="round"/>
<path d="M157.676 235.472C161.09 227.35 159.795 224.29 156.499 224.996C153.204 225.702 108.359 232.412 101.885 231.823C95.4117 231.234 94.2347 226.879 94.117 224.408C93.9993 221.936 99.8844 202.868 99.8844 202.868L110.007 206.046C110.007 206.046 106.358 214.403 105.181 217.581C104.004 220.759 105.299 221.701 106.24 222.289C107.182 222.878 107.77 223.348 120.129 222.054C132.488 220.759 160.384 215.933 162.502 215.227C164.621 214.521 167.446 212.402 171.212 212.167C174.979 211.931 178.745 214.874 180.393 219.582C182.041 224.29 181.452 228.998 180.04 232.176C178.627 235.354 178.274 238.65 178.392 240.651C178.51 242.652 178.745 250.302 176.862 253.127C174.979 255.952 172.036 257.011 165.916 258.188C159.795 259.365 160.854 259.719 156.97 260.787C153.086 261.856 150.497 260.896 148.496 260.307C146.495 259.719 148.025 256.658 150.497 252.774C152.968 248.89 156.97 248.419 156.97 248.419" stroke="black" stroke-width="0.941621" stroke-linecap="round" stroke-linejoin="round"/>
<path d="M164.502 11.8371C163.56 6.77586 160.735 2.89167 154.144 1.00843C147.553 -0.87481 142.491 2.53857 135.9 5.83424C129.309 9.12991 124.718 7.48207 124.718 7.48207C127.661 11.7194 131.663 9.95383 131.663 9.95383L130.956 10.1892C127.425 12.3079 119.539 21.6064 118.598 22.7834C117.656 23.9604 112.948 26.3145 112.948 26.3145C113.89 27.1384 116.564 26.6382 116.564 26.6382L117.538 25.9614C111.771 29.7279 110.241 34.6714 110.241 34.6714C111.418 33.3766 114.949 31.3757 114.949 31.3757L114.125 31.8465C109.77 37.0254 108.593 52.0914 108.593 52.0914L117.303 49.9586C117.303 49.9586 109.584 51.2215 105.734 53.4214C101.884 55.6213 99.4581 57.9894 96.3166 60.9249C93.1751 63.8604 88.8296 67.016 85.7057 67.8517C85.7057 67.8517 89.1215 68.8346 90.5598 68.525L93.4706 67.3703C93.4706 67.3703 82.3783 70.2023 74.7111 92.5728C74.7111 92.5728 77.4018 89.1418 79.5216 88.8605L78.0056 89.4772C78.0056 89.4772 74.225 95.9933 72.9303 99.1712C71.6356 102.349 69.7547 105.88 68.4588 107.057C68.4588 107.057 70.9517 108.333 73.9425 104.576L71.7945 106.566C71.7945 106.566 71.3119 108.971 70.7681 109.191C70.7681 109.191 73.9037 108.494 74.7123 107.54L72.7408 108.619C72.7408 108.619 65.7516 120.946 65.6339 125.772C65.6339 125.772 67.2817 124.477 67.7526 124.242C67.7526 124.242 64.4569 132.01 64.2215 135.894C64.2215 135.894 66.931 133.4 68.4599 132.882L67.5419 133.329C67.5419 133.329 58.3363 148.489 59.0426 161.318C59.0426 161.318 60.455 156.257 62.809 153.903C62.809 153.903 59.278 159.906 60.3373 167.439C60.3373 167.439 60.9258 161.671 62.2205 160.73C62.2205 160.73 60.1019 180.151 66.6932 186.742C66.6932 186.742 65.987 183.446 66.1047 180.739C66.1047 180.739 68.1998 196.511 90.4574 204.868C90.4574 204.868 90.2337 204.044 89.6452 202.396C89.6452 202.396 96.2366 206.634 101.062 207.693C101.062 207.693 100.852 207.892 100.016 205.616L98.826 204.868C110.479 212.401 120.483 212.637 120.483 212.637C120.13 212.283 119.989 211.439 119.989 211.439L117.658 210.636C124.603 213.343 132.489 213.343 132.489 213.343C132.018 212.99 131.783 211.93 131.783 211.93C135.432 212.637 139.316 211.93 139.316 211.93C138.845 211.813 138.963 210.753 138.963 210.753C148.967 211.224 156.736 208.046 156.736 208.046C156.736 209.105 155.794 209.929 155.794 209.929C163.798 208.282 172.861 200.631 172.861 200.631C172.979 201.455 172.626 202.867 172.626 202.867C190.752 194.275 200.168 166.262 199.226 158.258C198.285 150.254 192.753 141.544 192.753 141.544L194.047 143.31C195.813 144.016 198.049 146.488 198.049 146.488C198.167 141.073 189.222 128.126 189.222 128.126C189.222 128.126 190.163 119.181 188.751 118.473C187.338 117.766 185.102 115.179 185.102 115.179C185.926 115.767 188.28 115.414 188.28 115.414C185.926 114.237 182.63 108.853 182.63 108.853C186.161 111.238 188.751 110.118 188.751 110.118C185.22 106.822 182.159 96.4923 182.159 96.4923L178.393 93.5215C184.16 98.9358 186.868 97.8765 186.868 97.8765C184.631 96.2287 179.09 80.8967 179.09 80.8967L177.241 80.1905C179.031 80.3953 182.159 83.046 182.159 83.046C181.689 80.6919 179.431 77.3362 179.431 77.3362L176.863 75.8661C182.513 79.6326 184.16 77.6317 184.16 77.6317C181.806 76.2192 177.334 69.981 177.334 69.981C177.334 69.981 189.457 36.6711 188.869 33.6109C188.28 30.5506 189.372 26.7877 189.372 26.7877C190.465 28.5567 191.576 28.3143 191.576 28.3143C191.105 27.7257 190.634 26.0779 190.516 24.7832C190.399 23.4885 191.223 21.1344 190.987 18.8981C190.752 16.6617 189.222 9.12873 179.805 8.18711C170.389 7.24549 163.916 12.4244 160.267 14.8962C156.618 17.3679 152.028 18.3095 152.028 18.3095C153.205 19.4866 156.265 19.8397 156.265 19.8397C147.555 26.431 142.074 42.0855 142.074 42.0855" fill="#FFF2C9"/>
<path d="M164.502 11.8371C163.56 6.77586 160.735 2.89167 154.144 1.00843C147.553 -0.87481 142.491 2.53857 135.9 5.83424C129.309 9.12991 124.718 7.48207 124.718 7.48207C127.661 11.7194 131.663 9.95383 131.663 9.95383L130.956 10.1892C127.425 12.3079 119.539 21.6064 118.598 22.7834C117.656 23.9604 112.948 26.3145 112.948 26.3145C113.89 27.1384 116.564 26.6382 116.564 26.6382L117.538 25.9614C111.771 29.7279 110.241 34.6714 110.241 34.6714C111.418 33.3766 114.949 31.3757 114.949 31.3757L114.125 31.8465C109.77 37.0254 108.593 52.0914 108.593 52.0914L117.303 49.9586C117.303 49.9586 109.584 51.2215 105.734 53.4214C101.884 55.6213 99.4581 57.9894 96.3166 60.9249C93.1751 63.8604 88.8296 67.016 85.7057 67.8517C85.7057 67.8517 89.1215 68.8346 90.5598 68.525L93.4706 67.3703C93.4706 67.3703 82.3783 70.2023 74.7111 92.5728C74.7111 92.5728 77.4018 89.1418 79.5216 88.8605L78.0056 89.4772C78.0056 89.4772 74.225 95.9933 72.9303 99.1712C71.6356 102.349 69.7547 105.88 68.4588 107.057C68.4588 107.057 70.9517 108.333 73.9425 104.576L71.7945 106.566C71.7945 106.566 71.3119 108.971 70.7681 109.191C70.7681 109.191 73.9037 108.494 74.7123 107.54L72.7408 108.619C72.7408 108.619 65.7516 120.946 65.6339 125.772C65.6339 125.772 67.2817 124.477 67.7526 124.242C67.7526 124.242 64.4569 132.01 64.2215 135.894C64.2215 135.894 66.931 133.4 68.4599 132.882L67.5419 133.329C67.5419 133.329 58.3363 148.489 59.0426 161.318C59.0426 161.318 60.455 156.257 62.809 153.903C62.809 153.903 59.278 159.906 60.3373 167.439C60.3373 167.439 60.9258 161.671 62.2205 160.73C62.2205 160.73 60.1019 180.151 66.6932 186.742C66.6932 186.742 65.987 183.446 66.1047 180.739C66.1047 180.739 68.1998 196.511 90.4574 204.868C90.4574 204.868 90.2337 204.044 89.6452 202.396C89.6452 202.396 96.2366 206.634 101.062 207.693C101.062 207.693 100.852 207.892 100.016 205.616L98.826 204.868C110.479 212.401 120.483 212.637 120.483 212.637C120.13 212.283 119.989 211.44 119.989 211.44L117.658 210.636C124.603 213.343 132.489 213.343 132.489 213.343C132.018 212.99 131.783 211.93 131.783 211.93C135.432 212.637 139.316 211.93 139.316 211.93C138.845 211.813 138.963 210.753 138.963 210.753C148.967 211.224 156.736 208.046 156.736 208.046C156.736 209.105 155.794 209.929 155.794 209.929C163.798 208.282 172.861 200.631 172.861 200.631C172.979 201.455 172.626 202.867 172.626 202.867C190.752 194.275 200.168 166.262 199.226 158.258C198.285 150.254 192.753 141.544 192.753 141.544L194.047 143.31C195.813 144.016 198.049 146.488 198.049 146.488C198.167 141.073 189.222 128.126 189.222 128.126C189.222 128.126 190.163 119.181 188.751 118.473C187.338 117.766 185.102 115.179 185.102 115.179C185.926 115.767 188.28 115.414 188.28 115.414C185.926 114.237 182.63 108.853 182.63 108.853C186.161 111.238 188.751 110.118 188.751 110.118C185.22 106.822 182.159 96.4923 182.159 96.4923L178.393 93.5215C184.16 98.9358 186.868 97.8765 186.868 97.8765C184.631 96.2287 179.09 80.8967 179.09 80.8967L177.241 80.1905C179.031 80.3953 182.159 83.046 182.159 83.046C181.689 80.6919 179.431 77.3362 179.431 77.3362L176.863 75.8661C182.513 79.6326 184.16 77.6316 184.16 77.6316C181.806 76.2192 177.334 69.981 177.334 69.981C177.334 69.981 189.457 36.6711 188.869 33.6109C188.28 30.5506 189.372 26.7877 189.372 26.7877C190.465 28.5567 191.576 28.3143 191.576 28.3143C191.105 27.7257 190.634 26.0779 190.516 24.7832C190.399 23.4885 191.223 21.1344 190.987 18.8981C190.752 16.6617 189.222 9.12873 179.805 8.18711C170.389 7.24549 163.916 12.4244 160.267 14.8962C156.618 17.3679 152.028 18.3095 152.028 18.3095C153.205 19.4866 156.265 19.8397 156.265 19.8397C147.555 26.431 142.074 42.0855 142.074 42.0855" stroke="black" stroke-width="0.941621" stroke-linecap="round" stroke-linejoin="round"/>
<path d="M129.853 84.9202C123.423 83.4006 119.135 89.6742 117.346 93.5572C115.306 97.9828 114.626 103.104 114.43 105.063C114.394 105.425 114.729 105.712 115.083 105.619C116.261 105.309 119.021 104.966 124.366 106.117C129.552 107.234 132.141 108.544 133.098 109.119C133.355 109.273 133.685 109.181 133.828 108.919C134.529 107.617 136.324 103.866 136.607 99.0551C137.051 91.5127 135.121 86.1667 129.854 84.9202H129.853Z" fill="white" stroke="black" stroke-width="0.941621" stroke-linecap="round" stroke-linejoin="round"/>
<path d="M123.658 88.8147C118.249 88.0638 116.778 94.4621 115.9 97.2681C114.9 100.467 114.868 104.032 114.898 105.391C114.904 105.643 115.153 105.812 115.382 105.719C116.146 105.411 117.968 104.952 121.647 105.308C125.217 105.653 129.588 107.721 129.661 107.529C130.023 106.581 130.928 102.493 130.72 99.1726C130.393 93.9666 127.895 89.4032 123.658 88.8147Z" fill="black"/>
<path d="M119.304 90.8156C119.304 90.8156 121.91 90.7473 124.111 93.4368C124.111 93.4368 119.344 93.4098 117.303 94.3467C117.303 94.3467 117.774 93.405 118.362 92.3457C118.774 91.6042 119.304 90.8156 119.304 90.8156Z" fill="white"/>
<path d="M107.104 95.483C106.851 87.9312 104.437 82.7853 99.0765 82.0308C92.5346 81.1104 88.8423 87.7523 87.4192 91.7836C85.7961 96.3787 85.5407 101.088 85.5254 103.057L87.1826 103.738C87.1826 103.738 89.8804 102.586 94.2354 103.057C98.9294 103.564 102.121 104.94 102.121 104.94C102.121 104.587 102.357 103.763 102.513 103.397C102.67 103.031 103.181 102.469 103.706 102.006C104.231 101.544 104.711 101.527 105.217 101.396C105.723 101.266 106.594 101.527 106.594 101.527V101.056C106.841 99.625 107.163 97.2344 107.104 95.483Z" fill="white" stroke="black" stroke-width="0.941621" stroke-linecap="round" stroke-linejoin="round"/>
<path d="M93.0325 86.4796C87.5781 86.2301 86.7024 92.7367 86.0868 95.6122C85.3853 98.8902 85.8408 102.178 85.9962 103.528C86.0256 103.777 86.3658 103.994 86.5847 103.881C87.3168 103.503 88.854 103.073 92.5499 103.089C96.2457 103.104 100.678 104.759 100.734 104.561C101.008 103.583 101.532 99.4281 101.019 96.1418C100.212 90.9876 97.3051 86.675 93.0313 86.4796H93.0325Z" fill="black"/>
<path d="M88.8815 88.8736C88.8815 88.8736 91.4698 88.5652 93.9098 91.0405C93.9098 91.0405 89.1605 91.4525 87.2148 92.5742C87.2148 92.5742 87.5974 91.5937 88.0847 90.4838C88.4272 89.7069 88.8815 88.8736 88.8815 88.8736Z" fill="white"/>
<path d="M128.251 114.592C128.251 114.592 130.958 107.765 142.14 108.471" stroke="black" stroke-width="0.941621" stroke-linecap="round" stroke-linejoin="round"/>
<path d="M132.841 75.7499C132.841 75.7499 141.684 71.9587 142.853 88.2723" stroke="black" stroke-width="0.941621" stroke-linecap="round" stroke-linejoin="round"/>
<path d="M89.4072 80.2229C89.4072 80.2229 96.2658 68.9447 100.841 72.4063" stroke="black" stroke-width="0.941621" stroke-linecap="round" stroke-linejoin="round"/>
<path d="M109.3 103.646C109.3 103.646 107.534 101.88 106.592 101.527C105.651 101.174 103.885 101.292 102.708 103.057C101.585 104.743 102.473 106.931 103.061 107.412C103.791 108.01 105.325 108.857 105.605 109.193" stroke="black" stroke-width="0.941621" stroke-linecap="round" stroke-linejoin="round"/>
<path d="M81.874 102.703C81.874 102.703 86.3467 101.173 88.7008 107.058" stroke="black" stroke-width="0.941621" stroke-linecap="round" stroke-linejoin="round"/>
<path d="M87.1817 103.737L85.5244 103.057" stroke="black" stroke-width="0.941621" stroke-linecap="round" stroke-linejoin="round"/>
<path d="M95.6669 118.127C95.978 114.701 94.6427 111.78 92.6843 111.602C90.726 111.425 88.8862 114.057 88.5751 117.482C88.2639 120.908 89.5993 123.829 91.5576 124.007C93.516 124.185 95.3557 121.552 95.6669 118.127Z" fill="black"/>
<path d="M103.614 111.505C103.614 111.505 102.592 112.943 100.708 112.943C98.8251 112.943 96.0591 111.188 95.1763 110.707C93.8816 110.001 92.0231 109.93 90.939 110.471C89.5266 111.178 87.3079 113.34 87.182 117.202C87.0548 121.065 88.1142 125.067 91.2921 125.42C94.4701 125.773 96.1238 124.766 97.7658 124.949C98.8251 125.067 100.12 125.302 101.061 126.597" stroke="black" stroke-width="0.941621" stroke-linecap="round" stroke-linejoin="round"/>
<path d="M90.8869 141.133C90.128 139.623 88.2886 139.014 86.7784 139.772C85.2682 140.531 84.6591 142.371 85.418 143.881L96.2025 165.342C96.9613 166.852 98.8008 167.461 100.311 166.702C101.821 165.944 102.43 164.104 101.671 162.594L90.8869 141.133Z" fill="#FFE372" stroke="black" stroke-width="0.941621" stroke-linecap="round" stroke-linejoin="round"/>
<path d="M111.686 162.626C110.69 163.991 110.989 165.906 112.354 166.902C113.719 167.898 115.634 167.599 116.63 166.234L123.897 156.276C124.893 154.911 124.594 152.997 123.229 152C121.863 151.004 119.949 151.303 118.953 152.669L111.686 162.626Z" fill="#FFE372" stroke="black" stroke-width="0.941621" stroke-linecap="round" stroke-linejoin="round"/>
<path d="M105.182 176.15C107.197 176.15 108.831 174.516 108.831 172.501C108.831 170.486 107.197 168.853 105.182 168.853C103.167 168.853 101.533 170.486 101.533 172.501C101.533 174.516 103.167 176.15 105.182 176.15Z" fill="#FFE372" stroke="black" stroke-width="0.941621" stroke-linecap="round" stroke-linejoin="round"/>
<path d="M86.2979 140.369C86.2979 140.369 88.9379 138.956 90.3504 141.193C90.3504 141.193 88.6531 139.575 87.0888 140.561" fill="white"/>
<path d="M136.844 48.7953C136.844 48.7953 133.548 41.8509 125.662 41.6155C125.662 41.6155 130.37 36.3189 136.255 38.9083C142.14 41.4978 143.553 45.6174 143.553 45.6174C143.553 45.6174 147.908 43.0279 152.498 45.2643C157.089 47.5006 156.265 50.4432 156.265 50.4432C156.265 50.4432 152.381 48.2068 148.379 49.5016" stroke="black" stroke-width="0.941621" stroke-linecap="round" stroke-linejoin="round"/>
<path d="M141.669 50.4438C141.669 50.4438 146.968 46.795 151.088 51.5032C151.088 51.5032 147.792 51.2677 145.909 53.0333" stroke="black" stroke-width="0.941621" stroke-linecap="round" stroke-linejoin="round"/>
<path d="M148.065 51.8594C148.065 51.8594 153.321 53.2047 156.323 57.1207" stroke="black" stroke-width="0.941621" stroke-linecap="round" stroke-linejoin="round"/>
<path d="M217.331 153.538C220.799 145.36 217.688 139.411 215.919 136C214.271 132.822 208.386 123.17 192.731 119.522C177.077 115.873 167.778 124.7 167.778 124.7L168.838 134.234C168.838 134.234 182.217 124.043 195.203 129.644C207.209 134.823 209.21 143.415 209.21 149.536C209.21 149.536 211.78 155.642 217.331 153.538Z" fill="#FFF2C9"/>
<path d="M167.798 124.714C167.798 124.714 177.096 115.886 192.751 119.535C208.405 123.184 214.29 132.836 215.938 136.014C217.707 139.425 220.646 147.548 217.351 153.551" stroke="black" stroke-width="0.941621" stroke-linecap="round" stroke-linejoin="round"/>
<path d="M168.857 134.249C168.857 134.249 182.237 124.057 195.223 129.659C207.228 134.838 210.289 142.841 209.229 149.55" stroke="black" stroke-width="0.941621" stroke-linecap="round" stroke-linejoin="round"/>
<path d="M212.181 182.933C211.249 183.714 209.266 183.832 209.266 183.832L209.347 181.213C208.876 185.685 210.171 189.687 211.819 193.336C213.467 196.985 212.054 200.987 208.994 201.104C205.934 201.222 202.285 200.398 200.284 193.101C198.283 185.803 201.579 180.389 201.579 180.389L199.931 184.155C196.517 184.038 196.111 181.713 196.111 181.713L197.075 178.174C195.868 179.489 195.929 184.038 196.282 187.333C196.422 188.642 197.341 192.512 196.988 195.808C196.635 199.103 194.516 200.398 192.869 200.398C191.221 200.398 186.983 200.163 185.218 190.629C183.452 181.095 189.338 169.795 189.338 169.795L188.631 170.619C187.925 169.442 188.16 167.912 188.16 167.912C188.16 167.912 180.628 170.384 174.742 168.383C168.857 166.382 169.917 162.145 170.976 160.379C172.035 158.614 175.449 158.025 177.332 159.32C179.215 160.615 185.806 161.674 187.807 161.674C189.808 161.674 189.573 160.497 196.164 158.378C202.756 156.26 208.052 159.202 208.052 159.202L203.815 157.79C203.815 157.79 202.638 156.848 202.52 155.083C202.403 153.317 203.848 150.402 206.522 149.904C210.317 149.198 215.585 150.492 218.41 155.789C221.235 161.085 215.114 162.616 215.114 162.616C222.883 170.855 217.993 178.148 217.993 178.148L217.351 176.505C217.822 179.329 221.588 181.919 225.777 183.832C229.966 185.744 230.769 189.57 227.709 191.806C224.648 194.042 220.058 192.394 217.704 190.04C214.172 186.508 211.466 180.742 211.466 180.742" fill="white"/>
<path d="M212.181 182.933C211.249 183.714 209.266 183.832 209.266 183.832L209.347 181.213C208.876 185.685 210.171 189.687 211.819 193.336C213.467 196.985 212.054 200.987 208.994 201.104C205.934 201.222 202.285 200.398 200.284 193.101C198.283 185.803 201.579 180.389 201.579 180.389L199.931 184.155C196.517 184.038 196.111 181.713 196.111 181.713L197.075 178.174C195.868 179.489 195.929 184.038 196.282 187.333C196.422 188.642 197.341 192.512 196.988 195.808C196.635 199.103 194.516 200.398 192.869 200.398C191.221 200.398 186.983 200.163 185.218 190.629C183.452 181.095 189.338 169.795 189.338 169.795L188.631 170.619C187.925 169.442 188.16 167.912 188.16 167.912C188.16 167.912 180.628 170.384 174.742 168.383C168.857 166.382 169.917 162.145 170.976 160.379C172.035 158.614 175.449 158.025 177.332 159.32C179.215 160.615 185.806 161.674 187.807 161.674C189.808 161.674 189.573 160.497 196.164 158.378C202.756 156.26 208.052 159.202 208.052 159.202L203.815 157.79C203.815 157.79 202.638 156.848 202.52 155.083C202.403 153.317 203.848 150.402 206.522 149.904C210.317 149.198 215.585 150.492 218.41 155.789C221.235 161.085 215.114 162.616 215.114 162.616C222.883 170.855 217.993 178.148 217.993 178.148L217.351 176.505C217.822 179.329 221.588 181.919 225.777 183.832C229.966 185.744 230.769 189.57 227.709 191.806C224.648 194.042 220.058 192.394 217.704 190.04C214.172 186.508 211.466 180.742 211.466 180.742" stroke="black" stroke-width="0.941621" stroke-linecap="round" stroke-linejoin="round"/>
<path d="M212.181 182.933C211.249 183.714 209.266 183.832 209.266 183.832L209.347 181.213C208.876 185.685 210.171 189.687 211.819 193.336C213.467 196.985 212.054 200.987 208.994 201.104C205.934 201.222 202.285 200.398 200.284 193.101C198.283 185.803 201.579 180.389 201.579 180.389L199.931 184.155C196.517 184.038 196.111 181.713 196.111 181.713L197.075 178.174C195.868 179.489 195.929 184.038 196.282 187.333C196.422 188.642 197.341 192.512 196.988 195.808C196.635 199.103 194.516 200.398 192.869 200.398C191.221 200.398 186.983 200.163 185.218 190.629C183.452 181.095 189.338 169.795 189.338 169.795L188.631 170.619C187.925 169.442 188.16 167.912 188.16 167.912C188.16 167.912 180.628 170.384 174.742 168.383C168.857 166.382 169.917 162.145 170.976 160.379C172.035 158.614 175.449 158.025 177.332 159.32C179.215 160.615 185.806 161.674 187.807 161.674C189.808 161.674 189.573 160.497 196.164 158.378C202.756 156.26 208.052 159.202 208.052 159.202L203.815 157.79C203.815 157.79 202.638 156.848 202.52 155.083C202.403 153.317 203.848 150.402 206.522 149.904C210.317 149.198 215.585 150.492 218.41 155.789C221.235 161.085 215.114 162.616 215.114 162.616C222.883 170.855 217.993 178.148 217.993 178.148L217.351 176.505C217.822 179.329 221.588 181.919 225.777 183.832C229.966 185.744 230.769 189.57 227.709 191.806C224.648 194.042 220.058 192.394 217.704 190.04C214.172 186.508 211.466 180.742 211.466 180.742" stroke="black" stroke-width="0.941621" stroke-linecap="round" stroke-linejoin="round"/>
<path d="M56.4523 95.6427C56.4523 95.6427 61.1604 92.8178 61.3958 90.4637C61.3958 90.4637 62.0655 87.6624 61.025 86.4736C61.025 86.4736 67.8612 81.011 67.6305 76.8503C67.3998 72.6906 67.0172 71.7467 67.0172 71.7467C67.0172 71.7467 68.4838 64.7693 66.7065 62.0209C64.928 59.2726 61.9501 57.8225 60.9673 57.8413C59.9845 57.8601 57.687 58.0579 56.5405 59.136C56.5405 59.136 56.4393 55.366 52.621 54.5527C48.8028 53.7394 46.8783 54.9023 45.899 56.3218C44.9186 57.7412 44.7055 58.2321 44.7055 58.2321C44.7055 58.2321 40.4694 58.2121 39.0452 64.3326C39.0452 64.3326 36.2415 66.2217 35.872 67.1598C35.5024 68.0979 34.5137 75.984 34.5137 75.984C34.5137 75.984 36.3816 86.1123 41.7088 87.5812C41.7088 87.5812 41.577 96.4525 50.1917 96.9303C50.1917 96.9303 53.2743 97.407 56.4523 95.6415V95.6427Z" fill="white"/>
<path d="M61.6309 65.5101C61.6309 65.5101 58.8061 74.3378 51.6239 75.3689C44.4417 76.4 43.9755 71.2776 45.2703 69.1589C46.2095 67.6229 50.3315 65.7455 52.097 63.98C53.8626 62.2145 57.5113 55.0346 63.8673 59.0365C70.2232 63.0384 67.0158 71.746 67.0158 71.746C70.8706 82.2192 57.6479 88.2726 57.6479 88.2726" stroke="black" stroke-width="0.941621" stroke-linecap="round" stroke-linejoin="round"/>
<path d="M44.7041 58.2324C44.7041 58.2324 46.7745 53.0559 51.8616 54.3282C56.5697 55.5052 56.5391 59.1352 56.5391 59.1352" stroke="black" stroke-width="0.941621" stroke-linecap="round" stroke-linejoin="round"/>
<path d="M39.2676 64.3336C39.2676 64.3336 39.8561 57.5068 45.8589 58.3307C51.8618 59.1546 52.0972 63.9804 52.0972 63.9804" stroke="black" stroke-width="0.941621" stroke-linecap="round" stroke-linejoin="round"/>
<path d="M46.646 67.8284C46.646 67.8284 44.1766 63.2733 40.3677 64.3326C36.5589 65.3919 35.5007 67.0398 35.2653 69.1584C35.0299 71.2771 34.3237 75.1613 34.5591 76.6914C34.7945 78.2215 35.5454 87.7307 46.646 88.8607" stroke="black" stroke-width="0.941621" stroke-linecap="round" stroke-linejoin="round"/>
<path d="M51.624 75.3698C51.624 75.3698 51.7888 79.8554 46.6464 79.6871C41.5039 79.5188 39.2676 71.748 39.2676 71.748" stroke="black" stroke-width="0.941621" stroke-linecap="round" stroke-linejoin="round"/>
<path d="M40.0276 73.745C40.0276 73.745 38.4986 73.778 38.0596 73.0576" stroke="black" stroke-width="0.941621" stroke-linecap="round" stroke-linejoin="round"/>
<path d="M41.7093 87.5819C41.7093 87.5819 41.388 97.0546 50.8042 96.9369C60.2204 96.8192 63.4149 90.4068 60.9349 86.3154" stroke="black" stroke-width="0.941621" stroke-linecap="round" stroke-linejoin="round"/>
<path d="M40.0276 73.745C40.0276 73.745 38.4986 73.778 38.0596 73.0576L40.0276 73.745Z" fill="black"/>
<path d="M147.867 189.929C147.867 189.929 103.414 193.688 91.5259 196.159C79.638 198.631 48.5645 206.635 42.2086 208.4C35.8526 210.166 33.4986 213.344 30.0852 217.817C26.6718 222.289 24.0824 223.466 17.7264 222.642C11.3705 221.819 11.0174 209.695 10.0758 204.163C9.13413 198.631 6.07387 196.866 3.1313 192.275C0.188737 187.685 0.188737 180.74 0.77725 174.502C1.36576 168.264 3.48441 166.027 5.24995 166.145C7.01549 166.263 7.83941 172.03 7.83941 172.03L5.95616 166.027C8.07481 162.261 11.3705 162.143 14.1953 163.556C17.0202 164.968 17.1379 170.382 17.1379 170.382L15.2547 163.791C15.2547 163.791 17.9618 161.084 22.6699 166.381C28.9823 173.482 30.9091 195.453 32.0861 197.807C33.2632 200.161 35.6172 200.632 37.6182 200.044C39.6191 199.455 69.2802 190.863 85.9939 187.567C102.708 184.271 145.669 179.681 145.669 179.681L147.867 189.929Z" fill="#FFF2C9"/>
<path d="M145.668 179.681C145.668 179.681 102.707 184.272 85.9932 187.567C69.2794 190.863 39.6183 199.455 37.6174 200.044C35.6165 200.632 33.2624 200.161 32.0854 197.807C30.9083 195.453 28.9816 173.482 22.6692 166.381C17.9611 161.084 15.2539 163.791 15.2539 163.791" stroke="black" stroke-width="0.941621" stroke-linecap="round" stroke-linejoin="round"/>
<path d="M17.1378 170.382C17.1378 170.382 17.0201 164.968 14.1952 163.556C11.3704 162.143 8.0747 162.261 5.95605 166.027" stroke="black" stroke-width="0.941621" stroke-linecap="round" stroke-linejoin="round"/>
<path d="M7.83941 172.03C7.83941 172.03 7.01549 166.263 5.24995 166.145C3.48441 166.027 1.36576 168.264 0.77725 174.502C0.188737 180.74 0.188737 187.685 3.1313 192.275C6.07387 196.865 9.13413 198.631 10.0758 204.163C11.0174 209.695 11.3705 221.818 17.7264 222.642C24.0824 223.466 26.6718 222.289 30.0852 217.816C33.4986 213.344 35.8526 210.166 42.2086 208.4C48.5645 206.635 79.638 198.631 91.5259 196.159C103.414 193.687 147.867 189.929 147.867 189.929" stroke="black" stroke-width="0.941621" stroke-linecap="round" stroke-linejoin="round"/>
<path d="M79.5342 48.0351C80.6591 46.2445 79.7684 43.6604 77.5446 42.2633C75.3209 40.8662 72.6062 41.1851 71.4813 42.9757C70.3563 44.7662 71.247 47.3504 73.4708 48.7475C75.6945 50.1446 78.4092 49.8257 79.5342 48.0351Z" fill="black"/>
<path d="M79.2852 46.5596C79.2852 46.5596 85.7588 38.2027 84.5818 29.1396" stroke="black" stroke-width="0.941621" stroke-miterlimit="10" stroke-linecap="round"/>
<path d="M53.9689 44.1242C56.7245 43.453 58.5286 41.1445 57.9984 38.968C57.4683 36.7916 54.8047 35.5714 52.049 36.2426C49.2934 36.9139 47.4893 39.2224 48.0195 41.3988C48.5497 43.5753 51.2133 44.7955 53.9689 44.1242Z" fill="black"/>
<path d="M34.4298 48.3606C37.1855 47.6893 38.9895 45.3808 38.4594 43.2044C37.9292 41.0279 35.2656 39.8077 32.51 40.479C29.7544 41.1502 27.9503 43.4587 28.4804 45.6351C29.0106 47.8116 31.6742 49.0318 34.4298 48.3606Z" fill="black"/>
<path d="M37.736 43.0282C37.736 43.0282 40.5609 31.2579 34.9111 25.1374C34.9111 25.1374 44.2014 27.5503 50.6197 14.2793C50.6197 14.2793 56.3554 20.0467 57.0392 38.2023" stroke="black" stroke-width="0.941621" stroke-linecap="round" stroke-linejoin="round"/>
<path d="M37.1963 28.7401C37.1963 28.7401 41.1381 30.9318 44.3208 28.7401C47.5035 26.5485 49.2702 22.0758 49.9764 20.7811C50.6827 19.4864 51.5831 17.4937 52.7213 17.549" stroke="black" stroke-width="0.941621" stroke-linecap="round" stroke-linejoin="round"/>
<path d="M50.801 14.8975L52.2534 17.5493C52.2534 17.5493 46.7696 26.5689 44.9594 27.9719C43.1491 29.3749 39.6192 30.4342 37.3829 28.4333C35.1465 26.4323 35.735 25.4907 35.735 25.4907C35.735 25.4907 39.2661 25.8438 42.9149 23.8429C46.5637 21.8419 50.801 14.8975 50.801 14.8975Z" fill="black"/>
<path d="M17.2228 77.0402C19.9784 76.369 21.7825 74.0605 21.2524 71.8841C20.7222 69.7076 18.0586 68.4874 15.3029 69.1586C12.5473 69.8299 10.7433 72.1384 11.2734 74.3148C11.8036 76.4913 14.4672 77.7115 17.2228 77.0402Z" fill="black"/>
<path d="M13.9596 59.0359C13.9596 59.0359 14.7835 60.3306 17.4907 59.8598C20.1978 59.389 21.2571 56.9172 21.8456 55.7402C22.4342 54.5632 24.3174 53.0331 24.3174 53.0331C24.3174 53.0331 22.6696 53.0331 21.2571 53.5039C19.8447 53.9747 18.55 56.0933 15.6663 55.998C12.7825 55.9027 11.3701 51.5029 11.3701 51.5029C11.3701 51.5029 12.7825 59.7421 19.9624 70.8062" stroke="black" stroke-width="0.941621" stroke-linecap="round" stroke-linejoin="round"/>
<path d="M12.5461 54.5635L16.2643 56.169L20.0449 54.5635C20.0449 54.5635 21.4903 53.2688 23.3736 53.3865L21.3914 56.169C21.3914 56.169 20.3133 59.1539 18.5478 59.3893C16.7822 59.6247 15.6782 59.7424 14.8178 59.3893C13.9574 59.0362 13.5348 57.8403 13.5348 57.8403L12.5449 54.5635H12.5461Z" fill="black"/>
<path d="M90.8869 141.133C90.128 139.623 88.2886 139.014 86.7784 139.772C85.2682 140.531 84.6591 142.371 85.418 143.881L96.2025 165.342C96.9613 166.852 98.8008 167.461 100.311 166.702C101.821 165.944 102.43 164.104 101.671 162.594L90.8869 141.133Z" stroke="black" stroke-width="0.941621" stroke-linecap="round" stroke-linejoin="round"/>
<path d="M111.686 162.626C110.69 163.991 110.989 165.906 112.354 166.902C113.719 167.898 115.634 167.599 116.63 166.234L123.897 156.276C124.893 154.911 124.594 152.997 123.229 152C121.863 151.004 119.949 151.303 118.953 152.669L111.686 162.626Z" stroke="black" stroke-width="0.941621" stroke-linecap="round" stroke-linejoin="round"/>
<path d="M105.182 176.15C107.197 176.15 108.831 174.516 108.831 172.501C108.831 170.486 107.197 168.853 105.182 168.853C103.167 168.853 101.533 170.486 101.533 172.501C101.533 174.516 103.167 176.15 105.182 176.15Z" stroke="black" stroke-width="0.941621" stroke-linecap="round" stroke-linejoin="round"/>
</g>
<defs>
<clipPath id="clip0_4587_4194">
<rect width="230.029" height="261.74" fill="white"/>
</clipPath>
</defs>
</svg>
