<svg width="164" height="190" viewBox="0 0 164 190" fill="none" xmlns="http://www.w3.org/2000/svg">
<g clip-path="url(#clip0_4872_10258)">
<path d="M87.6372 64.1213C87.6372 64.1213 86.6689 49.4588 87.8754 41.0063C89.0819 32.5537 91.3324 17.6514 96.3749 11.6162C101.417 5.58098 100.82 5.39497 106.542 3.67299C112.265 1.95101 121.424 3.15665 125.567 8.55816C129.71 13.9597 130.154 13.0339 132.954 21.6647C134.824 27.4304 135.62 29.2341 136.305 30.0086C136.645 30.3936 136.958 30.524 137.362 30.7596C138.58 31.4715 131.893 31.9227 128.347 27.5825C128.347 27.5825 128.297 33.3578 130.65 37.2338C130.65 37.2338 128.817 37.9778 126.838 36.042C126.838 36.042 122.17 53.074 121.402 60.8825C120.636 68.6909 120.73 69.7549 121.401 72.0054C122.072 74.2559 123.286 78.2231 127.936 82.3242C132.587 86.4253 140.914 94.3337 142.837 98.0524C144.76 101.771 149.787 110.2 152.245 114.097C154.703 117.994 159.05 123.882 163.816 127.345C163.816 127.345 157.313 128.492 153.072 123.667C153.072 123.667 152.459 130.695 160.397 139.928C160.397 139.928 157.355 140.06 155.106 137.508C155.106 137.508 156.373 147.394 154.86 152.429C154.86 152.429 152.595 149.704 152.083 149.031C151.571 148.358 153.237 151.197 150.482 155.01C150.482 155.01 149.946 155.152 149.436 154.291C149.436 154.291 147.403 165.407 139.635 171.869C139.635 171.869 139.889 170.412 139.536 169.026C139.536 169.026 138.698 171.07 136.269 173.175C136.269 173.175 136.04 172.193 135.714 170.987C135.714 170.987 117.93 190.576 89.3296 189.603C60.7288 188.63 47.0399 176.985 42.9822 173.647L43.1456 174.898C43.1456 174.898 43.4151 176.361 43.8324 177.279C44.2496 178.197 34.7948 173.088 32.5113 168.394C32.5113 168.394 33.1945 172.391 33.7169 173.282C33.7169 173.282 22.295 166.055 19.0614 157.289C19.0614 157.289 17.3985 157.757 16.4111 158.721C16.4111 158.721 14.3544 158.604 16.1312 152.797C16.1312 152.797 14.4622 152.648 13.3105 154.811C13.3105 154.811 12.8793 144.904 16.2963 139.583C16.2963 139.583 14.7517 140.042 13.9746 140.702C13.9746 140.702 13.7442 137.551 18.5086 132.423C18.5086 132.423 15.9938 133.092 13.5956 135.352C13.5956 135.352 14.5257 123.32 19.2613 118.036C19.2613 118.036 15.7513 118.537 13.8277 117.888C13.8277 117.888 18.8624 115.266 20.1958 113.319C21.5301 111.372 25.1235 105.617 26.0884 103.025C27.0524 100.435 32.1279 93.0107 33.8456 91.1749C35.5632 89.339 39.0037 85.9681 40.5857 84.5825C42.1677 83.1969 46.2906 80.5014 47.2928 79.2401C48.2951 77.9788 50.8741 75.1268 51.2027 73.7665C51.5313 72.4052 51.6217 68.75 51.1532 66.7134C50.6846 64.6776 39.746 29.9451 39.7069 29.733C39.7069 29.733 33.7917 33.4647 31.9454 32.0635C31.9454 32.0635 35.9552 27.1992 36.7393 24.8131C37.5242 22.427 39.4148 16.7778 40.0546 15.061C40.6952 13.3434 42.5998 10.0176 43.7367 8.43212C44.8737 6.84661 48.5845 3.44003 50.9949 2.83416C53.4045 2.22743 61.7267 0.226422 65.6479 1.84496C69.569 3.46263 74.7706 6.5641 76.9272 13.5676C79.0838 20.5712 86.7054 55.9947 87.6381 64.1248L87.6372 64.1213Z" fill="#5C79FB"/>
<path d="M126.074 38.079C126.074 38.079 124.188 37.959 122.19 40.5242C120.191 43.0902 120.237 43.4544 117.197 44.8331C114.157 46.2117 112.507 46.269 110.973 49.3923C109.439 52.5163 110.745 55.6065 112.911 57.0295C115.076 58.4524 115.726 58.0873 116.436 58.7827C117.146 59.4781 117.209 60.1292 118.263 60.8046C119.317 61.4809 120.633 61.839 121.068 61.7834C121.068 61.7834 125.614 38.6675 126.074 38.0781L126.074 38.079Z" fill="#00B15F"/>
<path d="M108.855 62.3033C108.855 62.3033 108.37 62.5476 108.182 63.6376C107.993 64.7277 107.549 64.5912 107.767 65.257C107.985 65.922 110.455 66.5357 111.264 66.5522C112.073 66.5687 113.558 65.9463 112.443 63.9227C111.327 61.8991 109.456 61.8122 108.854 62.3033H108.855Z" fill="#00B15F"/>
<path d="M125.274 79.8804C119.895 78.1593 108.894 79.3041 102.905 83.0419C102.427 83.34 104.27 81.685 103.007 80.794C101.744 79.903 97.4849 79.4084 94.719 79.6701C91.953 79.9317 88.6551 80.8783 86.0352 82.8315C83.4153 84.7838 83.8795 85.9565 84.6887 86.5562C85.498 87.156 87.5338 87.0926 87.399 87.7549C87.2956 88.2652 86.2169 87.5785 85.4815 88.5659C84.7461 89.5534 85.511 90.4887 85.7031 90.8712C85.8944 91.2536 81.3082 90.6799 79.2394 92.9313C78.2833 93.9709 80.2999 95.0949 80.0131 95.772C79.5002 96.9837 76.4092 95.7885 75.3226 98.1642C74.236 100.54 75.5034 102.601 77.7617 102.63C80.02 102.66 82.094 100.489 83.4987 99.4011C84.9026 98.3128 86.7871 98.5397 88.9437 99.1264C91.1003 99.7132 92.2416 100.469 95.0137 100.38C97.7857 100.29 111.409 108.145 117.064 110.271C118.817 110.93 121.667 111.405 123.916 113.298C126.166 115.19 128.762 121.056 130.189 122.828C131.615 124.601 133.234 125.988 134.64 124.973C136.046 123.959 137.162 120.002 137.715 118.235C137.869 117.744 138.279 116.556 139.369 117.007C140.459 117.458 141.773 118.822 142.443 121.43C143.113 124.039 143.32 125.578 144.766 126.716C146.211 127.855 147.482 127.731 148.57 126.981C149.658 126.232 149.339 124.299 150.339 123.31C151.339 122.321 151.803 122.746 152.773 122.336C153.742 121.928 155.412 119.788 154.564 118.266C151.464 112.708 143.266 98.611 141.504 96.417C139.741 94.2221 129.394 83.6173 128.389 82.8385C127.541 82.1804 126.298 80.2072 125.275 79.8804H125.274Z" fill="#00B15F"/>
<path d="M120.716 166.271C120.716 166.271 116.835 166.109 114.406 169.949C111.977 173.79 110.092 174.717 109.075 175.82C108.057 176.923 108.837 178.37 110.12 178.587C111.403 178.803 119.945 175.918 122.604 173.729C125.263 171.54 125.053 169.285 124.595 168.263C124.137 167.241 123.182 166.464 120.715 166.272L120.716 166.271Z" fill="#00B15F"/>
<path d="M103.294 174.214C102.403 174.712 100.512 175.232 101.105 176.111C101.698 176.991 103.351 177.276 104.218 177.23C105.085 177.184 106.249 176.129 106.236 175.163C106.223 174.196 105.294 173.096 103.293 174.214H103.294Z" fill="#00B15F"/>
<path d="M113.771 141.361C113.771 141.361 112.627 144.351 111.144 146.332C109.66 148.312 109.448 149.696 110.586 150.302C111.725 150.908 112.463 150.656 113.171 149.845C113.88 149.035 115.926 142.876 115.799 141.69C115.672 140.504 115.036 139.086 113.771 141.361Z" fill="#00B15F"/>
<path d="M75.0557 106.065C75.0557 106.065 77.4348 103.96 80.2659 103.493C83.0979 103.026 83.8411 103.775 85.3762 103.159C86.9122 102.543 89.8937 103.849 92.7579 105.331C95.622 106.813 115.905 112.178 115.905 112.178C115.905 112.178 117.039 112.195 118.544 112.044C120.049 111.893 119.88 112.39 120.915 113.814C121.951 115.238 119.169 118.577 117.542 120.562L112.332 131.585C112.332 131.585 110.915 133.627 110.327 135.459C109.739 137.29 110.533 140.456 110.06 142.239C109.587 144.022 106.654 147.182 106.654 147.182L90.9881 143.007C90.9881 143.007 90.2197 138.811 89.9858 135.425C89.752 132.038 89.4539 131.253 88.1491 129.646C86.8444 128.039 85.4597 126.753 84.5418 126.406C83.6238 126.06 82.7459 125.901 81.6037 126.956C80.4615 128.01 79.0985 127.642 79.0985 127.642L75.4668 126.571L75.0557 106.064V106.065Z" fill="#00B15F"/>
<path d="M38.3415 20.3082C38.3415 20.3082 41.4325 19.5059 46.1204 22.7326C50.8082 25.9592 51.3341 25.6558 55.0936 24.7953C58.8523 23.9339 63.3315 24.6606 64.6814 26.785C66.0314 28.9103 67.6456 32.396 60.7377 39.2309C53.8297 46.0658 54.4904 44.6159 52.9588 48.4936C51.428 52.3713 50.4379 53.4144 47.8572 54.3184L39.8253 29.8604C39.8253 29.8604 36.1727 32.143 31.9082 32.183C31.9082 32.183 37.4792 25.7941 38.3415 20.3082Z" fill="#00B15F"/>
<path d="M73.1953 35.4323C72.4826 35.1072 71.6359 35.2211 71.0187 35.7044C70.6363 36.0034 70.2251 36.4911 69.9183 37.2873C69.1516 39.2735 69.7853 39.9454 68.7413 40.9025C67.6965 41.8595 66.5882 42.1994 66.8072 43.7893C67.0263 45.3791 68.7283 45.8607 70.1425 45.4426C71.5559 45.0253 73.3753 43.1147 73.9542 41.1546C74.4514 39.47 75.0173 36.2633 73.1953 35.4323Z" fill="#00B15F"/>
<path d="M70.3266 30.6505C69.7486 30.1046 68.7994 30.6044 68.9045 31.3928C68.9063 31.405 68.908 31.4171 68.9098 31.4302C69.0923 32.681 69.5304 33.2434 70.1432 32.4107C70.6048 31.7831 70.863 31.1564 70.3275 30.6505H70.3266Z" fill="#00B15F"/>
<path d="M51.3481 73.7112C51.3481 73.7112 53.1787 73.4452 55.6943 73.8224C58.21 74.1997 60.3865 74.2962 63.3846 74.1015C66.3826 73.9068 68.3028 74.7143 70.9357 74.7143C73.5687 74.7143 76.2946 73.739 77.7341 75.1602C79.1736 76.5814 75.9391 77.6471 75.2263 79.0892C74.5136 80.5313 74.5448 80.9285 71.6876 82.1264C68.8304 83.3242 66.5339 83.9292 63.914 86.0554C61.294 88.1815 58.1187 87.5322 58.1187 87.5322C58.1187 87.5322 56.0429 86.5613 56.5306 84.7184C57.0182 82.8748 57.9066 81.1771 56.9487 79.6194C55.9908 78.0618 54.9659 77.8131 53.4656 78.0035C51.9653 78.1939 50.352 78.446 49.5088 77.2794C49.5088 77.2794 51.05 74.5787 51.3481 73.7129V73.7112Z" fill="#00B15F"/>
<path d="M48.0013 78.5205C48.0013 78.5205 49.6511 78.9751 51.1115 80.8718C52.5718 82.7676 53.009 81.8271 53.4132 82.978C53.8174 84.1289 53.1907 84.5166 52.0416 84.6922C50.8924 84.8678 50.7499 85.2728 50.1805 86.1369C49.6111 87.0009 48.1717 87.06 47.1686 86.1855C46.1655 85.3111 40.7188 84.3732 40.7188 84.3732L43.8141 82.2426C43.8141 82.2426 45.0754 83.8064 46.2871 83.9081C46.2871 83.9081 46.4714 82.6103 47.5606 82.4634C47.5606 82.4634 45.5639 81.4212 45.8951 80.651L48.0013 78.5205Z" fill="#00B15F"/>
<path d="M35.808 89.3711C35.808 89.3711 37.1145 88.8799 39.1416 91.1921C40.4481 92.6829 39.106 87.297 42.8889 86.8398C46.6719 86.3826 46.6858 88.215 47.8941 88.9999C49.1023 89.7848 49.9246 89.3641 50.9764 90.5011C52.0282 91.6381 53.1226 94.8795 52.4254 96.1912C51.7283 97.5037 49.716 97.0048 48.4478 96.4015C47.1795 95.7983 45.8357 95.587 44.9377 95.6809C44.9377 95.6809 50.1489 96.5945 49.6386 98.7737C49.1293 100.953 46.6902 99.6812 44.7622 99.9089C42.8342 100.137 37.4014 102.769 35.968 104.705C34.5346 106.642 34.0122 112.434 32.4571 112.749C30.9029 113.065 28.329 109.977 26.9774 109.724C25.6257 109.472 23.8177 109.083 22.8311 109.709C22.8311 109.709 30.2092 92.702 35.808 89.3693V89.3711Z" fill="#00B15F"/>
<path d="M29.9632 116.129C29.9632 116.129 32.6501 116.175 33.8035 116.947C34.957 117.718 35.2587 117.255 35.5073 116.914C35.7559 116.574 35.5133 115.127 32.8213 114.44C30.1292 113.752 28.9036 114.842 28.821 115.285C28.7393 115.726 28.7715 116.202 29.9632 116.13V116.129Z" fill="#00B15F"/>
<path d="M35.8339 118.24C35.8339 118.24 36.3511 119.263 37.7463 118.592C39.1406 117.92 38.9076 117.161 38.9076 117.161C38.9076 117.161 38.9624 116.378 37.6055 116.691C36.2486 117.005 35.5749 117.488 35.8339 118.24Z" fill="#00B15F"/>
<path d="M21.4212 111.659C27.9432 112.148 26.8679 117.094 27.1722 117.136C30.5718 117.605 32.4146 124.073 32.4146 124.073C32.4146 124.073 34.0019 119.446 40.503 121.744C44.6919 123.225 48.1106 128.489 48.8634 129.72C49.6161 130.95 50.8183 130.743 50.8183 130.743L51.8797 133.565L54.4396 131.881C54.4396 131.881 54.9707 131.767 55.6339 132.574C56.2972 133.381 57.5046 133.874 58.5477 135.321C59.5908 136.767 57.3533 140 56.6371 141.721C55.9208 143.443 56.4597 143.746 56.2789 144.993C56.0981 146.24 55.4418 147.514 53.6295 148.94C51.8162 150.366 51.618 150.152 50.8626 152.12C50.1073 154.088 47.636 157.394 47.6829 157.686C48.0385 159.874 46.0627 160.929 46.0627 160.929C46.0627 160.929 45.9705 162.009 45.8775 163.95C45.7854 165.892 48.3827 169.402 48.2201 171.163C48.0576 172.925 47.1336 172.836 43.9043 170.208C40.6751 167.58 39.0252 162.925 38.016 157.23C37.0077 151.536 39.1556 147.713 35.1188 143.48C31.0812 139.246 29.095 135.951 29.906 133.026C30.717 130.101 30.6109 126.06 30.6109 126.06C30.6109 126.06 26.9636 125.824 24.9852 123.901C21.9289 120.929 23.2519 118.837 22.7329 118.756C16.7256 117.814 18.1285 114.968 18.1285 114.968C18.7396 115.165 21.1101 111.639 21.4204 111.663L21.4212 111.659Z" fill="#00B15F"/>
<path d="M89.4956 126.958C89.2782 127.082 88.349 107.097 94.0808 101.799C99.8126 96.5009 101.526 97.7405 102.849 97.7092C104.172 97.6779 109.95 97.797 114.158 104.185C118.366 110.573 117.432 117.407 117.349 121.877C117.266 126.347 115.932 132.23 115.583 133.34L107.465 129.033C107.465 129.033 102.599 127.007 100.311 126.8C98.0229 126.593 89.4947 126.958 89.4947 126.958H89.4956Z" fill="white"/>
<path d="M77.4456 126.958C77.6629 127.082 78.5922 107.097 72.8603 101.799C67.1285 96.5009 65.4152 97.7405 64.0922 97.7092C62.7693 97.6779 56.9914 97.797 52.7833 104.185C48.5753 110.573 49.5089 117.407 49.5923 121.877C49.6749 126.347 51.0092 132.23 51.3586 133.34L59.4765 129.033C59.4765 129.033 64.3426 127.007 66.6304 126.8C68.9183 126.593 77.4465 126.958 77.4465 126.958H77.4456Z" fill="white"/>
<path d="M85.2564 143.172C86.5925 143.172 88.7282 143.499 90.0373 143.231C91.794 142.873 94.181 142.065 96.3897 139.83C100.807 135.361 103.626 135.048 105.496 135.775C107.101 136.398 111.157 139.773 107.639 150.276C104.12 160.779 100.276 160.367 95.8395 160.257C91.4029 160.145 83.2667 156.7 79.416 152.862C77.2281 150.682 76.2423 146.371 79.416 144.335C81.5152 142.987 82.8877 143.172 85.2564 143.172Z" fill="black"/>
<path d="M87.5749 149.597C87.5749 149.597 92.6226 149.138 92.6852 148.624C92.7478 148.111 91.7446 143.166 91.7542 143.06C91.7638 142.954 87.1681 143.755 86.4579 143.391C85.7477 143.027 87.5749 149.597 87.5749 149.597Z" fill="white"/>
<path d="M94.8584 141.654L98.0025 146.308L102.161 143.95L99.0986 137.93L94.8584 141.654Z" fill="white"/>
<path d="M109.239 89.1465C108.998 89.3752 109.283 89.8159 109.615 89.8367C109.946 89.8576 110.236 89.6359 110.505 89.4412C110.875 89.1735 111.282 88.9318 111.734 88.8684C112.283 88.791 112.838 88.984 113.326 89.2482C115.161 90.2383 116.635 92.1385 117.669 93.9483C118.44 95.2956 118.878 96.224 119.503 97.7295C119.842 98.5475 120.471 99.9261 120.599 100.267C120.952 101.206 121.034 101.567 121.502 102.762C121.532 102.836 121.594 102.877 121.663 102.897C121.895 102.966 122.103 102.727 122.025 102.498C121.901 102.135 121.742 101.719 121.634 101.406C120.273 97.467 118.842 93.4319 116.133 90.2644C115.512 89.5386 114.82 88.8579 113.995 88.3773C113.17 87.8966 112.196 87.6254 111.25 87.7584C110.305 87.8913 109.4 88.4677 109.24 89.1474L109.239 89.1465Z" fill="#00B15F"/>
<path d="M77.2624 119.967C77.5284 120.345 77.9448 120.589 78.3716 120.766C79.2086 121.113 80.1187 121.238 81.0202 121.332C82.51 121.487 84.0191 121.565 85.502 121.354C86.9849 121.144 88.4487 120.63 89.6153 119.69C89.5214 122.226 89.4927 124.764 89.4675 127.354C89.1972 127.579 88.8416 127.671 88.4948 127.734C87.6777 127.88 86.8372 127.9 85.9627 127.797C85.2716 126.903 84.1442 126.363 83.0142 126.383C82.7804 126.387 82.5439 126.415 82.324 126.495C81.8068 126.684 81.44 127.14 81.1514 127.619C80.8011 127.583 80.4464 127.596 80.1005 127.656C79.8328 127.703 79.565 127.779 79.2947 127.75C79.06 127.726 78.8401 127.624 78.6323 127.512C78.2777 127.321 77.943 127.093 77.6692 126.964C77.7075 125.68 77.637 124.392 77.4597 123.119C77.3146 122.077 77.0972 121.02 77.2624 119.965V119.967Z" fill="#00B15F"/>
<path d="M116.935 128.314C118.295 128.902 119.429 129.998 120.061 131.339C120.694 132.679 120.82 134.251 120.409 135.674C120.307 136.026 120.166 136.382 119.899 136.632C119.631 136.883 119.209 136.998 118.809 136.919C118.251 136.293 117.693 135.667 117.135 135.042C116.643 134.49 116.13 133.923 115.44 133.521C116.141 131.851 116.613 130.086 116.936 128.314H116.935Z" fill="#5C79FB"/>
<path d="M57.9393 89.1465C58.18 89.3752 57.8949 89.8159 57.5637 89.8367C57.2326 89.8576 56.9422 89.6359 56.6736 89.4412C56.3033 89.1735 55.8965 88.9318 55.4445 88.8684C54.8952 88.791 54.3406 88.984 53.8521 89.2482C52.0171 90.2383 50.5437 92.1385 49.5093 93.9483C48.7383 95.2956 48.3002 96.224 47.6752 97.7295C47.3362 98.5475 46.7069 99.9261 46.5791 100.267C46.2262 101.206 46.1445 101.567 45.6759 102.762C45.6464 102.836 45.5847 102.877 45.5151 102.897C45.283 102.966 45.0753 102.727 45.1535 102.498C45.2769 102.135 45.436 101.719 45.5447 101.406C46.905 97.467 48.3367 93.4319 51.0453 90.2644C51.6659 89.5386 52.3587 88.8579 53.1836 88.3773C54.0085 87.8966 54.9821 87.6254 55.9278 87.7584C56.8736 87.8913 57.7785 88.4677 57.9384 89.1474L57.9393 89.1465Z" fill="#00B15F"/>
<path d="M50.2434 128.314C48.883 128.902 47.7495 129.998 47.1167 131.339C46.4839 132.679 46.3578 134.251 46.769 135.674C46.8707 136.026 47.0124 136.382 47.2792 136.632C47.5461 136.883 47.9686 136.998 48.3693 136.919C48.9273 136.293 49.4854 135.667 50.0435 135.042C50.5354 134.49 51.0483 133.923 51.7376 133.521C51.037 131.851 50.565 130.086 50.2425 128.314H50.2434Z" fill="#5C79FB"/>
<path d="M50.8193 130.741C49.5797 131.143 48.5931 129.319 48.5931 129.319C48.5931 129.319 47.6856 130.172 47.1171 131.339C46.4687 132.671 46.3583 134.251 46.7694 135.674C46.8711 136.026 47.0128 136.382 47.2797 136.632C47.5474 136.883 47.969 136.998 48.3697 136.919C48.9278 136.293 49.4858 135.667 50.0439 135.042C50.5359 134.49 51.0487 133.923 51.7381 133.521C51.0374 131.851 51.1409 132.512 50.8193 130.741V130.741Z" fill="#00B15F"/>
<path d="M80.365 133.012C80.365 133.012 80.0529 131.708 81.768 132.095C83.483 132.482 84.2401 132.506 85.1128 132.275C85.9855 132.044 86.5488 132.014 86.767 132.671C86.986 133.328 86.3054 134.674 83.9072 134.865C81.5089 135.055 80.9126 134.226 80.3641 133.012H80.365Z" fill="#5C79FB"/>
<path d="M152.84 123.589C154.116 124.912 155.64 126.008 157.337 126.716C159.034 127.425 160.905 127.738 162.732 127.534C163.06 127.498 163.397 127.441 163.676 127.266C163.709 127.246 163.742 127.223 163.756 127.188C163.801 127.085 163.665 126.999 163.556 126.974C163.141 126.883 162.712 126.931 162.287 126.942C160.68 126.986 159.102 126.498 157.63 125.852C156.111 125.186 154.668 124.346 153.339 123.353C153.177 123.231 152.923 123.117 152.799 123.277C152.731 123.365 152.752 123.496 152.816 123.587C152.88 123.677 152.98 123.734 152.84 123.59V123.589Z" fill="#5C79FB"/>
<path d="M155.156 137.29C156.028 138.456 157.296 139.32 158.701 139.704C159.151 139.828 159.624 139.902 160.083 139.821C160.209 139.798 160.365 139.718 160.341 139.592C160.328 139.523 160.262 139.477 160.201 139.444C159.736 139.184 159.191 139.116 158.691 138.937C157.875 138.646 157.197 138.067 156.549 137.492C156.181 137.166 155.732 136.813 155.254 136.923C155.202 136.935 155.147 136.954 155.114 136.997C155.046 137.084 155.099 137.21 155.159 137.301C155.268 137.466 155.397 137.619 155.156 137.29Z" fill="#5C79FB"/>
<path d="M155.018 137.441C154.883 137.394 154.747 137.347 154.613 137.299C154.442 137.364 154.425 137.594 154.437 137.775C154.579 139.943 154.83 142.104 154.913 144.275C154.997 146.447 154.909 148.642 154.382 150.75C154.264 151.222 154.125 151.717 154.256 152.186C154.313 152.388 154.469 152.604 154.678 152.583C154.903 152.56 155.004 152.294 155.055 152.074C155.338 150.848 155.579 149.604 155.603 148.346C155.612 147.862 155.589 147.377 155.606 146.893C155.624 146.38 155.687 145.87 155.726 145.358C155.9 143.054 155.579 140.744 155.259 138.455C155.208 138.091 155.156 137.72 155.019 137.44L155.018 137.441Z" fill="#5C79FB"/>
<path d="M151.624 148.992C151.557 149.304 151.489 149.616 151.423 149.927C151.135 151.259 150.835 152.621 150.111 153.777C150.007 153.944 149.892 154.108 149.829 154.295C149.767 154.482 149.762 154.7 149.872 154.864C149.98 155.028 150.223 155.108 150.386 154.996C150.465 154.942 150.514 154.856 150.56 154.772C151.263 153.479 151.792 152.09 152.124 150.655C152.197 150.341 152.26 150.02 152.234 149.699C152.208 149.378 152.08 149.052 151.828 148.852C151.708 148.911 151.629 149.049 151.626 148.993L151.624 148.992Z" fill="#5C79FB"/>
<path d="M148.993 153.597C147.753 158.505 145.304 163.031 142.482 167.235C141.824 168.216 141.14 169.187 140.295 170.012C140.063 170.238 139.815 170.459 139.667 170.747C139.518 171.035 139.493 171.414 139.699 171.663C140.293 171.181 140.845 170.646 141.343 170.065C141.727 169.619 142.079 169.147 142.429 168.673C143.828 166.782 145.202 164.864 146.322 162.796C147.629 160.38 148.575 157.787 149.426 155.176C149.524 154.875 149.622 154.561 149.58 154.248C149.54 153.934 149.316 153.62 148.992 153.596L148.993 153.597Z" fill="#5C79FB"/>
<path d="M138.91 168.193C138.44 168.901 137.969 169.609 137.499 170.318C137.175 170.805 136.848 171.297 136.435 171.713C136.217 171.932 135.965 172.148 135.891 172.448C135.867 172.547 135.871 172.666 135.95 172.727C136.01 172.774 136.094 172.773 136.169 172.76C136.482 172.706 136.74 172.491 136.972 172.274C137.747 171.547 138.406 170.698 138.918 169.768C139.146 169.353 139.351 168.891 139.287 168.422C139.274 168.325 139.245 168.221 139.168 168.159C139.092 168.096 138.966 168.108 138.91 168.193Z" fill="#5C79FB"/>
<path d="M43.4502 174.025L44.3551 173.165C47.0411 175.91 49.9635 177.671 54.8217 180.263C65.7107 186.072 77.1266 188.434 89.4681 188.485C101.81 188.536 114.192 185.038 124.419 178.128C129.041 175.005 130.481 173.892 134.417 170.86C134.68 170.657 135.002 171.069 134.759 171.297C130.138 175.631 123.961 180.409 117.874 183.618C111.891 186.705 105.341 189.002 98.6848 189.182C90.4704 190.157 82.11 189.886 74.1937 188.302C67.8334 187.105 61.6262 185.1 56.2247 182.502C51.562 180.271 47.194 177.427 43.4502 174.025Z" fill="#5C79FB"/>
<path d="M43.2235 173.599L43.0809 173.2C43.0679 173.165 43.0557 173.125 43.0731 173.092C43.0861 173.065 43.1148 173.05 43.1417 173.037C43.4225 172.896 43.7424 172.753 44.0388 172.857C44.3743 172.975 44.5256 173.355 44.6377 173.692C44.6551 173.744 44.6716 173.799 44.6577 173.851C44.6455 173.898 44.6099 173.935 44.5751 173.97C44.3839 174.158 44.1423 174.344 43.8754 174.309C43.6885 174.283 43.5312 174.15 43.4312 173.99C43.3312 173.83 43.2817 173.645 43.2235 173.599Z" fill="#5C79FB"/>
<path d="M32.4912 168.201C35.1624 172.103 38.9262 175.248 43.2412 177.183C43.4124 177.26 43.6628 177.309 43.7445 177.14C43.7992 177.026 43.7262 176.892 43.6463 176.795C43.3377 176.42 42.8961 176.185 42.4719 175.951C39.6799 174.403 37.1373 172.406 34.9738 170.059C34.241 169.263 33.5387 168.418 32.6355 167.822C32.4643 168.02 32.5425 168.374 32.4912 168.201Z" fill="#5C79FB"/>
<path d="M19.1561 157.546L19.3848 156.918C20.3001 157.728 20.7486 158.924 21.3084 160.011C22.3402 162.013 23.8275 163.738 25.3374 165.408C27.2706 167.547 29.282 169.647 31.649 171.293C32.0019 171.538 32.3765 171.779 32.7998 171.85C32.9511 171.875 33.111 171.88 33.2484 171.95C33.4527 172.053 33.563 172.276 33.6587 172.484C33.6969 172.567 33.7369 172.659 33.7126 172.748C33.6482 172.979 33.3005 172.903 33.0954 172.777C30.6624 171.292 28.2024 169.785 26.204 167.751C25.479 167.014 24.8219 166.215 24.1656 165.416C23.3555 164.43 22.5453 163.444 21.7743 162.428C20.5878 160.865 19.4708 159.175 19.1553 157.545L19.1561 157.546Z" fill="#5C79FB"/>
<path d="M16.1641 158.781C16.0485 158.718 15.946 158.63 15.8643 158.526C16.3397 157.664 17.1664 157.004 18.1113 156.731C18.4737 156.625 18.871 156.579 19.2222 156.716C19.4273 156.796 19.6272 156.984 19.5925 157.201C19.5655 157.369 19.4047 157.487 19.2404 157.53C19.0761 157.574 18.9031 157.563 18.7336 157.576C18.1886 157.622 17.7079 157.935 17.2498 158.234C16.8752 158.48 16.4736 158.729 16.1633 158.781H16.1641Z" fill="#5C79FB"/>
<path d="M13.5086 154.272C13.393 154.234 13.3399 154.09 13.3625 153.97C13.3851 153.85 13.4634 153.75 13.5381 153.654C13.8528 153.254 14.1709 152.853 14.5534 152.518C14.9359 152.182 15.3914 151.914 15.892 151.825C16.0172 151.803 16.1502 151.793 16.2684 151.839C16.3866 151.885 16.4866 152.002 16.4762 152.128C16.4666 152.258 16.3545 152.353 16.2519 152.432C15.4974 153.014 14.742 153.597 13.9875 154.179C13.8884 154.256 13.7789 154.336 13.6537 154.337C13.5286 154.338 13.3973 154.216 13.5077 154.271L13.5086 154.272Z" fill="#5C79FB"/>
<path d="M14.1174 140.62L13.8184 140.514C14.087 139.716 14.878 139.207 15.6742 138.933C16.0219 138.814 16.4261 138.733 16.7408 138.923C16.9094 139.025 17.0354 139.238 16.9572 139.419C16.8746 139.611 16.6304 139.656 16.4296 139.713C16.1323 139.798 15.8663 139.965 15.5908 140.105C15.0553 140.377 14.472 140.554 14.1174 140.619V140.62Z" fill="#5C79FB"/>
<path d="M13.7505 135.119C13.6053 135 13.5714 134.784 13.621 134.602C13.6705 134.42 13.7896 134.267 13.9105 134.124C15.0587 132.76 16.7625 131.777 18.5435 131.838C18.7939 131.846 19.0668 131.885 19.2398 132.067C19.2702 132.099 19.298 132.138 19.3007 132.183C19.3059 132.271 19.2137 132.331 19.1338 132.37C17.5961 133.123 15.9558 133.704 14.5737 134.715C14.2886 134.923 13.9904 135.159 13.7496 135.118L13.7505 135.119Z" fill="#5C79FB"/>
<path d="M14.1808 118.023C14.0895 117.938 14.0374 117.811 14.0434 117.687C14.7041 117.517 15.3995 117.575 16.081 117.544C17.2605 117.489 18.4462 117.149 19.3928 116.443C19.5797 116.304 19.7683 116.146 19.9987 116.112C20.229 116.078 20.5054 116.236 20.4941 116.469C20.4872 116.604 20.3907 116.715 20.2942 116.809C19.5058 117.581 18.4227 118.004 17.3275 118.145C16.2322 118.286 15.1204 118.163 14.1808 118.024V118.023Z" fill="#5C79FB"/>
<path d="M19.1124 117.501C18.9012 117.463 18.7117 117.316 18.623 117.122C18.5935 117.057 18.5474 116.974 18.4805 116.994C18.9264 116.73 19.162 116.604 19.4697 116.388C19.5931 116.302 19.6957 116.201 19.9165 116.128C20.059 116.081 20.2155 116.11 20.3546 116.166C20.4945 116.222 20.5354 116.395 20.5076 116.543C20.4919 116.625 20.4389 116.696 20.3824 116.758C20.0251 117.152 19.4949 117.33 19.1124 117.501V117.501Z" fill="#00B15F"/>
<path d="M93.6206 64.8724C93.5076 64.9915 93.3868 65.114 93.2312 65.1653C93.0748 65.2166 92.8731 65.1671 92.8079 65.0167C92.7766 64.9437 92.7818 64.8611 92.7923 64.7829C92.8913 64.0762 93.4268 63.5164 93.9683 63.0504C96.1493 61.1737 98.8405 59.9811 101.586 59.1206C102.054 58.9737 102.546 58.8337 103.03 58.918C103.201 58.9476 103.4 59.0441 103.407 59.2179C103.413 59.37 103.268 59.4796 103.136 59.5569C102.311 60.0376 101.39 60.3236 100.5 60.6704C98.3667 61.5023 96.3788 62.7071 94.6542 64.2135C94.2256 64.5873 93.8023 64.9871 93.2773 65.2062C93.2373 65.1271 93.1973 65.048 93.6198 64.8724H93.6206Z" fill="#5C79FB"/>
<path d="M94.5913 67.9357L94.0958 68.1052C93.8968 67.8149 94.0393 67.415 94.2367 67.1247C94.6704 66.4867 95.3328 66.0364 96.0273 65.7018C96.475 65.4853 96.9817 65.308 97.4624 65.4332C97.5841 65.4653 97.7154 65.5305 97.7493 65.6522C97.8058 65.8539 97.5702 66.0034 97.3772 66.0851C96.2298 66.5719 95.1772 67.2812 94.5896 67.9366L94.5913 67.9357Z" fill="#5C79FB"/>
<path d="M71.9014 63.1337C73.1731 62.6512 74.6056 62.6808 75.9095 63.0667C77.2142 63.4527 78.3981 64.1785 79.4456 65.0469C80.1253 65.611 80.7825 66.2864 80.9841 67.147C81.0067 67.2443 81.0232 67.3487 80.992 67.4443C80.9198 67.6607 80.6251 67.7276 80.4139 67.6416C80.2027 67.5547 80.054 67.366 79.9054 67.1922C78.1478 65.1347 75.3358 64.4097 72.7402 63.6465C72.3725 63.5379 72.0022 63.4257 71.6641 63.2441C71.7823 63.1737 71.9005 63.1041 71.9005 63.1345L71.9014 63.1337Z" fill="#5C79FB"/>
<path d="M127.928 26.9063C127.808 26.7185 127.921 26.4482 128.114 26.3369C128.308 26.2256 128.549 26.2387 128.766 26.2908C129.681 26.5108 130.316 27.3061 130.997 27.9546C132.421 29.3123 134.316 30.1659 136.276 30.3337C136.481 30.3511 136.698 30.365 136.87 30.478C137.042 30.591 137.144 30.8431 137.022 31.0091C136.965 31.0856 136.875 31.1291 136.787 31.1656C135.885 31.5385 134.857 31.5281 133.915 31.2786C132.973 31.0291 132.104 30.551 131.292 30.0103C129.975 29.1333 128.706 28.1241 127.928 26.9063Z" fill="#5C79FB"/>
<path d="M126.935 35.9627C126.863 35.814 126.791 35.6662 126.718 35.5176C126.694 35.4689 126.67 35.4168 126.68 35.3637C126.689 35.3229 126.717 35.289 126.748 35.2612C126.953 35.076 127.281 35.0995 127.525 35.2281C127.769 35.3568 127.955 35.5698 128.157 35.7593C128.727 36.2947 129.45 36.6554 130.208 36.8449C130.365 36.8841 130.548 36.9353 130.608 37.0857C130.669 37.2361 130.562 37.4143 130.415 37.4847C130.268 37.5551 130.097 37.5438 129.936 37.5212C129.338 37.4386 128.764 37.2231 128.232 36.9379C127.659 36.6311 127.078 36.2608 126.933 35.9635L126.935 35.9627Z" fill="#5C79FB"/>
<path d="M123.345 77.2887C121.77 76.2422 120.759 74.4967 120.271 72.6695C119.783 70.8433 119.77 68.9248 119.846 67.0351C120.098 60.7904 121.279 54.6248 122.486 48.4923C123.314 44.286 124.166 40.0484 125.848 36.1047C125.944 35.8787 126.051 35.6431 126.247 35.4936C126.442 35.3441 126.753 35.3163 126.968 35.7378C124.718 44.5077 122.462 53.3027 121.259 62.2768C120.935 64.6916 120.688 67.1351 120.896 69.5629C121.105 71.9907 121.793 74.4211 123.199 76.4108C123.432 76.7411 123.57 77.4374 123.345 77.287V77.2887Z" fill="#5C79FB"/>
<path d="M120.199 61.7124C120.534 61.7341 120.869 61.7307 121.203 61.702C121.115 61.8767 121.128 62.0984 121.235 62.2618C121.994 56.0771 123.396 49.9889 124.796 43.9163C125.234 42.0153 125.673 40.1099 126.314 38.2662C125.891 38.0724 125.386 38.1532 124.997 38.4757C124.392 39.584 124.08 40.8244 123.787 42.0518C122.235 48.5529 121.042 55.14 120.2 61.7124H120.199Z" fill="#00B15F"/>
<path d="M65.334 2.23535C67.7053 2.76385 69.635 4.49018 71.1449 6.39296C73.6083 9.49791 75.2347 13.1896 76.4603 16.9595C77.7268 20.8529 78.5917 24.8636 79.454 28.8656C81.6428 39.0175 83.8342 49.1912 84.9894 59.5118C85.2015 61.4102 85.6344 63.6729 87.4068 64.3857C86.9365 60.8 86.3133 57.2335 85.5788 53.7374C84.9329 51.0775 84.3766 48.395 83.9115 45.6977C83.7942 45.018 83.6829 44.3191 83.789 43.7523C83.583 42.9153 83.4934 42.0538 83.3717 41.2002C83.0171 38.7264 82.3834 36.3029 81.8592 33.9985C81.5281 30.871 80.8892 27.7756 79.9339 24.9592C79.4879 21.4431 78.5952 17.9835 77.3739 14.7195C76.6029 12.5107 75.625 10.3741 74.6054 8.49306C73.8978 7.4604 73.0981 6.48858 72.1854 5.6315C71.1188 4.62926 69.8993 3.7887 68.5771 3.1611C67.4888 2.64477 66.3354 2.27534 65.334 2.23535Z" fill="#5C79FB"/>
<path d="M94.0993 67.9317C92.6937 67.9013 91.269 67.9047 89.9086 68.2576C88.5474 68.6106 87.2383 69.3512 86.4664 70.5255C86.2934 70.788 86.1448 71.0992 86.21 71.4069C86.323 71.9389 86.968 72.1371 87.506 72.2171C89.3845 72.4944 91.2968 72.5439 93.1866 72.3648C94.1914 72.2692 95.2849 72.058 95.9264 71.2783C96.4436 70.6498 96.5436 69.7084 96.1698 68.9852C95.796 68.262 94.9694 67.7996 94.1002 67.9317H94.0993Z" fill="#5C79FB"/>
<path d="M80.2333 67.5943C80.2333 67.5943 78.6808 65.429 75.2012 64.2146C71.7225 63.0003 70.9106 63.7418 72.3953 62.1658C73.88 60.5908 82.23 58.2299 87.462 64.6206C87.462 64.6206 92.222 55.7151 103.068 58.841C103.407 58.9383 103.423 59.4138 103.093 59.5381C100.907 60.3613 95.7624 62.5127 93.3424 65.3395C93.3424 65.3395 95.3148 64.2851 97.5548 65.2134C97.9121 65.3612 97.9051 65.8732 97.5435 66.0105C96.643 66.3539 95.3208 67.0015 94.6515 68.0176" stroke="black" stroke-width="0.695398" stroke-linecap="round" stroke-linejoin="round"/>
<path d="M39.7408 29.4738C39.7408 29.4738 37.4225 32.0772 32.2174 32.2597C31.9584 32.2684 31.815 31.952 31.9992 31.7712C37.4042 26.4462 36.6106 24.3661 39.0375 17.7789C43.017 6.97938 46.766 3.68841 54.4693 1.99598C64.6543 -0.240589 73.3094 2.2159 77.4739 14.9773C81.6385 27.7387 87.3294 64.826 87.3451 64.0976" stroke="black" stroke-width="0.695398" stroke-linecap="round" stroke-linejoin="round"/>
<path d="M87.4409 63.6618C87.4409 63.6618 85.5416 47.4833 90.0321 27.6297C94.6374 7.26761 102.518 2.64321 112.979 3.03176C126.188 3.52289 130.926 15.2699 132.277 19.6596C133.629 24.0493 135.346 28.8719 137.078 30.2366C138.811 31.6013 132.661 32.694 127.866 26.883C127.866 26.883 128.613 33.5423 130.691 36.7038C130.942 37.0863 130.647 37.5965 130.19 37.5626C129.273 37.4948 127.954 37.1462 126.829 35.8815C126.829 35.8815 119.576 62.0215 121.029 70.5784C122.482 79.1352 128.88 82.7565 134.754 88.6622C143.663 97.6198 145.308 102.743 151.918 113.796C155.567 119.896 158.511 123.092 163.53 126.953C163.747 127.12 163.658 127.464 163.388 127.504C161.733 127.756 157.311 127.9 152.784 123.557C152.784 123.557 153.035 131.545 160.383 139.526C160.565 139.724 160.42 140.044 160.151 140.034C159.317 140.002 157.813 139.731 156.186 138.416C155.834 138.132 155.477 137.798 155.119 137.408C155.119 137.408 156.613 146.998 154.768 152.499C154.701 152.695 154.429 152.708 154.342 152.52C153.939 151.636 152.989 149.814 151.483 148.421" stroke="black" stroke-width="0.695398" stroke-linecap="round" stroke-linejoin="round"/>
<path d="M152.238 149.31C152.238 149.31 152.221 152.415 150.411 155.094C150.266 155.31 149.933 155.262 149.86 155.013C149.721 154.542 149.436 153.836 148.85 152.964" stroke="black" stroke-width="0.695398" stroke-linecap="round" stroke-linejoin="round"/>
<path d="M149.561 154.255C149.561 154.255 147.533 163.565 139.787 171.921C139.658 172.059 139.427 171.957 139.443 171.769C139.521 170.893 139.598 169.233 139.188 168.215" stroke="black" stroke-width="0.695398" stroke-linecap="round" stroke-linejoin="round"/>
<path d="M139.319 168.679C139.319 168.679 138.499 171.293 136.103 173.107C136.017 173.172 135.893 173.111 135.892 173.003C135.889 172.58 135.836 171.712 135.502 170.921" stroke="black" stroke-width="0.695398" stroke-linecap="round" stroke-linejoin="round"/>
<path d="M43.291 174.132C43.291 174.132 57.2181 187.441 82.6531 189.38C108.088 191.318 122.814 182.716 135.479 170.847" stroke="black" stroke-width="0.695398" stroke-linecap="round" stroke-linejoin="round"/>
<path d="M39.7998 29.9111C39.7998 29.9111 50.4594 62.3532 51.4052 68.6109C52.3509 74.8686 49.5806 77.5294 41.7861 83.6819C30.5128 92.5813 27.4348 100.451 23.5267 108.003C19.9149 114.983 16.5527 116.056 13.9432 117.647C13.6964 117.797 13.7633 118.173 14.0467 118.225C15.3123 118.456 18 118.656 20.3244 116.885" stroke="black" stroke-width="0.695398" stroke-linecap="round" stroke-linejoin="round"/>
<path d="M19.5822 117.481C19.5822 117.481 14.2903 124.669 13.4141 135.082C13.3941 135.318 13.6844 135.448 13.8443 135.272C14.538 134.51 16.0522 133.225 18.9129 132.356" stroke="black" stroke-width="0.695398" stroke-linecap="round" stroke-linejoin="round"/>
<path d="M18.0157 132.999C18.0157 132.999 15.0515 136.337 13.7772 140.379C13.7051 140.609 13.958 140.806 14.1623 140.679C14.7838 140.293 15.8069 139.709 16.7448 139.407" stroke="black" stroke-width="0.695398" stroke-linecap="round" stroke-linejoin="round"/>
<path d="M16.3346 139.622C16.3346 139.622 12.2969 146.448 13.2914 154.458C13.3087 154.602 13.4878 154.657 13.5826 154.548C14.0441 154.016 15.1063 152.882 16.2233 152.314" stroke="black" stroke-width="0.695398" stroke-linecap="round" stroke-linejoin="round"/>
<path d="M16.0586 152.826C16.0586 152.826 15.3006 155.55 15.7474 158.531C15.797 158.86 16.1855 159.012 16.4402 158.797C16.9366 158.379 17.7545 157.792 18.8298 157.371" stroke="black" stroke-width="0.695398" stroke-linecap="round" stroke-linejoin="round"/>
<path d="M19.0781 157.399C19.0781 157.399 22.8533 167.037 33.6571 173.354C33.7814 173.427 33.9223 173.288 33.8519 173.163C33.4346 172.426 32.6879 170.808 32.2968 168.152" stroke="black" stroke-width="0.695398" stroke-linecap="round" stroke-linejoin="round"/>
<path d="M32.6016 168.428C32.6016 168.428 35.5648 173.776 43.694 177.511C43.8166 177.568 43.9435 177.441 43.8853 177.319C43.5775 176.673 43.0056 175.225 43.0482 173.471" stroke="black" stroke-width="0.695398" stroke-linecap="round" stroke-linejoin="round"/>
<path d="M79.6689 131.311C79.6689 131.311 80.4878 126.443 82.9495 126.369C85.4112 126.295 86.6177 128.163 87.0602 130.812" stroke="black" stroke-width="0.695398" stroke-linecap="round" stroke-linejoin="round"/>
<path d="M85.5094 143.172C86.8454 143.172 88.9811 143.5 90.2902 143.232C92.047 142.874 94.4339 142.066 96.6427 139.831C101.06 135.362 103.879 135.049 105.749 135.776C107.354 136.399 111.41 139.774 107.892 150.277C104.373 160.78 100.529 160.368 96.0924 160.258C91.6558 160.146 83.5196 156.701 79.6689 152.863C77.481 150.683 76.4953 146.372 79.6689 144.336C81.7681 142.988 83.1407 143.172 85.5094 143.172Z" stroke="black" stroke-width="0.695398" stroke-linecap="round" stroke-linejoin="round"/>
<path d="M86.2812 143.68L87.3287 148.99C87.4052 149.378 87.7746 149.636 88.1658 149.575L92.0939 148.956C92.5016 148.892 92.7771 148.505 92.7041 148.099L91.8218 143.172" stroke="black" stroke-width="0.695398" stroke-linecap="round" stroke-linejoin="round"/>
<path d="M94.8242 141.692L97.4546 145.993C97.7284 146.44 98.3169 146.574 98.7558 146.289L101.653 144.364C102.062 144.099 102.196 143.564 101.962 143.136L99.2052 138.1" stroke="black" stroke-width="0.695398" stroke-linecap="round" stroke-linejoin="round"/>
<path d="M78.9778 127.725C78.9778 127.725 61.4825 122.949 48.3125 136.804" stroke="black" stroke-width="0.695398" stroke-linecap="round" stroke-linejoin="round"/>
<path d="M58.0896 89.0342C58.0896 89.0342 55.7852 85.5686 51.6606 89.541C48.6739 92.4174 46.7789 96.8696 45.0752 102.75" stroke="black" stroke-width="0.695398" stroke-linecap="round" stroke-linejoin="round"/>
<path d="M77.965 127.414C77.965 127.414 80.8317 94.4289 62.0282 97.8789C43.2246 101.329 51.0583 132.391 51.6433 133.747" stroke="black" stroke-width="0.695398" stroke-linecap="round" stroke-linejoin="round"/>
<path d="M77.9973 127.093C77.9973 127.093 79.9496 99.5295 66.671 101.266C53.0864 103.043 58.2697 128.449 58.6852 129.636C58.6852 129.636 65.5505 125.531 77.9973 127.093Z" fill="black"/>
<path d="M57.8129 113.244C58.8273 111.841 63.8263 110.795 63.8263 110.795C60.4971 106.995 58.9081 107.874 58.9081 107.874C58.9081 107.874 57.6242 111.765 57.8129 113.244Z" fill="white"/>
<path d="M77.9104 127.093C77.9104 127.093 79.8627 99.5295 66.5841 101.266C52.9995 103.043 58.1828 128.449 58.5983 129.636C58.5983 129.636 65.4636 125.531 77.9104 127.093Z" stroke="black" stroke-width="0.695398" stroke-linecap="round" stroke-linejoin="round"/>
<path d="M88.1768 127.725C88.1768 127.725 105.672 122.949 118.842 136.804" stroke="black" stroke-width="0.695398" stroke-linecap="round" stroke-linejoin="round"/>
<path d="M109.064 89.0342C109.064 89.0342 111.369 85.5686 115.493 89.541C118.48 92.4174 120.375 96.8696 122.079 102.75" stroke="black" stroke-width="0.695398" stroke-linecap="round" stroke-linejoin="round"/>
<path d="M89.1888 127.414C89.1888 127.414 86.322 94.4289 105.126 97.8789C123.929 101.329 116.095 132.391 115.51 133.747" stroke="black" stroke-width="0.695398" stroke-linecap="round" stroke-linejoin="round"/>
<path d="M89.1565 127.093C89.1565 127.093 87.2041 99.5295 100.483 101.266C114.067 103.043 108.884 128.449 108.469 129.636C108.469 129.636 101.603 125.531 89.1565 127.093Z" fill="black"/>
<path d="M90.2123 113.244C91.2267 111.841 96.2257 110.795 96.2257 110.795C92.8965 106.995 91.3075 107.874 91.3075 107.874C91.3075 107.874 90.0237 111.765 90.2123 113.244Z" fill="white"/>
<path d="M89.2434 127.093C89.2434 127.093 87.2911 99.5295 100.57 101.266C114.154 103.043 108.971 128.449 108.555 129.636C108.555 129.636 101.69 125.531 89.2434 127.093Z" stroke="black" stroke-width="0.695398" stroke-linecap="round" stroke-linejoin="round"/>
</g>
<defs>
<clipPath id="clip0_4872_10258">
<rect width="164" height="189.088" fill="white" transform="translate(0 0.912109)"/>
</clipPath>
</defs>
</svg>
