<svg width="1705" height="2394" viewBox="0 0 1705 2394" fill="none" xmlns="http://www.w3.org/2000/svg">
<g clip-path="url(#clip0_3648_2577)">
<path d="M1700.93 1394.03C1701.87 1395.37 1702.26 1397.13 1701.68 1399.2C1698.12 1411.76 1694.52 1426.15 1686.67 1436.83C1680.11 1445.74 1669.81 1449.94 1662.03 1457.37C1660.48 1495.6 1676.04 1532.18 1674.22 1570.45C1674.2 1570.84 1674.14 1571.21 1674.07 1571.56C1673.09 1588.57 1664.05 1602.77 1654.68 1616.46C1645.86 1629.34 1636.27 1642.04 1622.36 1649.75C1621.59 1650.17 1620.83 1650.42 1620.1 1650.54C1610.5 1657.13 1599.51 1661.83 1588.04 1663.88C1582.08 1664.95 1576.43 1665.43 1570.84 1662.68C1565.49 1660.06 1560.53 1656.38 1555.52 1653.11C1554.69 1653.47 1553.69 1653.63 1552.53 1653.52C1543.69 1652.65 1534.97 1653 1526.29 1654.86C1519.27 1656.36 1511.7 1658.19 1505.07 1654.36C1501.91 1652.53 1500.15 1649.7 1497.6 1647.26C1495.18 1644.95 1492.37 1644.26 1489.12 1643.92C1481.43 1643.11 1473.85 1643.08 1466.21 1641.66C1457.96 1640.13 1449.88 1637.83 1441.82 1635.5C1434.49 1633.37 1427.12 1631.05 1421 1626.33C1410.38 1618.14 1407.42 1604.45 1398.1 1595.28C1397.22 1594.41 1396.68 1593.47 1396.4 1592.52C1384.4 1581.76 1387.37 1562.94 1391.24 1549.08C1393.88 1539.64 1397.16 1530.42 1398.44 1520.65C1399.66 1511.4 1400.42 1502.3 1403.72 1493.48C1409.87 1477.05 1420.82 1462.99 1432.99 1450.55C1443.27 1440.06 1454.85 1430.79 1468.21 1424.82C1461.74 1414.86 1459.34 1401.82 1459.16 1390.36C1458.93 1374.56 1462.95 1357.98 1470.93 1344.29C1478.53 1331.25 1490.86 1320.43 1505.88 1317.19C1514.6 1315.31 1523.77 1315.11 1532.62 1314.35C1542.54 1313.51 1552.45 1312.66 1562.36 1311.81C1564.77 1311.6 1566.47 1312.54 1567.48 1314C1579.95 1314.63 1592.01 1318.44 1604.46 1319.92C1617.56 1321.47 1630.53 1320.46 1642.92 1325.12C1644.13 1324.94 1645.43 1325.1 1646.77 1325.74C1673.65 1338.47 1703.52 1360.89 1700.93 1394.03ZM1687.7 1396.51C1691.31 1367.71 1665.97 1349.63 1643.04 1338.33C1641.95 1338.42 1640.78 1338.24 1639.6 1337.68C1627.71 1332.16 1613.49 1334.22 1600.81 1332.45C1586.9 1330.5 1573.4 1325.95 1559.21 1327.09C1557.14 1327.25 1555.59 1326.57 1554.55 1325.45C1541.36 1326.52 1528.16 1327.48 1515.01 1328.88C1501.9 1330.28 1491.11 1337.01 1483.88 1348.06C1476.75 1358.93 1472.9 1372.27 1472.26 1385.21C1471.91 1392.05 1472.43 1398.88 1474.18 1405.52C1475.7 1411.26 1478.08 1418.86 1483.01 1422.64C1485.78 1424.76 1487.33 1428.21 1485.34 1431.53C1484.04 1433.71 1480.97 1435.25 1478.35 1434.72C1464.28 1439.69 1452.55 1449.17 1442.19 1459.75C1431.66 1470.49 1421.63 1482.7 1416.26 1496.93C1413.35 1504.63 1412.44 1512.55 1411.44 1520.65C1410.4 1529.18 1408.32 1537.31 1405.85 1545.52C1402.43 1556.88 1395.33 1575.44 1406.94 1584.46C1407.94 1585.24 1408.51 1586.37 1408.73 1587.61C1416.47 1596.3 1419.68 1608.89 1428.85 1616.1C1434.47 1620.52 1442.14 1622.07 1448.86 1623.99C1456.33 1626.11 1463.83 1628.15 1471.49 1629.45C1478.4 1630.62 1485.39 1630.32 1492.31 1631.3C1499.33 1632.28 1504.22 1635.23 1508.87 1640.48C1511.5 1643.45 1513.3 1644.06 1517.34 1643.48C1521.04 1642.95 1524.66 1641.85 1528.36 1641.27C1536.4 1640 1544.43 1639.72 1552.53 1640.52C1553.34 1640.6 1554.07 1640.8 1554.73 1641.09C1556.47 1639.96 1558.74 1639.73 1561.07 1641.22C1565.65 1644.16 1570.18 1647.22 1574.84 1650.03C1579.13 1652.61 1583.21 1651.73 1587.9 1650.68C1597.65 1648.48 1606.55 1644.3 1614.68 1638.52C1615.76 1637.75 1616.82 1637.39 1617.82 1637.33C1628.67 1630.64 1636.32 1620.32 1643.46 1609.9C1651.41 1598.28 1660.34 1585.81 1661.1 1571.27C1661.12 1570.92 1661.16 1570.59 1661.22 1570.27C1662.99 1531.99 1647.39 1495.36 1649.04 1457.06C1649.06 1456.47 1649.16 1455.93 1649.3 1455.43C1649 1453.66 1649.43 1451.75 1650.97 1450.07C1658.11 1442.27 1668.77 1438.46 1675.41 1430.26C1682.19 1421.88 1685.3 1409.77 1688.18 1399.21C1687.77 1398.38 1687.58 1397.47 1687.7 1396.51Z" fill="white"/>
<path d="M1643.04 1338.33C1665.97 1349.63 1691.31 1367.71 1687.7 1396.51C1687.58 1397.47 1687.77 1398.38 1688.18 1399.21C1685.3 1409.77 1682.19 1421.88 1675.41 1430.26C1668.77 1438.46 1658.11 1442.27 1650.97 1450.07C1649.43 1451.75 1649 1453.66 1649.3 1455.43C1649.16 1455.93 1649.06 1456.47 1649.04 1457.06C1647.39 1495.36 1662.99 1531.99 1661.22 1570.27C1661.16 1570.59 1661.12 1570.92 1661.1 1571.27C1660.34 1585.81 1651.41 1598.28 1643.46 1609.9C1636.32 1620.32 1628.67 1630.64 1617.82 1637.33C1616.82 1637.39 1615.76 1637.75 1614.68 1638.52C1606.55 1644.3 1597.65 1648.48 1587.9 1650.68C1583.21 1651.73 1579.13 1652.61 1574.84 1650.03C1570.18 1647.22 1565.65 1644.16 1561.07 1641.22C1558.74 1639.73 1556.47 1639.96 1554.73 1641.09C1554.07 1640.8 1553.34 1640.6 1552.53 1640.52C1544.43 1639.72 1536.4 1640 1528.36 1641.27C1524.66 1641.85 1521.04 1642.95 1517.34 1643.48C1513.3 1644.06 1511.5 1643.45 1508.87 1640.48C1504.22 1635.23 1499.33 1632.28 1492.31 1631.3C1485.39 1630.32 1478.4 1630.62 1471.49 1629.45C1463.83 1628.15 1456.33 1626.11 1448.86 1623.99C1442.14 1622.07 1434.47 1620.52 1428.85 1616.1C1419.68 1608.89 1416.47 1596.3 1408.73 1587.61C1408.51 1586.37 1407.94 1585.24 1406.94 1584.46C1395.33 1575.44 1402.43 1556.88 1405.85 1545.52C1408.32 1537.31 1410.4 1529.18 1411.44 1520.65C1412.44 1512.55 1413.35 1504.63 1416.26 1496.93C1421.63 1482.7 1431.66 1470.49 1442.19 1459.75C1452.55 1449.17 1464.28 1439.69 1478.35 1434.72C1480.97 1435.25 1484.04 1433.71 1485.34 1431.53C1487.33 1428.21 1485.78 1424.76 1483.01 1422.64C1478.08 1418.86 1475.7 1411.26 1474.18 1405.52C1472.43 1398.88 1471.91 1392.05 1472.26 1385.21C1472.9 1372.27 1476.75 1358.93 1483.88 1348.06C1491.11 1337.01 1501.9 1330.28 1515.01 1328.88C1528.16 1327.48 1541.36 1326.52 1554.55 1325.45C1555.59 1326.57 1557.14 1327.25 1559.21 1327.09C1573.4 1325.95 1586.9 1330.5 1600.81 1332.45C1613.49 1334.22 1627.71 1332.16 1639.6 1337.68C1640.78 1338.24 1641.95 1338.42 1643.04 1338.33Z" fill="white"/>
<path d="M435.88 271.5C446.01 283.06 460.19 299.16 451.32 315.07C443.61 328.89 427.79 336.79 414.13 343.35C412.86 343.96 411.62 344.13 410.47 344.01C410.28 344.04 410.08 344.08 409.89 344.1C394 346.23 382.26 360.04 369.3 368.13C356.78 375.96 341.71 379.78 330.69 389.93C329.91 390.65 329.08 391.13 328.23 391.41C309.27 413.16 294.73 438.43 285.34 465.68C290.8 466.95 296.04 468.89 301.24 471.05C306.71 473.32 312.37 475.42 317.13 479.01C325.85 485.57 331.58 495.92 335.54 506.03C336.59 507.06 337.21 508.58 337.01 510.59C335.22 528.92 340.14 547.01 334.15 564.97C328.84 580.86 318.43 594.46 306.12 605.63C292.65 617.86 277.18 627.92 261.99 637.84C253.82 643.17 245.57 648.38 237.3 653.54C230.07 658.05 222.84 663.01 214.34 664.69H214.33C223.02 674.81 229.49 686.83 231.4 700.18C233.87 717.57 228.13 731.94 217.7 745.54C216.9 746.59 215.91 747.46 214.81 748.03C208.04 756.35 199.04 763.16 188.58 765.98C176.49 769.25 163.04 766.43 150.79 765.37C150.48 765.34 150.18 765.29 149.89 765.23C148.95 765.99 147.76 766.52 146.31 766.66C138.18 767.49 130.88 764.2 123.4 761.53C115.75 758.81 107.95 756.49 100.2 754.05C87.9601 750.19 75.6901 745.75 63.1801 742.57C61.3701 744.85 58.2101 746.17 54.8801 744.56C41.6201 738.16 29.4501 729.17 20.3301 717.54C4.35012 697.17 -1.04988 668.32 11.8301 644.92C24.9401 621.12 51.8901 613.71 77.0701 609.65C70.8801 598.79 65.4401 587.43 62.8701 575.2C59.4601 559.02 61.3801 542.74 67.7401 527.6C65.6701 520.43 62.0201 513.84 60.9201 506.31C59.6501 497.65 59.6401 488.62 60.7601 479.95C62.9501 463.11 71.6801 448.79 80.7901 434.83C81.0901 434.36 81.4301 433.96 81.7901 433.61C81.8601 433.48 81.9301 433.36 82.0201 433.23C93.6201 416.67 109.37 404.34 128.18 396.94C129.66 396.35 130.98 396.34 132.1 396.71C141.21 395.8 150.34 395.16 159.49 394.87C168.33 394.6 177.31 394.17 185.86 396.84C194.08 399.4 202.76 401.75 210.67 405.16C216.64 407.73 222.09 411.17 227.4 414.84C230.48 403.04 236.33 391.82 241.7 381C247.45 369.4 253.79 358.05 261.26 347.46C268.91 336.62 277.61 326.51 287.81 317.97C297.88 309.53 308.95 302.46 320.12 295.58C320.57 294.33 321.5 293.18 323.04 292.36C332.74 287.2 342.61 282.4 352.55 277.76C361.79 273.44 371.07 268.57 380.77 265.36C390.08 262.29 400.99 261.06 410.77 261.36C418.74 261.61 426.85 263.87 432.58 269.49C433.73 269.71 434.86 270.34 435.88 271.5ZM441.41 304.92C441.78 301.82 439.85 299.11 438.32 296.56C435.43 291.75 432.15 287.24 428.57 282.94C427.43 282.7 426.31 282.03 425.33 280.8C419.97 274.09 411.77 274 403.84 274.56C395.24 275.17 387.05 276.5 379.06 279.84C363.16 286.49 347.48 294.16 332.22 302.21C331.73 303.25 330.92 304.21 329.7 304.96C318.22 311.99 306.58 319.01 296.3 327.75C286.82 335.79 278.58 345.19 271.52 355.4C264.47 365.6 258.43 376.46 252.92 387.56C247.13 399.24 240.88 411.25 238.63 424.21C238.04 427.62 235.55 429.01 232.93 428.89C231.13 430.74 228.41 431.43 225.64 429.45C219.06 424.75 212.38 419.84 204.87 416.74C197.71 413.78 189.81 411.69 182.4 409.38C174.13 406.8 165.1 407.64 156.55 407.98C148.06 408.3 139.59 408.94 131.14 409.8C131.02 409.82 130.91 409.82 130.79 409.82C115.73 415.95 102.57 426.48 93.2501 439.79C92.9501 440.21 92.6301 440.58 92.2901 440.91C92.2001 441.07 92.1201 441.23 92.0101 441.39C83.9201 453.8 75.4601 466.65 73.5601 481.68C72.5901 489.36 72.4301 497.94 73.8901 505.57C75.3501 513.18 79.5601 519.86 81.0801 527.44C81.6001 530 80.7301 532.1 79.2301 533.53C73.6701 546.64 72.6601 561.35 76.2001 575.14C79.8601 589.39 87.5301 602.16 95.1301 614.61C99.4101 621.62 88.7501 628.01 84.2101 621.61C55.9601 625.88 22.1401 634.2 17.9601 667.49C14.7201 693.38 30.8801 714.73 51.6201 727.87C52.6901 727.46 53.9201 727.31 55.2801 727.55C71.1401 730.37 86.5001 736.1 101.83 740.93C109.31 743.29 116.83 745.55 124.25 748.09C131.41 750.53 138.56 754.45 146.31 753.66H146.45C147.48 752.73 148.92 752.21 150.79 752.37C156.48 752.86 162.17 753.36 167.86 753.85C173.07 754.3 178.48 754.96 183.64 753.82C193.11 751.71 200.55 745.35 206.4 737.87C207.12 736.95 207.92 736.35 208.74 736C212.16 731.45 215.39 726.71 217.13 721.26C219.12 715.04 219.57 708.37 218.6 701.91C216.66 689.04 209.45 677.85 200.42 668.76C195.58 663.89 200.88 656.84 206.2 657.73C206.2 655.19 207.6 652.8 210.88 652.15C218.87 650.57 225.6 645.52 232.39 641.28C240.11 636.46 247.8 631.59 255.43 626.61C269.22 617.61 283.27 608.55 295.63 597.61C306.78 587.73 316.83 575.84 321.61 561.51C327.05 545.21 322.57 528.53 323.9 511.85C320.79 503.37 315.75 493.26 307.85 488.35C299.41 483.11 288.71 479.37 278.95 477.59C274.53 479.14 268.51 475.75 270.27 469.97C280.24 437.23 297.1 407.13 319.7 381.44C320.72 380.29 321.86 379.66 323 379.43C335.22 368.97 350.84 364.7 364.19 355.98C379.15 346.21 391.15 333.73 409.6 331.15C419.63 326.32 430.01 321.06 437.29 312.46C439.08 310.34 441.07 307.76 441.41 304.92Z" fill="white"/>
<path d="M438.32 296.56C439.85 299.11 441.78 301.82 441.41 304.92C441.07 307.76 439.08 310.34 437.29 312.46C430.01 321.06 419.63 326.32 409.6 331.15C391.15 333.73 379.15 346.21 364.19 355.98C350.84 364.7 335.22 368.97 323 379.43C321.86 379.66 320.72 380.29 319.7 381.44C297.1 407.13 280.24 437.23 270.27 469.97C268.51 475.75 274.53 479.14 278.95 477.59C288.71 479.37 299.41 483.11 307.85 488.35C315.75 493.26 320.79 503.37 323.9 511.85C322.57 528.53 327.05 545.21 321.61 561.51C316.83 575.84 306.78 587.73 295.63 597.61C283.27 608.55 269.22 617.61 255.43 626.61C247.8 631.59 240.11 636.46 232.39 641.28C225.6 645.52 218.87 650.57 210.88 652.15C207.6 652.8 206.2 655.19 206.2 657.73C200.88 656.84 195.58 663.89 200.42 668.76C209.45 677.85 216.66 689.04 218.6 701.91C219.57 708.37 219.12 715.04 217.13 721.26C215.39 726.71 212.16 731.45 208.74 736C207.92 736.35 207.12 736.95 206.4 737.87C200.55 745.35 193.11 751.71 183.64 753.82C178.48 754.96 173.07 754.3 167.86 753.85C162.17 753.36 156.48 752.86 150.79 752.37C148.92 752.21 147.48 752.73 146.45 753.66H146.31C138.56 754.45 131.41 750.53 124.25 748.09C116.83 745.55 109.31 743.29 101.83 740.93C86.5001 736.1 71.1401 730.37 55.2801 727.55C53.9201 727.31 52.6901 727.46 51.6201 727.87C30.8801 714.73 14.7201 693.38 17.9601 667.49C22.1401 634.2 55.9601 625.88 84.2101 621.61C88.7501 628.01 99.4101 621.61 95.1301 614.61C87.5301 602.16 79.8601 589.39 76.2001 575.14C72.6601 561.35 73.6701 546.64 79.2301 533.53C80.7301 532.1 81.6001 530 81.0801 527.44C79.5601 519.86 75.3501 513.18 73.8901 505.57C72.4301 497.94 72.5901 489.36 73.5601 481.68C75.4601 466.65 83.9201 453.8 92.0101 441.39C92.1201 441.23 92.2001 441.07 92.2901 440.91C92.6301 440.58 92.9501 440.21 93.2501 439.79C102.57 426.48 115.73 415.95 130.79 409.82C130.91 409.82 131.02 409.82 131.14 409.8C139.59 408.94 148.06 408.3 156.55 407.98C165.1 407.64 174.13 406.8 182.4 409.38C189.81 411.69 197.71 413.78 204.87 416.74C212.38 419.84 219.06 424.75 225.64 429.45C228.41 431.43 231.13 430.74 232.93 428.89C235.55 429.01 238.04 427.62 238.63 424.21C240.88 411.25 247.13 399.24 252.92 387.56C258.43 376.46 264.47 365.6 271.52 355.4C278.58 345.19 286.82 335.79 296.3 327.75C306.58 319.01 318.22 311.99 329.7 304.96C330.92 304.21 331.73 303.25 332.22 302.21C347.48 294.16 363.16 286.49 379.06 279.84C387.05 276.5 395.24 275.17 403.84 274.56C411.77 274 419.97 274.09 425.33 280.8C426.31 282.03 427.43 282.7 428.57 282.94C432.15 287.24 435.43 291.75 438.32 296.56Z" fill="white"/>
<path d="M1638.19 1249.07C1639.2 1250.1 1639.85 1251.56 1639.84 1253.44C1639.66 1276.37 1631.49 1298.27 1630.66 1321.1C1631.23 1322.3 1631.4 1323.74 1630.98 1325.38C1627.46 1338.92 1624.21 1352.53 1621.23 1366.19C1618.61 1378.17 1615.79 1390.14 1609.39 1400.74C1608.64 1402.56 1607.19 1404.08 1605.22 1404.38C1585.72 1407.39 1566.01 1403.51 1549.53 1392.47C1549.16 1392.22 1548.83 1391.95 1548.53 1391.66C1545.68 1390.63 1543.59 1387.91 1544.87 1384.19C1555.9 1352.19 1569.96 1319.46 1572.31 1285.36C1572.39 1284.19 1572.72 1283.19 1573.22 1282.35C1572.67 1281.43 1572.38 1280.37 1572.52 1279.25C1573.93 1267.74 1570.12 1255.03 1566.17 1244.28C1562.3 1233.77 1555.98 1224.31 1548.17 1216.32C1546.77 1214.88 1546.24 1213.27 1546.31 1211.72C1540.85 1202.02 1531.74 1195.64 1522.25 1190C1510.6 1183.08 1498.71 1176.55 1486.92 1169.88C1485.97 1169.84 1484.98 1169.58 1483.98 1169.02C1464.64 1158.28 1444.18 1150.06 1422.81 1144.38C1422.8 1144.38 1422.79 1144.39 1422.77 1144.39C1413.3 1144.59 1404.49 1141.47 1395.31 1139.69C1391.83 1139.01 1388.25 1138.72 1384.64 1138.61C1388.64 1145.36 1394.39 1151.28 1397.99 1158.2C1403.27 1168.33 1407.57 1178.09 1414.69 1187.15C1421.72 1196.09 1428.2 1205.03 1432.85 1215.47C1436.72 1224.15 1439.61 1233.14 1441.73 1242.37C1443.49 1243.35 1444.76 1245.15 1444.73 1247.79C1444.53 1262.02 1448.3 1275.8 1447.35 1289.93C1447.95 1291.88 1448.22 1293.94 1448 1296.13C1447.21 1304.2 1434.81 1304.44 1434.98 1296.71C1434.23 1295.45 1433.87 1293.9 1434.17 1292.13C1434.17 1292.06 1434.19 1291.98 1434.2 1291.9C1432.44 1287.9 1428.32 1284.05 1425.82 1281.26C1422.2 1277.23 1418.33 1273.42 1414.25 1269.87C1409.78 1265.98 1405.03 1262.47 1400.06 1259.28C1408.72 1275.15 1417.51 1290.99 1425.34 1307.24C1434.3 1325.83 1440.5 1346.01 1436.73 1366.61C1436.95 1367.32 1437.05 1368.11 1436.99 1369.01C1434.41 1405.55 1426.17 1441.42 1412.29 1475.31C1412.15 1476.24 1411.98 1477.17 1411.75 1478.1C1410.25 1484.39 1402.44 1483.75 1399.85 1479.39C1398.68 1477.82 1398.13 1475.81 1398.89 1473.99C1399.14 1473.38 1399.38 1472.77 1399.63 1472.16C1400.7 1462.59 1394.84 1453.83 1389.29 1446.41C1385.04 1440.74 1380.6 1435 1375.45 1430.04C1377.61 1442.89 1383.97 1455.12 1385.94 1468.03C1388.51 1484.91 1387.81 1502.2 1387.52 1519.21C1387.22 1536.58 1387.52 1554.53 1383.51 1571.54C1379.67 1587.84 1371.43 1602.71 1363.36 1617.22C1359.89 1623.44 1352 1619.81 1351.24 1613.94C1349.46 1600.17 1345.09 1586.95 1338.66 1574.78C1340.03 1605.3 1337.9 1636.3 1327.45 1665.13C1320.93 1683.11 1311.15 1699.71 1300.58 1715.58C1295.46 1723.28 1290.01 1730.75 1284.24 1737.98C1279.12 1744.38 1273.64 1750.7 1265.33 1752.69C1263.16 1753.22 1261.32 1752.7 1259.94 1751.63C1257 1750.65 1254.84 1747.91 1256.21 1744.14C1262.64 1726.43 1267.9 1707.56 1266.34 1688.68C1256.32 1701.69 1245.79 1714.31 1234.69 1726.43C1228.32 1733.38 1221.73 1740.51 1213.24 1744.87C1206.27 1748.45 1198.06 1750.28 1192.5 1756.1C1187.18 1761.67 1179.07 1754.56 1182.3 1748.22C1182.81 1747.21 1183.46 1746.12 1183.7 1744.99C1183.76 1744.71 1183.79 1744.53 1183.81 1744.41C1183.29 1744.47 1180.01 1745.56 1177.95 1746.2C1157.12 1762.37 1136.56 1778.87 1116.27 1795.71C1111.01 1800.08 1101.43 1794.23 1106.06 1787.83C1109.49 1783.09 1112.93 1778.34 1115.92 1773.3C1117.1 1771.31 1118.24 1769.26 1119.25 1767.17C1119.01 1767.32 1118.77 1767.48 1118.54 1767.64C1116.7 1768.89 1114.89 1769 1113.35 1768.43C1102.92 1772.2 1095.52 1781.6 1086.2 1787.35C1075.2 1794.13 1062.2 1796.33 1050.75 1802.14C1045.45 1804.83 1037.83 1798.96 1041.86 1793.25C1043.99 1790.22 1046.08 1787.17 1048.13 1784.08C1042.89 1787.8 1037.18 1790.82 1031.15 1793.12C1030.48 1795.17 1028.96 1796.96 1026.81 1797.25C1015.2 1798.82 1005.99 1807.25 995.25 1811.38C985.28 1815.21 974.51 1816.42 963.87 1817.23C962.39 1818.15 960.8 1818.3 959.34 1817.92C957.86 1818.06 956.41 1817.73 954.77 1816.76C948.94 1813.33 951.82 1805.09 958.05 1804.65C958.14 1804.64 958.23 1804.64 958.32 1804.63C965.98 1796.88 973.62 1789.03 980.23 1780.36C983.74 1775.75 986.95 1770.9 989.7 1765.8C990.58 1764.17 991.41 1762.52 992.18 1760.83C961.31 1783.02 934.98 1811.83 898.51 1825.14C895.47 1826.24 893.11 1825.06 891.79 1823.02C890.04 1821.15 889.18 1818.37 890.51 1815.45C891.82 1812.55 893.2 1809.52 894.28 1806.41L918.09 1785.87L778.6 1805.25C775.65 1806.9 772.51 1808.98 769.21 1811.42C764.62 1811.48 760.62 1811.45 757.38 1811.31C725.54 1809.91 706.94 1794.17 706.94 1794.17C706.94 1794.17 693.67 1775.65 691.66 1787.43C689.65 1799.21 697.53 1812.57 697.53 1812.57L666.69 1805.58L643.5 1785.61L640 1791.05L620.54 1788.64C618.25 1778.64 616.99 1772.41 616.99 1772.41L545.64 1766.76L547.08 1771.36L508.03 1752.85C500.32 1748.29 492.94 1742.94 485.07 1738.6C486.3 1741.21 487.6 1743.79 488.99 1746.31C492.22 1752.17 495.88 1757.81 500.01 1763.08C505.13 1769.63 497.35 1777.71 490.81 1772.28C485 1767.44 477.77 1764.66 470.94 1761.61C464.18 1758.59 457.59 1755.21 451.35 1751.23C439.53 1743.69 429.1 1734.23 421.34 1722.54C420.86 1722.23 420.39 1721.85 419.95 1721.35C414.85 1715.75 409.53 1710.37 404.04 1705.16C404.42 1710.98 405.82 1716.7 408.08 1722.23C410.33 1727.75 403 1732.12 398.53 1729.57C390.45 1724.96 382.37 1720.24 374.95 1714.65C372.9 1715.84 370.19 1716.12 368.03 1715.11C357.9 1710.4 348.12 1702.38 339.77 1695.01C332.85 1688.9 324.81 1681.22 324.17 1671.74C316.26 1661.11 305.6 1652.82 298.31 1641.66C290.28 1629.37 286.27 1614.19 281.25 1600.51C275.68 1585.31 270.1 1570.11 264.53 1554.9C260.17 1543 254.1 1530.49 252.39 1517.67C251.21 1520.09 250.91 1523.23 250.55 1525.6C249.78 1530.7 249.67 1535.93 249.84 1541.08C250.19 1552.14 252.18 1563.02 254.18 1573.88C255.68 1582.02 244.09 1585.44 241.64 1577.33C237.73 1564.37 228.6 1553.25 224.88 1540.48C223.02 1545.61 222.23 1551.12 222.53 1556.78C222.92 1564.07 211.09 1565.69 209.76 1558.5C203.91 1526.91 185.74 1498.35 189.28 1465.44C189.01 1464.73 188.85 1463.93 188.85 1463.02C188.9 1431.98 195.68 1401.56 208.5 1373.34C210.7 1357.26 220.2 1344.7 230.67 1332.7C235.98 1326.6 242.64 1320.17 246.01 1312.69C247.06 1310.36 247.96 1308.41 245.23 1307.55C242.92 1306.82 239.63 1307.94 236.83 1308.77C224.57 1319.55 212.29 1330.68 202.89 1344.08C197.44 1351.86 193.32 1360.41 188.45 1368.53C183.27 1377.17 178.26 1384.87 175.17 1394.56C174.84 1395.6 174.34 1396.45 173.72 1397.11C173.72 1397.49 173.71 1397.87 173.72 1398.26C173.79 1406.64 160.79 1406.62 160.72 1398.26C160.6 1384.44 161.71 1370.67 164 1357.05C166.2 1344.04 171.18 1331.05 170.4 1317.72C170.37 1317.24 170.39 1316.79 170.45 1316.37C170.31 1315 170.56 1313.54 171.15 1312.16C183.12 1283.97 189.51 1253.84 198.23 1224.58C202.55 1210.1 207.35 1195.6 214.62 1182.3C220.91 1170.8 229.88 1159.48 230.52 1145.89C230.59 1144.43 231.05 1143.23 231.76 1142.28C231.82 1141.34 232.11 1140.36 232.71 1139.36C233.72 1137.69 228.9 1138.24 227.99 1138.5C224.86 1139.42 222.43 1141.53 220.31 1143.92C216.66 1148.03 208.83 1144.85 209.22 1139.32C209.85 1130.29 213.7 1122.84 218.06 1115.43C197.89 1114.52 177.84 1112.13 157.85 1109.32C140.27 1106.86 121.8 1105.11 107.18 1094.42C93.5401 1092.77 80.7101 1082.51 70.0801 1074.41C59.0701 1066.02 48.9401 1056.68 39.7601 1046.35C36.9301 1046.68 34.0401 1045.34 33.2101 1041.75C31.5901 1034.68 27.6601 1028.82 24.1401 1022.59C20.6701 1016.46 17.5801 1010.14 14.8701 1003.63C9.4801 990.67 6.1001 977.11 5.3501 963.07C5.2601 962.73 5.1901 962.37 5.1501 962.01C1.9701 936.92 11.0901 912.34 9.1401 887.23C8.9701 885.04 9.7501 883.43 11.0001 882.39C10.9701 881.97 10.9701 881.53 11.0201 881.06C12.8501 864.79 15.8901 848.7 20.4701 832.97C24.7001 818.48 29.8601 803.9 37.9001 791.05C38.0001 790.33 38.2201 789.59 38.6001 788.85C58.1501 750.36 79.3901 713.07 104.12 677.65C104.78 676.71 105.56 676.04 106.41 675.57C107.72 673.52 110.09 672.33 113.12 673.46C121.28 676.49 128.83 680.91 136.35 685.26C143.57 689.44 149.83 694.5 154.66 701.36C157.55 705.44 154.71 709.39 150.93 710.49C146.35 722.84 138.81 733.43 130.9 743.92C122.17 755.51 114.08 767.35 107.63 780.38C100.89 793.98 96.3601 808.41 91.8601 822.86C86.9901 838.47 82.1101 854.09 77.2401 869.7C76.5701 871.88 75.1401 873.2 73.4701 873.82C74.4101 894.14 67.2501 913.39 65.3701 933.45C63.3501 955.06 71.4501 974.07 80.5301 993.19C80.9101 993.99 81.1101 994.77 81.1901 995.53C101.3 1031.12 144.24 1041.31 181.59 1048.01C183.07 1048.28 184.16 1048.9 184.93 1049.74C198.42 1050.66 212 1050.12 225.33 1047.7C237.21 1045.54 248.72 1041.81 260.65 1040.07C260.64 1039.62 260.66 1039.16 260.74 1038.68C262.92 1025.29 272.39 1015.2 280.86 1005.25C290.36 994.08 300.3 982.3 307.34 969.37C308.99 966.34 310.38 963.18 311.14 959.81C311.5 958.22 311.34 956.43 311.74 954.9C311.6 954.36 311.52 953.96 311.51 953.68C311.39 953.67 311.27 953.66 311.16 953.65C308.16 954.88 305.55 955.53 302.71 957.39C299.89 959.23 297.15 961.26 294.49 963.32C287.38 968.83 280.61 975.17 276.07 982.89C274.5 985.96 273.08 989.09 271.95 992.34C269.22 1000.17 257.07 997 259.41 988.89C260.96 983.53 263.32 978.67 266.24 974.19C270.92 965.85 276.37 957.9 280.68 949.34C287.92 934.97 293.11 919.69 298.33 904.51C298.43 904.22 298.54 903.95 298.67 903.69C298.83 902.99 299.12 902.28 299.59 901.56C311.09 883.95 322.46 866.25 334.11 848.74C339.44 840.73 345.33 833.29 351.57 825.97C354.78 822.2 357.93 818.35 360.48 814.15C353.88 816.91 348.31 822.6 342.98 827.34C334.37 835.02 325.95 842.89 318.48 851.71C313.07 858.11 303.92 848.87 309.29 842.52C310.97 840.54 312.7 838.61 314.47 836.72C319.2 804.6 344.39 781.37 360.24 754.37C368.68 739.97 376.88 725.6 386.79 712.13C396.58 698.82 407.2 686.15 417.84 673.51C418.19 673.09 418.56 672.74 418.93 672.46C419.08 672.26 419.24 672.07 419.42 671.88C442.01 647.87 466.47 625.8 492.47 605.56C492.83 605.02 493.3 604.51 493.91 604.02C497.74 601.01 501.33 597.66 504.37 593.84C504.68 593.45 505.03 592.87 505.4 592.22C499.48 592.56 495.28 586.28 499.75 581.31C511.74 567.98 525.71 556.61 539.23 544.9C549.6 535.9 559.9 525.25 572.42 519.16C572.77 497.77 573.6 476.4 574.98 455.06C575 454.62 575.08 454.2 575.17 453.81C575.87 437.45 578.51 421.28 581.13 405.15C583.87 388.32 586.61 371.49 589.35 354.66C589.57 353.31 590.09 352.28 590.8 351.53C593.95 326.55 597.45 301.48 606.3 277.78C606.93 276.12 607.99 274.97 609.24 274.27C609.24 273.89 609.27 273.52 609.33 273.12C610.89 263.68 613.63 254.68 617.4 245.89C619.35 241.35 621.5 236.9 622.89 232.14C624.1 228 624.72 223.72 625.89 219.57C628.36 210.77 633 202.59 637.01 194.43C641.53 185.26 646.05 176.08 650.57 166.9C651.52 164.97 652.98 163.97 654.55 163.68C654.6 163.51 654.66 163.33 654.73 163.14C662.83 142.92 676.87 126.61 691.17 110.5C698.54 102.2 705.69 93.5101 714.18 86.3201C718.03 83.0501 722.11 80.1401 726.46 77.5901C728.59 76.3501 730.91 75.1801 732.8 73.5601C733.13 73.2901 733.4 73.0001 733.67 72.7201C732.17 72.8301 730.69 72.9901 729.38 73.0401C725.53 73.1901 721.69 73.3801 717.85 73.5501L694.54 74.5901C691.41 74.7301 689.46 73.0101 688.67 70.7801C681.14 70.4601 681.46 58.3001 689.49 57.7701C718.62 55.8301 747.02 47.7301 772.83 34.1901C772.91 33.4801 773.12 32.7901 773.43 32.1301C774.15 29.7201 776.14 27.7501 779.39 27.7501C779.67 27.7501 779.94 27.7701 780.21 27.8001C780.64 27.5601 781.13 27.3601 781.67 27.2001C800.93 21.6801 817.94 10.3601 837.56 5.84014C854.46 1.95014 872.12 1.85014 889.07 5.49014C897.88 7.38014 906.03 10.7701 914.45 13.8701C918.67 15.4201 922.94 16.7501 927.39 17.4201C931.6 18.0601 935.69 18.4401 939.68 20.0301C954.82 26.0701 968.95 37.1301 980.52 48.4401C986.12 53.9201 992.29 60.0101 995.98 67.0101C999.24 73.2101 1000.01 80.0101 1000.05 86.8601C1010.65 84.9201 1020.64 76.3001 1029.16 70.7001C1039.78 63.7201 1049.87 54.8501 1061.37 49.3601C1072.88 43.8801 1086.21 41.1901 1098.77 39.4201C1106.86 38.2901 1115.04 37.9101 1123.05 38.9901C1123.84 36.7701 1125.79 35.0701 1128.91 35.2401C1145.06 36.1601 1160.91 39.6701 1175.88 45.8201C1202.5 56.7501 1225.56 74.7901 1242.89 97.7301C1252.73 110.76 1259.67 125.37 1266.37 140.18C1273.96 157.01 1281.56 173.83 1289.15 190.66C1289.56 191.56 1289.75 192.45 1289.78 193.3C1289.91 193.77 1290.01 194.25 1290.07 194.75C1292.02 211.31 1305.52 224.21 1313.48 238.09C1314.55 239.95 1314.6 241.76 1314.03 243.3C1312.92 246.9 1308.86 249.84 1304.51 247.56C1296.1 243.17 1288.62 237.02 1280.97 231.46C1275.57 227.53 1270.18 223.61 1264.78 219.68C1264.79 228.43 1265.3 237.14 1267.28 245.75C1269.77 256.53 1273.22 267.14 1273.3 278.24C1276.92 283.32 1270.82 289.98 1265.42 287.85C1263.11 287.56 1261.02 286.18 1260.4 283.69C1249.48 273.13 1238.7 262.23 1230.09 249.74C1225.78 258.74 1220.66 267.29 1215.39 275.84C1208.21 287.5 1201.56 299.4 1195.53 311.71C1185.69 331.76 1175.95 352.08 1167.57 372.85C1168.56 373.89 1169.15 375.36 1169.02 377.27C1168.34 387.37 1164.97 396.47 1160.96 405.66C1156.85 415.06 1153.13 424.3 1150.66 434.29C1145.78 453.94 1141.78 473.84 1137.5 493.63C1152.75 500.79 1165.57 512.29 1178.42 523.07C1195.24 537.18 1211.76 551.63 1228 566.39C1229.96 568.17 1230.38 570.3 1229.84 572.21C1229.77 576.04 1226.59 579.98 1221.77 578.75C1217.42 577.63 1213.04 576.74 1208.6 576.17C1211.59 577.22 1214.56 578.31 1217.48 579.57C1225.92 583.22 1233.35 588.44 1238.35 596.3C1241.27 600.9 1236.35 607.78 1231.01 605.85C1223.12 602.99 1215.05 600.01 1206.76 598.42C1216.33 603.18 1225.3 608.96 1233.6 615.71C1233.97 615.86 1234.35 616.04 1234.73 616.28C1244.64 622.45 1253.07 631.18 1261.02 639.65C1268.83 647.96 1276.08 656.78 1282.81 665.97C1294.47 681.89 1304.19 699.03 1312.15 717.03C1313.95 718.01 1315.34 719.8 1315.51 722.39C1315.58 723.55 1315.71 724.69 1315.87 725.82C1315.95 726.04 1316.04 726.25 1316.13 726.47C1316.61 727.67 1316.72 728.77 1316.55 729.73C1319.27 742.87 1326.22 755.06 1329.04 768.21C1330.66 775.76 1321.45 779 1317.16 773.22C1314.62 769.81 1311.52 767.05 1308.03 764.92C1326.15 792.05 1338.39 822.97 1343.65 855.2C1344.62 861.14 1337.64 866.64 1332.78 861.53C1328.8 857.33 1324.61 853.35 1320.23 849.59C1329.77 861.27 1337.58 874.4 1343.33 888.55C1345.6 894.13 1338.26 898.34 1333.78 895.89C1333.17 895.56 1332.57 895.24 1331.96 894.91C1334.07 897.46 1336.09 900.09 1338.07 902.77C1345.03 912.19 1351.85 921.74 1358.32 931.51C1371.51 951.42 1382.95 972.9 1387.57 996.53C1388.87 1003.13 1381.76 1007.02 1376.71 1002.86C1373.16 999.92 1369.53 997.1 1365.85 994.35C1378.32 1014.81 1390.2 1035.62 1401.45 1056.78C1404.81 1063.1 1396.31 1070.34 1391.24 1064.66C1387.5 1060.47 1383.77 1056.27 1380.02 1052.08C1378.45 1050.32 1376.97 1048.26 1374.79 1047.25C1372.73 1046.29 1370.17 1046.07 1367.96 1045.62C1362.63 1044.54 1357.31 1043.47 1351.98 1042.39C1362.37 1052.51 1371.66 1063.71 1379.8 1075.81C1380.26 1076.49 1380.56 1077.18 1380.74 1077.84C1413.4 1080.65 1445.62 1087.16 1476.76 1097.47C1477.23 1097.63 1477.65 1097.82 1478.04 1098.04C1491.34 1097.48 1503.9 1102.87 1515.32 1109.34C1529.01 1117.09 1542.28 1125.66 1555.7 1133.86C1556.59 1134.4 1557.26 1135.05 1557.75 1135.76C1568.97 1140.07 1577.7 1148.47 1586.35 1156.69C1596.17 1166.02 1605.63 1175.77 1612.77 1187.36C1613.39 1188.37 1613.7 1189.37 1613.76 1190.32C1615.94 1195.26 1619.17 1199.79 1621.7 1204.55C1624.2 1209.26 1626.45 1214.09 1628.53 1219.01C1632.64 1228.75 1635.85 1238.77 1638.19 1249.07Z" fill="#FDF2CC"/>
<path d="M1146.96 1931.49C1148.49 1932.51 1149.56 1934.22 1149.56 1936.62C1149.55 1948.12 1147.75 1959.65 1143.82 1970.48C1140.04 1980.89 1135.45 1990.58 1132.96 2001.44C1130.41 2012.53 1126.72 2022.71 1122.8 2033.36C1119.11 2043.36 1117.13 2053.81 1115.33 2064.28C1115.49 2064.79 1115.6 2065.34 1115.64 2065.93C1117.93 2099.23 1114.39 2132.77 1105.3 2164.88C1106.09 2171.58 1102.77 2177.59 1099.83 2183.38C1097.11 2188.75 1094.32 2194.1 1091.16 2199.22C1084.44 2210.11 1076.09 2219.44 1065.25 2226.35C1044.13 2239.8 1016.99 2250.4 991.8 2244.21C990.9 2244.42 989.91 2244.45 988.83 2244.23C963.42 2239.03 941.12 2221.8 929.71 2198.51C929.24 2197.56 929.02 2196.62 928.98 2195.72C925.57 2172.7 924.28 2148.9 931.11 2126.34C936.9 2107.2 948.48 2089.37 965.91 2079.12C966.27 2078.45 966.78 2077.8 967.5 2077.2C978.54 2068.04 989.18 2058.36 999.12 2048.01C1008 2038.76 1016.35 2028.6 1021.26 2016.64C1021.27 2016.5 1021.27 2016.37 1021.29 2016.23C1022.47 2006.14 1023.69 1996.04 1024.84 1985.94C1025.1 1983.69 1025.22 1981.41 1025.48 1979.17C1025.77 1976.66 1024.79 1977.48 1022.07 1976.59C1017.32 1975.04 1012.57 1973.49 1007.83 1971.94C986.14 1975.3 965.4 1982.48 946.35 1993.46C944.94 1994.27 943.55 1994.5 942.29 1994.31C941.41 1996.38 939.51 1997.98 936.59 1997.98C930.29 1998 925.11 2002.1 920 2005.32C914.3 2008.91 908.47 2012.31 902.52 2015.47C890.92 2021.65 878.88 2026.96 866.56 2031.54C866.01 2031.86 865.37 2032.12 864.63 2032.28C853.29 2034.85 843.96 2041.77 833.79 2047.05C823.61 2052.34 812.77 2056.26 801.59 2058.81C800.48 2060.94 798.31 2062.63 795.88 2062.34C791.19 2061.76 787.21 2063.18 782.81 2064.65C778.24 2066.17 773.69 2067.29 768.92 2067.95C759.61 2069.22 750.27 2068.88 740.93 2068.37C740.32 2068.55 739.67 2068.62 739 2068.54C713.44 2065.3 694.32 2049.04 679.28 2029.34C669.12 2040.56 660.35 2052.81 652.92 2066.03C652.84 2066.97 652.53 2067.95 651.9 2068.94C634.72 2095.97 621.17 2124.49 608.23 2153.73C608.17 2153.86 608.1 2153.98 608.04 2154.1C606.88 2165.99 600.63 2175.79 594.6 2185.9C587.74 2197.41 581.61 2209.38 576.36 2221.71C577.27 2223.21 577.57 2225.09 577.31 2227C574.46 2247.51 566.27 2266.59 560.24 2286.26C560.29 2286.64 560.32 2287.03 560.3 2287.45C559.83 2300.99 557.2 2314.35 554.55 2327.6C552.16 2339.54 549.03 2351.39 542.69 2361.89C542.54 2362.23 542.37 2362.58 542.15 2362.92C538.54 2368.59 534.76 2374.2 529.39 2378.36C524.46 2382.18 518.68 2384.52 512.79 2386.47C500.04 2390.7 487.02 2393.6 474.3 2388.68C465.07 2388.34 457.76 2383.5 450.47 2378.25C442.27 2372.33 433.57 2367.33 424.28 2363.3C422.57 2362.55 421.58 2361.42 421.15 2360.14C414.03 2357.53 407.48 2353.76 400.48 2350.81C392.51 2347.45 383.99 2346.59 375.53 2345.17C367.19 2343.77 359.14 2341 350.8 2339.64C342.79 2338.34 334.68 2338.59 326.72 2337.03C326.39 2337.06 326.05 2337.08 325.68 2337.06C312.53 2336.47 299.54 2334.19 286.59 2331.95C274.75 2329.9 262.92 2327.76 251.24 2324.94C249.83 2326.69 247.58 2327.75 244.78 2327.11C236.86 2325.31 229.56 2321.58 222.27 2318.11C215.85 2315.05 209.45 2311.92 203.22 2308.48C190.92 2301.69 179.23 2293.55 169.79 2283.09C168.99 2282.78 168.21 2282.28 167.47 2281.54C149.55 2263.52 131.9 2244.95 121.79 2221.35C120.54 2220.31 119.76 2218.71 119.93 2216.51C122.15 2187.79 109.66 2154.07 132.42 2130.55C131.94 2128.65 132.26 2126.52 133.85 2124.64C147.39 2108.67 161.36 2092.6 179.39 2081.53C198 2070.09 218.43 2067.86 239.82 2067.21C239.94 2067.21 240.05 2067.22 240.16 2067.22C240.33 2067.21 240.51 2067.19 240.69 2067.19C250.08 2067.15 259.56 2067.59 268.72 2069.76C277.27 2071.79 284.87 2075.78 292.42 2080.14C308.53 2089.45 324.42 2098.95 339.13 2110.38C340.2 2111.21 340.84 2112.15 341.16 2113.11C368.33 2139.45 393.93 2167.34 417.82 2196.68C417.95 2196.84 418.07 2197 418.18 2197.16C438.25 2212.32 457.57 2234.29 483.78 2237.55C484.77 2237.67 485.72 2237.94 486.57 2238.35C487.64 2237.92 488.86 2237.76 490.22 2237.98C501.71 2239.87 509.71 2224.36 514.49 2216.35C517.74 2210.92 520.75 2205.32 523.36 2199.56C526.07 2193.6 526.54 2188.58 525.39 2182.16C524.86 2179.22 526.14 2176.88 528.07 2175.48C529.01 2165.46 535.04 2157.3 539.95 2148.8C545.3 2139.55 550.47 2130.21 555.45 2120.76C565.49 2101.75 574.76 2082.35 583.32 2062.63C584.96 2054.09 589.75 2046.52 594.07 2039.1C598.89 2030.82 603.92 2022.66 609.08 2014.59C617.63 2001.24 626.55 1988.14 635.53 1975.09C634.49 1974.63 633.54 1973.87 632.76 1972.74C631.35 1970.68 627.51 1969.76 625.46 1968.34C623 1966.64 621.06 1964.4 619.65 1961.77C616.55 1955.98 615.3 1949.07 615.18 1942.47C605.38 1930.59 598.45 1917.01 592.11 1903.02C585.3 1887.98 578.73 1872.98 574.4 1857.01C570.16 1841.37 566.75 1825.65 559.52 1811.04L547.08 1771.36L570.47 1782.44L620.54 1788.64C628.06 1821.37 646.71 1894.47 668.98 1922.02L672.15 1916.84C672.15 1916.84 730.81 1839.87 769.21 1811.42C809.7 1810.83 895.35 1802.93 895.35 1802.93C895.04 1804.1 894.68 1805.26 894.28 1806.41L839.97 1853.26C819.46 1873.73 798.95 1894.19 778.45 1914.66C778.1 1915 777.75 1915.29 777.39 1915.53C777.04 1916.13 776.56 1916.72 775.92 1917.26C752.5 1937.01 731.25 1959.24 712.76 1983.65C724.68 1991.04 732.82 2003.55 746.29 2008.81C760.57 2014.4 776.85 2013.52 790.26 2006.05C792.78 2004.65 795.21 2005.06 797.02 2006.37C806.17 2005.2 814.53 2000.86 822.42 1996.32C830.85 1991.48 839.13 1986.45 847.79 1982.01C865.35 1973.02 883.75 1965.69 902.64 1960.03C903.68 1958.69 905.23 1957.7 907.31 1957.5C923.69 1955.85 938.54 1946.88 952.95 1939.61C968.32 1931.85 983.69 1924.08 999.06 1916.32C1000.1 1915.07 1001.63 1914.17 1003.66 1914.01C1012.51 1913.34 1020.47 1907.85 1027.45 1902.78C1034.51 1897.64 1041.02 1891.79 1047.88 1886.38C1061.51 1875.62 1076.84 1866.01 1094.78 1865.71C1127.89 1865.16 1149.5 1901.06 1146.96 1931.49Z" fill="#FDF2CC"/>
<path d="M918.09 1785.87L894.28 1806.41C894.68 1805.26 895.04 1804.1 895.35 1802.93C895.35 1802.93 809.7 1810.83 769.21 1811.42C772.51 1808.98 775.65 1806.9 778.6 1805.25L918.09 1785.87Z" fill="#FDF2CC"/>
<path d="M620.54 1788.64L570.47 1782.44L547.08 1771.36L545.64 1766.76L616.99 1772.41C616.99 1772.41 618.25 1778.64 620.54 1788.64Z" fill="#FDF2CC"/>
<path d="M987.83 776.87C993.3 779.3 992.43 786.95 988.13 789C987.95 790.97 987.69 792.95 987.39 794.94C986.86 798.4 982.46 800.36 979.39 799.48C975.74 798.43 974.32 794.98 974.85 791.48C975.02 790.41 975.19 789.28 975.34 788.14C965.93 788.92 957.33 795.67 949.5 800.73C940.79 806.36 927.3 811.96 925.23 823.46C923.6 832.44 932.64 837.03 939.03 841.02C946.61 845.76 953.31 850.83 956.58 859.44C957.73 862.46 955.29 866.9 952.04 867.43C945.45 868.51 938.98 870.29 932.97 873.23C929.98 874.7 927.08 876.38 924.32 878.26C921.07 880.47 919.75 881.51 920.26 885.6C922.15 900.9 925.45 916.15 928.03 931.35C928.16 932.12 928.17 932.85 928.08 933.53C927.98 936.7 925.9 939.74 921.81 939.62C912.72 939.36 903.46 939.04 894.53 941.06C886.14 942.96 878.13 946.34 870.19 949.56C853.13 956.47 836.43 964.24 820.07 972.66C819.88 972.76 819.7 972.84 819.51 972.92C815.9 976.37 808.25 974.88 808.36 968.45C809.05 927.26 809.95 885.97 817.04 845.28C817.06 845.16 817.1 845.05 817.12 844.94C816.15 835.73 819.74 827.24 823.23 818.9C826.31 811.54 829.44 804.19 832.89 796.99C840 782.17 848.61 768.09 860.02 756.17C861.49 754.63 863.18 754.08 864.78 754.2C887.09 740.16 917.26 732.87 942.91 740.92C949.54 743 955.58 746.33 961.35 750.15C966.89 753.83 972.7 757.28 978.07 761.18C983.94 765.44 986.75 770.87 987.83 776.87ZM973.96 775.22C971.64 771.46 966.89 769.49 963.33 767.15C954.01 761.04 945.43 754.47 934.3 752.12C912.3 747.46 888.24 754.35 869.79 766.42C868.94 766.98 868.1 767.3 867.29 767.43C858 777.69 850.92 789.58 844.86 802.01C841.6 808.69 838.63 815.5 835.77 822.35C832.64 829.83 829.13 837.27 830.18 845.55C830.31 846.55 830.08 847.52 829.62 848.38C829.61 848.5 829.6 848.61 829.58 848.73C823.33 884.6 822.2 921.04 821.55 957.38C836.34 950.02 851.41 943.23 866.73 937.03C875.22 933.59 883.82 929.94 892.85 928.15C899.87 926.76 906.97 926.44 914.08 926.48C912.93 919.72 911.79 912.97 910.64 906.21C909.78 901.13 908.9 896.05 908.05 890.96C907.37 886.94 906.44 882.74 907.49 878.69C909.5 870.99 918.4 866.15 924.92 862.76C929.65 860.3 934.61 858.34 939.71 856.88C934.56 852.15 926.71 848.98 921.9 845.02C912.35 837.17 909.59 825.31 914.83 814.03C920.91 800.94 935.12 794.69 946.52 787.14C954.9 781.6 964.14 776.28 973.96 775.22Z" fill="white"/>
<path d="M963.33 767.15C966.89 769.49 971.64 771.46 973.96 775.22C964.14 776.28 954.9 781.6 946.52 787.14C935.12 794.69 920.91 800.94 914.83 814.03C909.59 825.31 912.35 837.17 921.9 845.02C926.71 848.98 934.56 852.15 939.71 856.88C934.61 858.34 929.65 860.3 924.92 862.76C918.4 866.15 909.5 870.99 907.49 878.69C906.44 882.74 907.37 886.94 908.05 890.96C908.9 896.05 909.78 901.13 910.64 906.21C911.79 912.97 912.93 919.72 914.08 926.48C906.97 926.44 899.87 926.76 892.85 928.15C883.82 929.94 875.22 933.59 866.73 937.03C851.41 943.23 836.34 950.02 821.55 957.38C822.2 921.04 823.33 884.6 829.58 848.73C829.6 848.61 829.61 848.5 829.62 848.38C830.08 847.52 830.31 846.55 830.18 845.55C829.13 837.27 832.64 829.83 835.77 822.35C838.63 815.5 841.6 808.69 844.86 802.01C850.92 789.58 858 777.69 867.29 767.43C868.1 767.3 868.94 766.98 869.79 766.42C888.24 754.35 912.3 747.46 934.3 752.12C945.43 754.47 954.01 761.04 963.33 767.15Z" fill="white"/>
<path d="M727.69 778.15C730.39 782.37 727.47 786.39 723.72 787.46C724.57 794.28 722.68 801.56 720.81 808.49C717.02 822.51 713.53 836.62 710.34 850.8C707.15 864.97 704.25 879.21 701.66 893.51C699.03 908.04 696.16 922.68 697.89 937.49C698.43 942.08 693.34 944.4 689.67 943.76C677.16 941.58 664.5 940.46 651.8 940.43C640.16 940.4 628.06 940.76 616.7 943.5C604.65 946.41 593.9 953.25 583.12 959.13C571.91 965.25 560.73 971.43 549.59 977.67C546.28 979.53 543.13 978.24 541.34 975.89C540.36 974.73 539.75 973.2 539.53 971.55C536.48 948.23 543.6 925.18 542.08 901.84C542.01 900.79 542.15 899.87 542.46 899.08C542.32 868.21 558.24 840.55 563.36 810.57C563.43 810.14 563.54 809.76 563.67 809.39C562.97 807.79 562.85 805.9 563.7 803.94C570.63 787.91 582.75 773.7 594.56 761C606.96 747.66 622.44 742.37 640.2 740.45C673.73 736.83 709.02 748.9 727.69 778.15ZM710.01 798.51C711.01 794.32 712.42 788.44 709.24 784.85C706.54 781.8 707.35 778.05 709.52 775.73C692.25 757.13 665.33 750.69 640.2 753.45C632.59 754.29 624.58 755.83 617.67 759.23C610.94 762.54 605.79 767.77 600.92 773.35C591.13 784.54 581.35 796.07 575.26 809.76C575.89 810.96 576.17 812.4 575.89 814.03C570.86 843.52 554.56 870.93 555.49 901.39C555.52 902.25 555.4 903.01 555.18 903.7C556.07 923.07 551.37 942.25 551.81 961.56C561.19 956.34 570.59 951.15 580.01 946.02C591.21 939.93 602.4 933.28 615 930.57C637.44 925.74 661.56 926.52 684.38 929.83C684.15 918.73 686.03 907.68 687.94 896.73C690.27 883.37 692.86 870.06 695.72 856.8C698.64 843.23 701.84 829.71 705.31 816.27C706.83 810.34 708.59 804.46 710.01 798.51Z" fill="white"/>
<path d="M709.24 784.85C712.42 788.44 711.01 794.32 710.01 798.51C708.59 804.46 706.83 810.34 705.31 816.27C701.84 829.71 698.64 843.23 695.72 856.8C692.86 870.06 690.27 883.37 687.94 896.73C686.03 907.68 684.15 918.73 684.38 929.83C661.56 926.52 637.44 925.74 615 930.57C602.4 933.28 591.21 939.93 580.01 946.02C570.59 951.15 561.19 956.34 551.81 961.56C551.37 942.25 556.07 923.07 555.18 903.7C555.4 903.01 555.52 902.25 555.49 901.39C554.56 870.93 570.86 843.52 575.89 814.03C576.17 812.4 575.89 810.96 575.26 809.76C581.35 796.07 591.13 784.54 600.92 773.35C605.79 767.77 610.94 762.54 617.67 759.23C624.58 755.83 632.59 754.29 640.2 753.45C665.33 750.69 692.25 757.13 709.52 775.73C707.35 778.05 706.54 781.8 709.24 784.85Z" fill="white"/>
<path d="M712.2 1981.8L683.16 2021.51C681.67 2023.55 680.1 2025.84 680.32 2028.35C680.49 2030.33 681.74 2032.04 683.01 2033.58C705.69 2061.12 745.82 2068.69 780.92 2062.29C816.02 2055.9 847.74 2037.95 879.54 2021.78C914.28 2004.11 949.94 1988.26 986.33 1974.31C992.68 1971.88 999.22 1969.47 1006.02 1969.47C1012.82 1969.47 1020.03 1972.37 1023.35 1978.3C1025.19 1981.6 1025.68 1985.48 1025.73 1989.25C1026.1 2014.22 1009.6 2036.18 991.79 2053.68C973.98 2071.18 953.57 2087.07 942.14 2109.27C934.09 2124.9 931.09 2142.63 929.63 2160.16C928.2 2177.43 928.51 2196.04 938.2 2210.41C942.49 2216.78 948.4 2221.92 954.75 2226.23C978.32 2242.25 1009.07 2247.23 1036.5 2239.48C1063.92 2231.73 1087.52 2211.39 1099.22 2185.41C1104.78 2173.08 1107.72 2159.72 1109.64 2146.33C1114.31 2113.75 1113.1 2080.36 1120.32 2048.25C1125.88 2023.53 1136.34 2000.11 1141.86 1975.38C1146.87 1952.9 1147.73 1929.7 1147.44 1906.68C1147.39 1902.35 1147.28 1897.95 1145.88 1893.85C1144.36 1889.41 1141.4 1885.59 1138.1 1882.25C1126.16 1870.17 1108.95 1863.49 1091.99 1864.37C1075.03 1865.25 1058.6 1873.66 1048.15 1886.46C1012.3 1909.02 973.37 1926.17 934.59 1943.22C885.04 1965.02 835.47 1986.83 784.79 2005.86C776.96 2008.8 768.81 2011.72 760.46 2011.2C745.95 2010.29 734.28 1999.43 724 1989.15C720.21 1985.36 715.92 1981.33 712.2 1981.78V1981.8Z" fill="#FDF2CC"/>
<path d="M593.46 1252.38C586.67 1258.8 579.77 1266.09 578.26 1275.32C576.89 1283.67 580.21 1292.01 583.62 1299.76C604.25 1346.62 630.64 1390.82 650.42 1438.04C655.41 1449.96 659.99 1462.09 665.93 1473.57C671.32 1484 679.28 1494.84 690.92 1496.4C700.05 1497.63 709.05 1492.57 715.28 1485.79C719.18 1481.55 722.38 1476.39 723.02 1470.67C723.7 1464.68 721.55 1458.77 719.44 1453.12C716.13 1444.28 712.8 1435.39 708.01 1427.25C703.84 1420.16 698.62 1413.72 694.49 1406.61C688.68 1396.61 685.16 1385.48 681.35 1374.56C669.16 1339.68 653.59 1305.98 634.91 1274.1C630.53 1266.61 625.66 1258.92 618.12 1254.63C608.64 1249.24 595.53 1250.43 593.47 1252.37L593.46 1252.38Z" fill="#FFEDA9"/>
<path d="M810.34 1477.04C806.29 1487.13 809.11 1499.59 817.11 1506.95C825.11 1514.31 837.76 1516.09 847.48 1511.22C851.27 1509.32 854.54 1506.57 857.77 1503.82C880.47 1484.52 902.55 1464.47 923.94 1443.73C928.43 1439.37 932.98 1434.87 935.76 1429.26C940.39 1419.92 939.24 1408.01 932.92 1399.72C926.6 1391.44 915.41 1387.18 905.19 1389.17C894.65 1391.22 886.29 1398.99 878.65 1406.53C855.11 1429.76 822.25 1447.32 810.33 1477.02L810.34 1477.04Z" fill="#FFEDA9"/>
<path d="M739.71 1508.3C723.83 1514.84 712.67 1531.47 712.62 1548.65C712.6 1555.61 714.26 1562.53 717.08 1568.9C719.75 1574.92 723.63 1580.64 729.27 1584.03C732.93 1586.23 737.14 1587.33 741.36 1587.97C754.07 1589.91 767.63 1587.66 778.3 1580.49C788.97 1573.32 796.37 1560.99 796.3 1548.13C796.23 1534.27 787.53 1521.27 775.66 1514.13C763.78 1506.99 748.91 1504.5 739.71 1508.3Z" fill="#FFEDA9"/>
<path d="M920.69 1044.41C925.44 1054.32 928.42 1070.02 912.79 1101.88C897.16 1133.75 849.77 1169.82 811.63 1175.81C773.49 1181.81 749.24 1179 729.72 1175.27C709.38 1171.38 668.06 1159.47 646.85 1124.5C636.32 1107.15 644.95 1082.91 661.43 1074.37C676.5 1066.56 692.49 1070.02 707.31 1073.83C722.13 1077.64 749.7 1080.91 773.13 1077.1C796.56 1073.28 820.98 1047.96 847.13 1034C864.21 1024.88 880.79 1025.06 891.35 1026.63C898.2 1027.64 904.94 1028.93 911.62 1033.76C914.76 1036.03 919.08 1041.05 920.69 1044.41Z" fill="#1D1D1B"/>
<path d="M911.62 1033.76C904.94 1028.93 898.2 1027.64 891.35 1026.63C880.79 1025.06 864.21 1024.88 847.13 1034C820.98 1047.96 796.56 1073.28 773.13 1077.1C749.7 1080.91 722.13 1077.64 707.31 1073.83C692.49 1070.02 676.5 1066.56 661.43 1074.37C644.95 1082.91 636.32 1107.15 646.85 1124.5C668.06 1159.47 709.38 1171.38 729.72 1175.27C749.24 1179 773.49 1181.81 811.63 1175.81C849.77 1169.82 897.16 1133.75 912.79 1101.88C928.42 1070.02 925.44 1054.32 920.69 1044.41C919.08 1041.05 914.76 1036.03 911.62 1033.76Z" stroke="#1D1D1B" stroke-width="8" stroke-linecap="round" stroke-linejoin="round"/>
<path d="M736.51 959.649C714.39 951.169 683.12 941.969 651.65 941.969C605.48 941.969 564.21 966.629 549.01 976.909C546.25 978.779 542.51 976.909 542.35 973.579C540.28 931.819 536.56 735.359 650.24 735.359C687.53 735.359 713.05 755.839 730.48 784.789C760.97 835.419 766.76 912.719 767.64 950.919" stroke="#1D1D1B" stroke-width="8" stroke-linecap="round" stroke-linejoin="round"/>
<path d="M766.98 932.959L767.4 950.439C764.34 949.109 752.18 948.809 752.18 948.809L737.04 959.069L733.83 957.659L710.18 950.139L684.44 944.419L667.21 942.619L665.3 942.359C654.23 926.459 647.66 904.999 646.85 880.859L691.89 856.539C693.42 855.709 693.5 853.549 692.04 852.609L655.49 829.249C655.51 829.199 655.52 829.159 655.54 829.109C666.65 801.559 687.19 783.069 710.7 783.069C718.56 783.069 726.09 785.139 733.05 788.919C733.05 788.919 740.02 803.059 740.7 804.629C741.39 806.199 749.93 829.409 749.93 829.409L755.16 848.239L759.81 870.139L763.15 891.359L765.29 910.169L766.98 932.959Z" fill="#1D1D1B"/>
<path d="M767.4 950.439L766.98 932.959L765.29 910.169L763.15 891.359L759.81 870.139L755.16 848.239L749.93 829.409C749.93 829.409 741.39 806.199 740.7 804.629C740.02 803.059 733.05 788.919 733.05 788.919C726.09 785.139 718.56 783.069 710.7 783.069C687.19 783.069 666.65 801.559 655.54 829.109C655.52 829.159 655.51 829.199 655.49 829.249L692.04 852.609C693.5 853.549 693.42 855.709 691.89 856.539L646.85 880.859C647.66 904.999 654.23 926.459 665.3 942.359L667.21 942.619L684.44 944.419L710.18 950.139L733.83 957.659L737.04 959.069L752.18 948.809C752.18 948.809 764.34 949.109 767.4 950.439Z" stroke="#1D1D1B" stroke-width="8" stroke-linecap="round" stroke-linejoin="round"/>
<path d="M814.96 976.909C812.2 978.779 808.46 976.909 808.3 973.579C806.23 931.819 802.51 735.359 916.19 735.359C953.48 735.359 979 755.839 996.43 784.789C1032.43 844.559 1033.99 940.439 1033.7 966.739C1033.66 969.889 1030.36 971.909 1027.53 970.529C1011.3 962.589 964.68 941.979 917.59 941.979C870.5 941.979 830.15 966.639 814.95 976.919L814.96 976.909Z" stroke="#1D1D1B" stroke-width="8" stroke-linecap="round" stroke-linejoin="round"/>
<path d="M1032.92 932.959L1033.71 965.559L1033.68 966.909C1033.62 970.039 1030.34 972.079 1027.5 970.739L1013.12 963.959L975.78 950.769L949.49 944.799L933.15 942.619L931.24 942.359C920.17 926.459 913.6 904.999 912.79 880.859L957.83 856.539C959.36 855.709 959.44 853.549 957.98 852.609L921.43 829.249C921.45 829.199 921.46 829.159 921.48 829.109C932.59 801.559 953.13 783.069 976.64 783.069C984.5 783.069 992.03 785.139 998.99 788.919C998.99 788.919 1005.96 803.059 1006.65 804.629C1007.33 806.199 1015.87 829.409 1015.87 829.409L1021.1 848.239L1025.76 870.139L1029.09 891.359L1031.23 910.169L1032.92 932.959Z" fill="#1D1D1B"/>
<path d="M1032.92 932.959L1031.23 910.169L1029.09 891.359L1025.76 870.139L1021.1 848.239L1015.87 829.409C1015.87 829.409 1007.33 806.199 1006.65 804.629C1005.96 803.059 998.99 788.919 998.99 788.919C992.03 785.139 984.5 783.069 976.64 783.069C953.13 783.069 932.59 801.559 921.48 829.109C921.46 829.159 921.45 829.199 921.43 829.249L957.98 852.609C959.44 853.549 959.36 855.709 957.83 856.539L912.79 880.859C913.6 904.999 920.17 926.459 931.24 942.359L933.15 942.619L949.49 944.799L975.78 950.769L1013.12 963.959L1027.5 970.739C1030.34 972.079 1033.62 970.039 1033.68 966.909L1033.71 965.559L1032.92 932.959Z" stroke="#1D1D1B" stroke-width="8" stroke-linecap="round" stroke-linejoin="round"/>
<path d="M784.85 960.43C784.85 960.43 766.6 943.64 748.43 951.63C730.27 959.62 729.73 974.66 729.72 982.66C729.71 1001.55 736.17 1014.72 740.53 1021.26" stroke="#1D1D1B" stroke-width="8" stroke-linecap="round" stroke-linejoin="round"/>
<path d="M949.34 676.619C949.34 676.619 960.24 661.729 982.76 660.269C1008.76 658.589 1029.85 670.409 1046.29 690.829C1065.39 714.559 1067.01 735.349 1067.01 735.349" stroke="#1D1D1B" stroke-width="8" stroke-linecap="round" stroke-linejoin="round"/>
<path d="M540.32 735.35C540.32 735.35 558.59 696.81 581.24 683.29C597.61 673.52 614.66 669.12 646.85 676.52" stroke="#1D1D1B" stroke-width="8" stroke-linecap="round" stroke-linejoin="round"/>
<path d="M753.93 1590.3C777.402 1590.3 796.43 1571.27 796.43 1547.8C796.43 1524.33 777.402 1505.3 753.93 1505.3C730.458 1505.3 711.43 1524.33 711.43 1547.8C711.43 1571.27 730.458 1590.3 753.93 1590.3Z" stroke="#1D1D1B" stroke-width="8" stroke-linecap="round" stroke-linejoin="round"/>
<path d="M691.49 466.979C706.17 464.109 717.91 463.159 725.85 463.029C739.43 462.799 755.36 467.749 740.65 458.489C725.94 449.229 701.96 450.859 691.07 450.859C680.18 450.859 667.64 452.489 677.99 443.779C688.34 435.069 723.8 414.669 767.77 412.179C820.34 409.189 863.8 434.519 863.8 434.519C863.8 434.519 866.98 436.429 872.97 437.519C878.96 438.609 888.23 432.069 891.5 428.799C894.77 425.529 916.29 401.829 941.08 399.379C965.87 396.929 977.31 399.109 986.58 402.649C995.84 406.189 1000.47 410.009 999.38 412.459C998.29 414.909 993.56 411.169 983.58 412.999C972.19 415.089 954.15 422.249 943.98 434.599C932.4 448.669 932.09 454.409 936.45 453.869C940.81 453.329 945.17 441.069 956.34 435.069C967.51 429.069 985.55 425.169 993.39 423.899C1004.65 422.069 1012.27 422.429 1013 427.339C1013.64 431.689 1009.23 432.609 1005.92 433.979C999.28 436.739 958.24 459.859 956.61 476.209" stroke="#1D1D1B" stroke-width="8" stroke-linecap="round" stroke-linejoin="round"/>
<path d="M257.27 1042.04C276.61 1005.23 313.08 957.32 311.64 954.35C310.35 951.69 301.29 957.21 288.23 971.16C280.6 979.31 264.28 1006.93 261.37 1002.57C258.46 998.21 279.99 936.73 300.96 897.5C329.07 844.93 351.93 821.19 357.65 816.56C360.82 813.99 363.09 812.75 362.42 811.84C360.88 809.75 341.76 822.92 329.09 837.22C320.58 846.83 307.2 868.32 305.21 868.14C303.21 867.96 308.12 831.45 369.14 735.35C430.16 639.25 521.75 584.03 534.06 576.81C538.2 574.38 542.13 572.16 538.42 571.72C528.67 570.57 509 585.34 501.91 589.7C494.82 594.06 491.01 597.87 491.56 593.51C492.11 589.15 532.97 539.57 593.59 504.7" stroke="#1D1D1B" stroke-width="8" stroke-linecap="round" stroke-linejoin="round"/>
<path d="M369.41 1704.79C370.37 1708.89 371.48 1711.27 373.38 1714.31C375.7 1718 377.51 1720.12 376.2 1720.53C372.14 1721.79 361.28 1714.83 354.68 1709.18C350.68 1705.76 340.82 1696.29 329.84 1684.16C311.47 1663.86 291.97 1636.53 281.89 1613.24C269.7 1585.06 258.44 1533.53 257.35 1523.72C256.26 1513.91 254.63 1514.46 253.54 1518.27C252.99 1520.21 250.95 1536.65 251.34 1553.21C251.71 1569.2 254.46 1585.3 255.72 1588.56C258.01 1594.49 245.21 1584 237.04 1566.56C228.87 1549.12 228.27 1530.1 226.85 1527.53C225.6 1525.28 224.21 1531.64 223.58 1542.79C222.71 1558.25 223.58 1570.03 218.13 1566.22C212.68 1562.41 194.7 1519.91 190.34 1477.41C185.98 1434.91 194.9 1396.11 208.3 1369.87C221.54 1343.92 249.71 1307.75 242.65 1307.41C237.05 1307.14 225.77 1317.59 217.59 1327.03C200.92 1346.25 189.23 1367.96 182.27 1382.72C178.59 1390.51 166.37 1408.22 164.19 1403.86C162.01 1399.5 166.71 1320.02 188.16 1251.84C203 1204.69 232.84 1148.31 234.47 1140.69C236.1 1133.06 226.3 1136.88 221.94 1141.23C217.58 1145.59 211.04 1153.22 209.95 1144.5C209.48 1140.75 214.96 1128.27 222.29 1113.15" stroke="#1D1D1B" stroke-width="8" stroke-linecap="round" stroke-linejoin="round"/>
<path d="M342.35 1662.66C342.35 1662.66 354.44 1684.98 367.29 1702.11C377.22 1715.35 386.69 1722.89 391.6 1725.53C399.16 1729.59 407.7 1733.32 412.21 1730.98C414.48 1729.8 407.84 1725.27 404.85 1717.45C402.21 1710.54 400.87 1704.15 401.04 1702.21" stroke="#1D1D1B" stroke-width="8" stroke-linecap="round" stroke-linejoin="round"/>
<path d="M383.22 1671.93C383.22 1671.93 408.13 1723.51 442.07 1746.03C469.67 1764.35 502.98 1775.65 504.78 1771.65C506.14 1768.61 501.77 1767.03 496.83 1761.85C492.77 1757.58 486.62 1750.32 485.53 1741.53" stroke="#1D1D1B" stroke-width="8" stroke-linecap="round" stroke-linejoin="round"/>
<path d="M621.88 1789.85C622.27 1789.93 622.62 1790 622.95 1790.06C628.11 1791.11 638.51 1793.85 640 1791.05C640.9 1789.37 638.37 1789.51 634.75 1780.43C631.45 1772.15 632.67 1766.95 633.12 1764.68" stroke="#1D1D1B" stroke-width="8" stroke-linecap="round" stroke-linejoin="round"/>
<path d="M462.04 1724.83C462.04 1724.83 461.68 1728.04 486.74 1742.21C496.84 1747.92 520.15 1761.02 545.74 1770.33" stroke="#1D1D1B" stroke-width="8" stroke-linecap="round" stroke-linejoin="round"/>
<path d="M900.95 1798.4C900.82 1800.71 900.41 1803.66 899.4 1806.08C895.26 1816.04 885.51 1823.71 887.23 1826.13C888.86 1828.42 915.92 1821.05 939.35 1806.33C962.78 1791.62 991.03 1760.05 995.11 1755.1C998.52 1750.97 994.76 1762.39 990.43 1769.57C988.56 1772.67 974.43 1790.54 966.1 1798.1C954.93 1808.23 951.8 1810.9 948.8 1813.58C942.29 1819.4 980.68 1823.16 1012.55 1805.95C1047.15 1787.27 1051.62 1773.74 1057.77 1768.35C1063.95 1762.95 1057.41 1776.3 1051.59 1783.79C1040.48 1798.12 1019.62 1812.49 1062.12 1798.86C1077.65 1793.88 1093.96 1785.77 1111.34 1772.34C1141.54 1749.02 1163.86 1721.93 1164.56 1719.85" stroke="#1D1D1B" stroke-width="8" stroke-linecap="round" stroke-linejoin="round"/>
<path d="M627.68 1747.05C627.68 1747.05 636.03 1785.28 656.42 1799.63C671.27 1810.07 694.92 1816.07 697.52 1812.58C698.39 1811.41 694.85 1807.56 692.2 1801.36C690.57 1797.55 690.23 1786.37 693.47 1784.47C696.65 1782.61 703.34 1790.28 706.94 1794.18C711.48 1799.1 722.77 1806.11 730.3 1808.15C740.97 1811.03 751.18 1811.54 770.05 1811.32" stroke="#1D1D1B" stroke-width="8" stroke-linecap="round" stroke-linejoin="round"/>
<path d="M1131.34 1756.16C1131.34 1756.16 1126.96 1765.97 1114.99 1779.45C1104.5 1791.26 1098.1 1797.25 1099.73 1798.34C1101.87 1799.76 1109.9 1796.52 1120.07 1791.8C1130.24 1787.08 1169.11 1759.11 1186.18 1736.59C1203.25 1714.07 1207.98 1703.9 1207.98 1703.9" stroke="#1D1D1B" stroke-width="8" stroke-linecap="round" stroke-linejoin="round"/>
<path d="M1194.98 1724.57C1194.98 1724.57 1193.01 1735.56 1183.73 1748.46C1180.78 1752.56 1174.9 1759.76 1178.96 1759.77C1186.11 1759.77 1220.1 1743.4 1233.9 1730.69C1247.7 1717.98 1266.46 1688.64 1267.19 1682.46" stroke="#1D1D1B" stroke-width="8" stroke-linecap="round" stroke-linejoin="round"/>
<path d="M1262.7 1693.55C1262.7 1693.55 1268.32 1712.93 1262.39 1732.84C1258.26 1746.71 1253.34 1755.57 1257.69 1755C1261.31 1754.52 1285.81 1745.92 1306.04 1715.52C1323.96 1688.59 1334.37 1656.67 1337.64 1640.33C1340.91 1623.98 1343.09 1582.03 1337.64 1565.68" stroke="#1D1D1B" stroke-width="8" stroke-linecap="round" stroke-linejoin="round"/>
<path d="M1339.65 1574.81C1339.65 1574.81 1346.85 1594.96 1350.36 1605.08C1353.85 1615.15 1352.14 1622.25 1358.37 1622.34C1363.5 1622.42 1368.75 1615.14 1374.99 1601.42C1387.04 1574.91 1393.72 1524.97 1389.36 1476.2C1387.69 1457.54 1381.01 1431.7 1371.2 1412.63" stroke="#1D1D1B" stroke-width="8" stroke-linecap="round" stroke-linejoin="round"/>
<path d="M1381.49 1438.35C1381.49 1438.35 1392.68 1451.41 1395.63 1457.63C1404.87 1477.13 1401.84 1485.97 1407.29 1485.12C1417.83 1483.47 1433.7 1428.19 1437.35 1386.61C1440.29 1353.19 1439.62 1332.25 1427.91 1304.97C1422.1 1291.43 1411.77 1275.7 1401.96 1260.99C1392.15 1246.28 1374.99 1222.58 1374.99 1222.58" stroke="#1D1D1B" stroke-width="8" stroke-linecap="round" stroke-linejoin="round"/>
<path d="M1399.76 1257.75C1399.76 1257.75 1410.62 1264.68 1426.36 1282.24C1438.82 1296.13 1441.12 1313.63 1443.27 1309.02C1445.73 1303.75 1448.35 1286.68 1448.42 1280.88C1448.72 1256.18 1441.17 1231.6 1432.6 1212.41C1423.69 1192.44 1419.15 1186.4 1406.89 1168.15C1396.74 1153.04 1388.62 1143.6 1386.62 1140.39" stroke="#1D1D1B" stroke-width="8" stroke-linecap="round" stroke-linejoin="round"/>
<path d="M1051.32 468.539C1047.95 467.469 1044.51 466.449 1041.03 465.469C987.36 450.489 968.36 459.379 968.36 459.379" stroke="#1D1D1B" stroke-width="8" stroke-linecap="round" stroke-linejoin="round"/>
<path d="M1197.51 574.22C1197.51 574.22 1206.66 572.5 1213.41 573.03C1219.15 573.48 1228.34 577.07 1229.85 576.84C1234.03 576.2 1230.39 569.76 1221.04 558.95C1215.13 552.13 1196.61 532.07 1178.37 519.51C1167.78 512.21 1151.13 501 1129.64 489.87" stroke="#1D1D1B" stroke-width="8" stroke-linecap="round" stroke-linejoin="round"/>
<path d="M1191.75 573.71C1191.75 573.71 1209.71 574.61 1219.27 579.7C1230.89 585.89 1241.26 601.68 1239.88 604.76C1238.51 607.85 1229.55 601.98 1218.16 598.82C1215.06 597.96 1201.61 594.67 1198.77 595.06" stroke="#1D1D1B" stroke-width="8" stroke-linecap="round" stroke-linejoin="round"/>
<path d="M1195.48 593.96C1195.48 593.96 1235.8 605.4 1272.13 649.72C1308.19 693.72 1318.21 727.64 1322.08 739.44C1330.83 766.14 1330.03 779.55 1328.18 780.38C1326.78 781.01 1322.08 771.77 1309.97 764.68" stroke="#1D1D1B" stroke-width="8" stroke-linecap="round" stroke-linejoin="round"/>
<path d="M1275.81 724.93C1275.81 724.93 1299 746.07 1315.16 772.77C1330.08 797.41 1339.47 834.01 1342.22 844.24C1343.97 850.73 1347.55 866.84 1343.87 866.82C1340.92 866.81 1337.68 859.07 1309.86 838.54C1301.33 832.25 1284.25 821.92 1284.25 821.92" stroke="#1D1D1B" stroke-width="8" stroke-linecap="round" stroke-linejoin="round"/>
<path d="M1324.54 850.29C1324.54 850.29 1334.77 862.77 1340.14 873.5C1347.5 888.21 1348.49 899.13 1346.24 899.38C1344.31 899.59 1343.09 897.47 1333.01 891.12C1329.8 889.1 1321.04 885.85 1317.4 884.76" stroke="#1D1D1B" stroke-width="8" stroke-linecap="round" stroke-linejoin="round"/>
<path d="M1327.97 888.899C1327.97 888.899 1350.86 915.029 1365.45 940.399C1377.45 961.269 1384.79 985.199 1387.52 999.909C1389.33 1009.68 1389.38 1017.3 1386.04 1011.4C1382.36 1004.89 1375.21 995.329 1369.01 989.469C1364.69 985.379 1358.61 981.549 1356.77 981.249C1354.84 980.939 1351.73 979.729 1356.09 983.729C1360.45 987.729 1387.56 1020.37 1397.32 1042.78C1407.08 1065.19 1405.3 1068.61 1402.54 1068.61C1397.77 1068.61 1394.09 1059.2 1378.43 1051.98C1364.38 1045.51 1356.79 1043.68 1356.79 1043.68" stroke="#1D1D1B" stroke-width="8" stroke-linecap="round" stroke-linejoin="round"/>
<path d="M1344.65 1034.78C1344.65 1034.78 1370.96 1053.37 1381.58 1075.58" stroke="#1D1D1B" stroke-width="8" stroke-linecap="round" stroke-linejoin="round"/>
<path d="M852.82 428.3C852.82 428.3 888.21 258.08 930.54 187.77C1004.08 65.6501 1064.39 25.4901 1142.65 37.9001C1219.39 50.0701 1251.45 102.43 1276.69 157.77C1302 213.27 1300.76 224.04 1314.74 241.85C1320.44 249.11 1312.94 247.03 1306.57 246.49C1299.23 245.88 1278.99 237.23 1262.98 220.52" stroke="#1D1D1B" stroke-width="8" stroke-linecap="round" stroke-linejoin="round"/>
<path d="M1263.43 221.479C1263.43 221.479 1263.47 250.96 1269.17 268.32C1274.75 285.35 1278.49 293.559 1268.63 288.339C1252.15 279.619 1241.52 265.389 1231.58 249.039" stroke="#1D1D1B" stroke-width="8" stroke-linecap="round" stroke-linejoin="round"/>
<path d="M1231.57 249.05C1231.57 249.05 1159.47 354.08 1140.59 495.77" stroke="#1D1D1B" stroke-width="8" stroke-linecap="round" stroke-linejoin="round"/>
<path d="M1001.79 89.8597C1001.79 89.8597 995.31 38.1897 925.07 13.5797C840.52 -16.0403 776.87 31.7597 759.98 40.0997C744.83 47.5797 717.97 57.4397 681.82 60.9797C673.14 61.8297 682 70.6997 692.54 73.5997C704.72 76.9597 726.74 75.1997 735.73 70.8397" stroke="#1D1D1B" stroke-width="8" stroke-linecap="round" stroke-linejoin="round"/>
<path d="M735.73 70.8398C735.73 70.8398 669.55 115.22 621.43 232.02C582.83 325.72 568.86 520.38 568.86 520.38" stroke="#1D1D1B" stroke-width="8" stroke-linecap="round" stroke-linejoin="round"/>
<path d="M1291.69 1132.13C1291.89 1132.2 1361.13 1131.66 1423.55 1148.32C1478.8 1163.07 1526.15 1189.91 1540.88 1206.44C1578.86 1249.07 1572.76 1279.18 1569.66 1304.97C1567.01 1327.03 1545.64 1391.52 1545.64 1391.52" stroke="#1D1D1B" stroke-width="8" stroke-linecap="round" stroke-linejoin="round"/>
<path d="M1296.78 1068.6C1296.78 1068.6 1395.44 1074.46 1466.77 1093.11C1516.08 1106 1563.96 1135.9 1584 1154.61C1633.04 1200.38 1636.79 1236.01 1637.2 1264.2C1637.71 1299.07 1622.41 1379.64 1611.79 1402.53" stroke="#1D1D1B" stroke-width="8" stroke-linecap="round" stroke-linejoin="round"/>
<path d="M1532.71 1359.74C1532.71 1359.74 1521.32 1392.13 1571.16 1402.76C1621 1413.39 1640.6 1389.96 1640.6 1380.09" stroke="#1D1D1B" stroke-width="8" stroke-linecap="round" stroke-linejoin="round"/>
<path d="M1568.37 1312.65C1568.37 1312.65 1514.33 1309.65 1488.21 1327.41C1454.92 1350.05 1450.61 1397.34 1470.73 1424.01C1490.85 1450.68 1541.34 1456.46 1541.34 1456.46" stroke="#1D1D1B" stroke-width="8" stroke-linecap="round" stroke-linejoin="round"/>
<path d="M1631.52 1321.47C1631.52 1321.47 1673.46 1328.54 1691.72 1361.65C1709.05 1393.06 1700.02 1438.46 1672.48 1451.8C1626.88 1473.9 1586.28 1463.27 1586.28 1463.27" stroke="#1D1D1B" stroke-width="8" stroke-linecap="round" stroke-linejoin="round"/>
<path d="M1470.73 1424.01C1470.73 1424.01 1437.29 1435.31 1419.85 1465.82C1403.35 1494.68 1405.42 1509.9 1399.04 1526.7C1389.66 1551.4 1384.12 1572.42 1392.86 1586.27C1405.07 1605.61 1423.24 1601.75 1438.82 1590.91" stroke="#1D1D1B" stroke-width="8" stroke-linecap="round" stroke-linejoin="round"/>
<path d="M1446.88 1540.53C1446.88 1540.53 1450.48 1557.27 1443.91 1577.55C1433.29 1610.3 1415.85 1606.49 1415.85 1606.49" stroke="#1D1D1B" stroke-width="8" stroke-linecap="round" stroke-linejoin="round"/>
<path d="M1665.87 1455.05C1665.87 1455.05 1666.52 1499.74 1669.56 1515.08C1674.97 1542.4 1680.17 1583.17 1662.48 1610.98C1652.31 1626.96 1636.43 1642.44 1623.25 1649.76C1610.99 1656.57 1600.91 1663.36 1581.84 1663.38C1567.13 1663.39 1564.5 1657.47 1554.89 1655.81C1537.07 1652.73 1530.88 1661.82 1518.67 1659.27C1503.52 1656.1 1501.77 1646.89 1492.77 1643.55C1481.1 1639.22 1477.79 1641.28 1468.25 1642.91C1457.47 1644.76 1428.24 1634.11 1421 1628.36C1404.1 1614.93 1401.59 1595.36 1401.59 1595.36" stroke="#1D1D1B" stroke-width="8" stroke-linecap="round" stroke-linejoin="round"/>
<path d="M310.1 1031.04C310.1 1031.04 224.28 1052.29 180.96 1048.2C137.64 1044.11 86.7901 1021.25 73.0701 971.15C56.5101 910.64 84.8501 833.82 100.86 800.55C118.39 764.13 158.11 699.84 158.11 699.84" stroke="#1D1D1B" stroke-width="8" stroke-linecap="round" stroke-linejoin="round"/>
<path d="M103.14 675.14C103.14 675.14 37.26 775.33 20.92 828.45C4.57001 881.58 -1.56999 959.28 9.89001 995.99C25.66 1046.5 60.37 1077.44 105.32 1097.06C150.27 1116.68 195.58 1114.73 222.19 1113.34C248.8 1111.95 310.1 1098.87 310.1 1098.87" stroke="#1D1D1B" stroke-width="8" stroke-linecap="round" stroke-linejoin="round"/>
<path d="M59.55 698.399C59.55 698.399 90.79 665.339 127.84 678.059C164.89 690.779 168.52 724.559 168.52 724.559" stroke="#1D1D1B" stroke-width="8" stroke-linecap="round" stroke-linejoin="round"/>
<path d="M122.31 760.349C122.31 760.349 140.68 768.639 168.52 768.779C204.66 768.949 221.57 744.399 227.91 732.639C234.25 720.879 236 689.869 217.74 666.439C200.55 644.379 182.87 638.109 182.87 638.109" stroke="#1D1D1B" stroke-width="8" stroke-linecap="round" stroke-linejoin="round"/>
<path d="M103.32 613.03C103.32 613.03 82.7499 605.95 54.4099 615.21C26.0699 624.47 13.0399 640.589 8.7199 655.599C2.5999 676.859 6.5699 702.86 19.4099 716.01C32.2899 729.21 45.7199 740.039 61.5699 743.289" stroke="#1D1D1B" stroke-width="8" stroke-linecap="round" stroke-linejoin="round"/>
<path d="M216.89 664.789C216.89 664.789 260.82 646.619 282.95 626.559C310.1 601.949 338.12 573.979 339.62 532.839C340.67 503.979 329.81 479.439 303.66 469.089C277.51 458.739 242.7 466.889 225.27 465.279C203.27 463.239 178.36 480.759 183.38 502.059C187.88 521.129 198.64 532.569 225.27 537.199C239.71 539.709 256.67 536.929 268.65 532.019C280.64 527.119 290.58 526.199 300.53 527.639" stroke="#1D1D1B" stroke-width="8" stroke-linecap="round" stroke-linejoin="round"/>
<path d="M286.34 464.77C286.34 464.77 304.19 408.61 347.78 378.1C391.37 347.59 420.36 344.84 443.13 324.16C453.31 314.91 456.61 296.48 443.13 278.94C427.62 258.76 383.01 259.92 357.82 271.79C328.45 285.63 282.44 318.15 254.6 362.14C234.28 394.25 218.09 445.12 218.09 445.12" stroke="#1D1D1B" stroke-width="8" stroke-linecap="round" stroke-linejoin="round"/>
<path d="M185.34 472.43C185.34 472.43 168.72 494.77 165.69 510.77C163.15 524.2 172.7 550.49 150.95 560.42C141.99 564.51 126.38 560.46 120.63 552.62C111.64 540.36 109.83 527.61 109.78 517.74C109.73 506.3 113.96 486.14 119.41 474.88C123.97 465.46 135.85 439.92 149.74 432.02" stroke="#1D1D1B" stroke-width="8" stroke-linecap="round" stroke-linejoin="round"/>
<path d="M229.44 414.24C229.44 414.24 195.59 393.02 168.52 392.82C133.58 392.56 101.98 401.24 74.2601 449.49C45.5901 499.38 64.6701 522.5 68.8601 527.66C71.9601 531.47 81.7501 539.52 91.0301 539.1C103.15 538.56 110.68 528.83 110.68 528.83" stroke="#1D1D1B" stroke-width="8" stroke-linecap="round" stroke-linejoin="round"/>
<path d="M68.86 527.649C68.86 527.649 57.74 537.809 59.55 568.499C60.89 591.219 77.55 610.649 77.55 610.649" stroke="#1D1D1B" stroke-width="8" stroke-linecap="round" stroke-linejoin="round"/>
<path d="M903.99 1697.18C903.99 1697.18 742.16 1827.72 686.58 1893.92C631 1960.12 544.76 2129.49 532.38 2160.21C517.67 2196.72 513.03 2227.93 499.26 2232.18C475.87 2239.39 461.35 2226.16 446.21 2216.62C427.26 2204.68 396.98 2164.18 370.28 2134.76C352.09 2114.71 301.23 2073.23 262.39 2066.79C205.72 2057.39 151.24 2091.17 131.72 2128.95C106.88 2177.03 119.52 2233.07 144.7 2261.31C188.29 2310.21 255.38 2330.15 288.07 2332.6C320.76 2335.05 361.28 2337.45 391.53 2347.26C421.77 2357.07 450.59 2383.95 472.36 2388.46C488.44 2391.8 520.12 2390.64 537.01 2370.82C557.66 2346.59 559.08 2302.17 565.62 2262.12C572.16 2222.07 656.34 2040.63 718.46 1975.24C780.58 1909.85 785.48 1904.95 787.93 1903.32C790.38 1901.69 949.36 1740.46 1009.22 1724.83" stroke="#1D1D1B" stroke-width="8" stroke-linecap="round" stroke-linejoin="round"/>
<path d="M669.08 1916.85C664.5 1908.74 659.92 1900.03 655.34 1890.65C639.1 1857.4 609.03 1755.02 610.57 1724.83" stroke="#1D1D1B" stroke-width="8" stroke-linecap="round" stroke-linejoin="round"/>
<path d="M676.95 2029.98C688.09 2041.48 698.35 2050.03 706.83 2054.68C732.17 2068.57 759.71 2071.77 794.04 2061.96C828.37 2052.15 988.17 1966.66 1012.69 1971.56C1037.21 1976.46 1020.86 2013.24 1012.69 2027.14C1004.52 2041.03 975.09 2065.55 952.21 2090.07C929.33 2114.59 902.72 2197.96 958.75 2230.65C1014.96 2263.45 1074.9 2241.29 1099.47 2181.61C1118.58 2135.21 1111.4 2076.56 1122.84 2040.49C1134.28 2004.42 1153.72 1951.13 1147.54 1908.63C1144.15 1885.33 1123.38 1860.14 1091.96 1862.04C1066.2 1863.6 1045.46 1889.56 1016.77 1905.36C988.56 1920.9 819.86 1995.44 787.74 2006.71C765.96 2014.35 753.22 2016.02 725.58 1990.41C721.88 1986.98 718.22 1983.39 714.6 1979.6" stroke="#1D1D1B" stroke-width="8" stroke-linecap="round" stroke-linejoin="round"/>
<path d="M530.48 1721.11C530.48 1721.11 577.7 1881.7 607.31 1933.97C615.18 1947.85 623.52 1961.21 632.02 1973.68" stroke="#1D1D1B" stroke-width="8" stroke-linecap="round" stroke-linejoin="round"/>
<path d="M767.67 1117.35L773.13 1077.1L757.4 1078.75C753.5 1079.16 749.58 1079.22 745.67 1078.92L730.44 1077.76L734.73 1118.12C735.01 1120.74 737.27 1122.69 739.9 1122.59L762.91 1121.67C765.33 1121.57 767.34 1119.75 767.67 1117.35Z" fill="white" stroke="#1D1D1B" stroke-width="8" stroke-linecap="round" stroke-linejoin="round"/>
<path d="M837.39 1091.06L825.02 1048.79L808.1 1059.86C805.12 1061.81 802.1 1063.67 799.02 1065.46L782.02 1075.33L809.63 1108.67C811.28 1110.66 814.16 1111.07 816.29 1109.61L835.4 1096.6C837.19 1095.38 837.99 1093.14 837.39 1091.06Z" fill="white" stroke="#1D1D1B" stroke-width="8" stroke-linecap="round" stroke-linejoin="round"/>
<path d="M721.574 1455.88L631.963 1267.25C625.161 1252.93 608.041 1246.84 593.724 1253.64L593.715 1253.64C579.398 1260.44 573.305 1277.56 580.106 1291.88L669.718 1480.52C676.52 1494.84 693.64 1500.93 707.957 1494.13L707.966 1494.12C722.283 1487.32 728.376 1470.2 721.574 1455.88Z" stroke="#1D1D1B" stroke-width="8" stroke-linecap="round" stroke-linejoin="round"/>
<path d="M857.036 1507.07L931.266 1437.73C942.849 1426.91 943.467 1408.75 932.647 1397.17L932.64 1397.16C921.82 1385.58 903.659 1384.96 892.076 1395.78L817.845 1465.12C806.263 1475.94 805.644 1494.1 816.464 1505.69L816.471 1505.69C827.291 1517.28 845.453 1517.89 857.036 1507.07Z" stroke="#1D1D1B" stroke-width="8" stroke-linecap="round" stroke-linejoin="round"/>
</g>
<defs>
<clipPath id="clip0_3648_2577">
<rect width="1704.57" height="2393.9" fill="white"/>
</clipPath>
</defs>
</svg>
