<svg width="271" height="308" viewBox="0 0 271 308" fill="none" xmlns="http://www.w3.org/2000/svg">
<g clip-path="url(#clip0_5238_23912)">
<path d="M80.2918 151.229C80.2918 151.229 65.3566 145.559 65.3566 112.785C65.3566 80.0101 54.9627 113.897 54.9627 113.897C54.9627 113.897 53.0903 137.124 62.1966 148.74C71.303 160.356 75.4323 162.254 78.6227 163.034C81.813 163.814 80.2918 151.229 80.2918 151.229Z" fill="#FFF2C9"/>
<path d="M80.2918 151.229C80.2918 151.229 65.3566 145.559 65.3566 112.785C65.3566 80.0101 54.9627 113.897 54.9627 113.897C54.9627 113.897 53.0903 137.124 62.1966 148.74C71.303 160.356 75.4323 162.254 78.6227 163.034C81.813 163.814 80.2918 151.229 80.2918 151.229Z" stroke="black" stroke-width="1.10632" stroke-linecap="round" stroke-linejoin="round"/>
<path d="M185.255 276.658C189.265 267.116 187.744 263.52 183.872 264.35C180 265.18 127.311 273.062 119.705 272.371C112.099 271.679 110.717 266.563 110.578 263.659C110.44 260.754 117.354 238.352 117.354 238.352L129.247 242.085C129.247 242.085 124.96 251.904 123.577 255.638C122.195 259.372 123.716 260.478 124.822 261.169C125.928 261.861 126.62 262.414 141.14 260.893C155.661 259.372 188.435 253.702 190.924 252.872C193.414 252.042 196.733 249.553 201.158 249.276C205.583 249 210.008 252.457 211.945 257.989C213.881 263.52 213.189 269.052 211.53 272.786C209.87 276.52 209.455 280.392 209.594 282.743C209.732 285.093 210.008 294.082 207.796 297.401C205.583 300.72 202.126 301.965 194.935 303.348C187.744 304.731 188.988 305.145 184.425 306.401C179.861 307.657 176.819 306.528 174.468 305.837L173.223 304.177L166.945 304.711L160.643 301.997L159.757 300.329L156.564 299.751L154.74 297.245L155.764 291.239C155.764 291.239 161.492 281.261 171.438 278.96C181.383 276.658 181.659 275.966 185.255 276.658Z" fill="#FFEDA9"/>
<path d="M192.719 279.424C192.719 279.424 186.83 272.924 170.207 279.424C153.583 285.923 154.22 296.322 155.105 298.093C156.211 300.306 158.424 300.582 159.392 300.167" stroke="black" stroke-width="1.10632" stroke-linecap="round" stroke-linejoin="round"/>
<path d="M172.667 304.177C167.274 305.422 163.817 304.592 161.051 302.38C158.533 300.365 159.978 296.444 162.849 292.976C166.168 288.965 169.21 288.136 169.21 288.136" stroke="black" stroke-width="1.10632" stroke-linecap="round" stroke-linejoin="round"/>
<path d="M185.255 276.658C189.265 267.116 187.744 263.52 183.872 264.35C180 265.18 127.311 273.062 119.705 272.371C112.099 271.679 110.717 266.563 110.578 263.659C110.44 260.754 117.354 238.352 117.354 238.352L129.247 242.085C129.247 242.085 124.96 251.904 123.577 255.638C122.195 259.372 123.716 260.478 124.822 261.169C125.928 261.861 126.62 262.414 141.14 260.893C155.661 259.372 188.435 253.702 190.924 252.872C193.414 252.042 196.733 249.553 201.158 249.276C205.583 249 210.008 252.457 211.945 257.989C213.881 263.52 213.189 269.052 211.53 272.786C209.87 276.52 209.455 280.392 209.594 282.743C209.732 285.093 210.008 294.082 207.796 297.401C205.583 300.72 202.126 301.965 194.935 303.348C187.744 304.731 188.988 305.145 184.425 306.401C179.861 307.657 176.819 306.528 174.468 305.837C172.117 305.145 173.915 301.55 176.819 296.986C179.723 292.423 184.425 291.87 184.425 291.87" stroke="black" stroke-width="1.10632" stroke-linecap="round" stroke-linejoin="round"/>
<path d="M149.228 51.7263C155.278 42.0955 154.711 30.8499 147.96 26.6084C141.209 22.3669 130.831 26.7358 124.78 36.3666C118.729 45.9974 119.297 57.2431 126.048 61.4845C132.799 65.726 143.177 61.3571 149.228 51.7263Z" fill="#FF6953"/>
<path d="M149.228 51.7263C155.278 42.0955 154.711 30.8499 147.96 26.6084C141.209 22.3669 130.831 26.7358 124.78 36.3666C118.729 45.9974 119.297 57.2431 126.048 61.4845C132.799 65.726 143.177 61.3571 149.228 51.7263Z" stroke="black" stroke-width="1.10632" stroke-linecap="round" stroke-linejoin="round"/>
<path d="M153.376 39.4314C235.869 19.8537 239.942 44.8758 239.942 44.8758L230.564 53.093C230.564 53.093 250.12 39.6941 244.312 29.8756C238.503 20.057 222.961 14.8905 147.897 26.6009L153.375 39.4314H153.376Z" fill="#393939" stroke="black" stroke-width="1.10632" stroke-linecap="round" stroke-linejoin="round"/>
<path d="M193.276 13.9072C192.17 7.96071 188.851 3.39715 181.107 1.18452C173.363 -1.02812 167.416 2.98228 159.672 6.85439C151.928 10.7265 146.534 8.79045 146.534 8.79045C149.992 13.7689 154.694 11.6945 154.694 11.6945L153.864 11.9711C149.715 14.4603 140.45 25.3852 139.343 26.7681C138.237 28.151 132.705 30.9168 132.705 30.9168C133.812 31.8848 136.954 31.2971 136.954 31.2971L138.099 30.5019C131.323 34.9272 129.525 40.7354 129.525 40.7354C130.908 39.2142 135.056 36.8632 135.056 36.8632L134.088 37.4164C128.972 43.5011 127.589 61.2022 127.589 61.2022L137.822 58.6964C137.822 58.6964 128.753 60.1803 124.23 62.7649C119.706 65.3495 116.856 68.1319 113.165 71.5809C109.474 75.0298 104.369 78.7373 100.698 79.7192C100.698 79.7192 104.712 80.8739 106.401 80.5102L109.821 79.1536C109.821 79.1536 96.7889 82.4808 87.7807 108.764C87.7807 108.764 90.942 104.733 93.4326 104.403L91.6514 105.127C91.6514 105.127 87.2096 112.783 85.6884 116.517C84.1672 120.251 81.9573 124.399 80.4348 125.782C80.4348 125.782 83.3637 127.281 86.8777 122.867L84.3539 125.205C84.3539 125.205 83.7869 128.031 83.148 128.289C83.148 128.289 86.832 127.471 87.7821 126.349L85.4657 127.617C85.4657 127.617 77.2541 142.1 77.1158 147.77C77.1158 147.77 79.0519 146.249 79.605 145.972C79.605 145.972 75.7329 155.1 75.4563 159.663C75.4563 159.663 78.6398 156.733 80.4361 156.124L79.3575 156.648C79.3575 156.648 68.5418 174.46 69.3716 189.534C69.3716 189.534 71.0311 183.587 73.7969 180.821C73.7969 180.821 69.6482 187.874 70.8928 196.725C70.8928 196.725 71.5842 189.949 73.1054 188.842C73.1054 188.842 70.6162 211.66 78.3604 219.404C78.3604 219.404 77.5307 215.532 77.669 212.351C77.669 212.351 80.1305 230.882 106.281 240.701C106.281 240.701 106.018 239.733 105.327 237.797C105.327 237.797 113.071 242.775 118.741 244.02C118.741 244.02 118.493 244.253 117.512 241.579L116.113 240.701C129.804 249.551 141.559 249.828 141.559 249.828C141.144 249.413 140.978 248.422 140.978 248.422L138.24 247.477C146.399 250.658 155.664 250.658 155.664 250.658C155.111 250.243 154.835 248.998 154.835 248.998C159.122 249.828 163.685 248.998 163.685 248.998C163.132 248.86 163.27 247.615 163.27 247.615C175.025 248.168 184.152 244.435 184.152 244.435C184.152 245.679 183.046 246.647 183.046 246.647C192.449 244.711 203.098 235.722 203.098 235.722C203.236 236.69 202.821 238.35 202.821 238.35C224.118 228.255 235.181 195.342 234.075 185.938C232.968 176.534 226.469 166.301 226.469 166.301L227.99 168.375C230.064 169.205 232.692 172.109 232.692 172.109C232.83 165.748 222.32 150.536 222.32 150.536C222.32 150.536 223.426 140.026 221.767 139.195C220.107 138.364 217.48 135.324 217.48 135.324C218.448 136.016 221.214 135.601 221.214 135.601C218.448 134.218 214.576 127.892 214.576 127.892C218.724 130.694 221.767 129.378 221.767 129.378C217.618 125.506 214.023 113.369 214.023 113.369L209.597 109.879C216.373 116.24 219.554 114.996 219.554 114.996C216.927 113.059 210.416 95.0458 210.416 95.0458L208.243 94.2161C210.347 94.4567 214.023 97.571 214.023 97.571C213.469 94.8052 210.817 90.8626 210.817 90.8626L207.8 89.1353C214.437 93.5606 216.373 91.2097 216.373 91.2097C213.608 89.5502 208.353 82.2209 208.353 82.2209C208.353 82.2209 222.597 43.0849 221.905 39.4894C221.214 35.8938 222.497 31.4727 222.497 31.4727C223.78 33.5512 225.086 33.2663 225.086 33.2663C224.533 32.5749 223.979 30.6388 223.841 29.1176C223.703 27.5965 224.671 24.8307 224.394 22.2032C224.118 19.5757 222.32 10.7251 211.257 9.6188C200.194 8.51248 192.588 14.5972 188.301 17.5013C184.014 20.4054 178.62 21.5117 178.62 21.5117C180.003 22.8946 183.599 23.3095 183.599 23.3095C173.365 31.0537 166.925 49.4462 166.925 49.4462" fill="#FFF2C9"/>
<path d="M193.276 13.9072C192.17 7.96071 188.851 3.39715 181.107 1.18452C173.363 -1.02812 167.416 2.98228 159.672 6.85439C151.928 10.7265 146.534 8.79045 146.534 8.79045C149.992 13.7689 154.694 11.6945 154.694 11.6945L153.864 11.9711C149.715 14.4603 140.45 25.3852 139.343 26.7681C138.237 28.151 132.705 30.9168 132.705 30.9168C133.812 31.8848 136.954 31.2971 136.954 31.2971L138.099 30.5019C131.323 34.9272 129.525 40.7354 129.525 40.7354C130.908 39.2142 135.056 36.8632 135.056 36.8632L134.088 37.4164C128.972 43.5011 127.589 61.2022 127.589 61.2022L137.822 58.6964C137.822 58.6964 128.753 60.1803 124.23 62.7649C119.706 65.3495 116.856 68.1319 113.165 71.5809C109.474 75.0298 104.369 78.7373 100.698 79.7192C100.698 79.7192 104.712 80.8739 106.401 80.5102L109.821 79.1536C109.821 79.1536 96.7889 82.4808 87.7807 108.764C87.7807 108.764 90.942 104.733 93.4326 104.403L91.6514 105.127C91.6514 105.127 87.2096 112.783 85.6884 116.517C84.1672 120.251 81.9573 124.399 80.4348 125.782C80.4348 125.782 83.3637 127.281 86.8777 122.867L84.3539 125.205C84.3539 125.205 83.7869 128.031 83.148 128.289C83.148 128.289 86.832 127.471 87.7821 126.349L85.4657 127.617C85.4657 127.617 77.2541 142.1 77.1158 147.77C77.1158 147.77 79.0519 146.249 79.605 145.972C79.605 145.972 75.7329 155.1 75.4563 159.663C75.4563 159.663 78.6398 156.733 80.4361 156.124L79.3575 156.648C79.3575 156.648 68.5418 174.46 69.3716 189.534C69.3716 189.534 71.0311 183.587 73.7969 180.821C73.7969 180.821 69.6482 187.874 70.8928 196.725C70.8928 196.725 71.5842 189.949 73.1054 188.842C73.1054 188.842 70.6162 211.66 78.3604 219.404C78.3604 219.404 77.5307 215.532 77.669 212.351C77.669 212.351 80.1305 230.882 106.281 240.701C106.281 240.701 106.018 239.733 105.327 237.797C105.327 237.797 113.071 242.775 118.741 244.02C118.741 244.02 118.493 244.253 117.512 241.579L116.113 240.701C129.804 249.551 141.559 249.828 141.559 249.828C141.144 249.413 140.978 248.422 140.978 248.422L138.24 247.477C146.399 250.658 155.664 250.658 155.664 250.658C155.111 250.243 154.835 248.998 154.835 248.998C159.122 249.828 163.685 248.998 163.685 248.998C163.132 248.86 163.27 247.615 163.27 247.615C175.025 248.168 184.152 244.435 184.152 244.435C184.152 245.679 183.046 246.647 183.046 246.647C192.449 244.711 203.098 235.722 203.098 235.722C203.236 236.69 202.821 238.35 202.821 238.35C224.118 228.255 235.181 195.342 234.075 185.938C232.968 176.534 226.469 166.301 226.469 166.301L227.99 168.375C230.064 169.205 232.692 172.109 232.692 172.109C232.83 165.748 222.32 150.536 222.32 150.536C222.32 150.536 223.426 140.026 221.767 139.195C220.107 138.364 217.48 135.324 217.48 135.324C218.448 136.016 221.214 135.601 221.214 135.601C218.448 134.218 214.576 127.892 214.576 127.892C218.724 130.694 221.767 129.378 221.767 129.378C217.618 125.506 214.023 113.369 214.023 113.369L209.597 109.879C216.373 116.24 219.554 114.996 219.554 114.996C216.927 113.059 210.416 95.0458 210.416 95.0458L208.243 94.2161C210.347 94.4567 214.023 97.571 214.023 97.571C213.469 94.8052 210.817 90.8626 210.817 90.8626L207.8 89.1353C214.437 93.5606 216.373 91.2097 216.373 91.2097C213.608 89.5502 208.353 82.2209 208.353 82.2209C208.353 82.2209 222.597 43.0849 221.905 39.4894C221.214 35.8938 222.497 31.4727 222.497 31.4727C223.78 33.5512 225.086 33.2663 225.086 33.2663C224.533 32.5749 223.979 30.6388 223.841 29.1176C223.703 27.5965 224.671 24.8307 224.394 22.2032C224.118 19.5757 222.32 10.7251 211.257 9.6188C200.194 8.51248 192.588 14.5972 188.301 17.5013C184.014 20.4054 178.62 21.5117 178.62 21.5117C180.003 22.8946 183.599 23.3095 183.599 23.3095C173.365 31.0537 166.925 49.4462 166.925 49.4462" stroke="black" stroke-width="1.10632" stroke-linecap="round" stroke-linejoin="round"/>
<path d="M220.981 199.296C213.218 209.127 203.947 217.763 193.594 224.813C194.617 224.261 195.007 222.79 194.392 221.803C187.431 228.547 179.221 233.996 170.303 237.792C171.167 237.403 171.773 236.499 171.805 235.551C166.602 238.314 160.84 240.014 154.971 240.516C155.285 240.123 155.599 239.73 155.912 239.339C145.628 242.922 134.335 240.766 123.666 238.578C124.255 238.594 124.848 238.386 125.301 238.009C119.41 236.866 113.618 235.204 108.017 233.048C108.223 233.597 108.429 234.146 108.635 234.697C104.225 232.061 98.4296 231.92 93.8965 234.34C97.716 237.021 101.928 239.144 106.355 240.62C106.29 239.816 106.224 239.014 106.159 238.211C110.063 240.463 114.123 242.445 118.299 244.14C118.208 243.47 118.118 242.799 118.027 242.128C124.813 246.068 132.322 248.761 140.064 250.03C140.518 250.105 141.013 250.167 141.41 249.936C141.807 249.705 141.966 249.053 141.584 248.797C145.729 250.202 150.135 250.832 154.507 250.646C155.307 250.611 156.359 249.715 155.669 249.31C157.793 249.46 159.916 249.611 162.04 249.762C162.985 249.828 164.381 249.093 163.748 248.389C163.615 248.242 163.323 248.202 163.254 248.389C163.185 248.574 163.626 248.569 163.487 248.479C164.374 247.646 165.739 247.689 166.955 247.728C172.871 247.914 178.824 246.785 184.26 244.441C184.278 245.28 183.913 246.119 183.287 246.678C190.712 245.299 196.997 240.544 202.977 235.93C203.365 236.183 203.145 236.774 202.963 237.2C202.78 237.626 202.891 238.342 203.349 238.262C209.039 235.149 214.081 230.856 218.2 225.794C217.574 224.534 217.037 223.184 217.045 221.779C217.052 220.655 217.408 219.562 217.525 218.445C217.608 217.643 217.566 216.832 217.576 216.026C217.631 211.369 219.39 206.914 221.258 202.648C221.662 201.726 222.051 200.578 221.431 199.784C221.264 199.57 221.025 199.386 220.978 199.299L220.981 199.296Z" fill="#FFEDA9"/>
<path d="M88.279 222.917C86.0304 221.776 84.3087 219.809 82.9009 217.719C81.4931 215.628 80.3426 213.369 78.8891 211.309C78.7177 211.065 78.4563 210.793 78.1714 210.884C77.8838 210.977 77.834 211.357 77.8464 211.659C78.0193 215.633 80.0688 219.252 82.0712 222.69C82.3768 223.214 82.735 223.783 83.3158 223.957C83.7708 224.094 84.2576 223.954 84.7125 223.816C85.9087 223.451 87.1036 223.086 88.2776 222.917H88.279Z" fill="#FFEDA9"/>
<path d="M77.8381 213.903C76.9337 212.701 76.4414 211.242 76.0763 209.782C75.7001 208.277 75.4429 206.743 75.3074 205.199C74.8413 199.87 75.8287 194.477 75.1636 189.17C75.1221 188.833 75.0654 188.479 74.8552 188.214C74.645 187.948 74.2287 187.814 73.9591 188.02C73.8374 188.113 73.7668 188.254 73.7046 188.394C72.9357 190.1 72.9316 192.038 72.9399 193.909C72.9495 195.871 72.9578 197.833 72.9675 199.796C72.9814 202.77 72.9993 205.774 73.6548 208.677C74.0932 210.62 74.8123 212.487 75.5383 214.342C76.0611 215.678 76.6018 217.033 77.4882 218.162C77.5463 218.237 77.6141 218.314 77.7067 218.336C77.9515 218.394 78.0801 218.057 78.0953 217.807C78.1949 216.155 78.2239 214.413 77.8409 213.905L77.8381 213.903Z" fill="#FFEDA9"/>
<path d="M72.3134 190.873C71.7699 190.186 72.1917 189.194 72.5651 188.4C73.4225 186.576 73.9327 184.613 74.4375 182.663C74.4997 182.425 74.5606 182.176 74.5066 181.937C74.4527 181.697 74.2411 181.475 73.9964 181.495C73.8318 181.509 73.6963 181.625 73.5815 181.743C72.8817 182.459 72.518 183.43 72.1778 184.373C71.3357 186.705 70.5128 189.106 70.5336 191.585C70.5364 191.934 70.7064 192.408 71.0466 192.332C71.1379 192.311 71.2154 192.25 71.2859 192.188C71.8418 191.701 72.2664 191.067 72.3148 190.872L72.3134 190.873Z" fill="#FFEDA9"/>
<path d="M70.9874 185.665C71.1146 184.864 71.5945 184.173 71.9416 183.44C72.6607 181.92 72.8045 180.197 72.8667 178.517C72.8764 178.244 72.8833 177.959 72.7699 177.712C72.6565 177.464 72.3869 177.264 72.1214 177.324C71.8959 177.376 71.748 177.584 71.6263 177.779C69.9917 180.395 69.144 183.494 69.2173 186.576C69.22 186.67 69.2228 186.768 69.2657 186.854C69.3971 187.121 69.7926 187.092 70.0581 186.959C70.8795 186.547 71.2764 185.616 70.9874 185.665Z" fill="#FFEDA9"/>
<path d="M193.276 13.9072C192.17 7.96071 188.851 3.39715 181.107 1.18452C173.363 -1.02812 167.416 2.98228 159.672 6.85439C151.928 10.7265 146.534 8.79045 146.534 8.79045C149.992 13.7689 154.694 11.6945 154.694 11.6945L153.864 11.9711C149.715 14.4603 140.45 25.3852 139.343 26.7681C138.237 28.151 132.705 30.9168 132.705 30.9168C133.812 31.8848 136.954 31.2971 136.954 31.2971L138.099 30.5019C131.323 34.9272 129.525 40.7354 129.525 40.7354C130.908 39.2142 135.056 36.8632 135.056 36.8632L134.088 37.4164C128.972 43.5011 127.589 61.2022 127.589 61.2022L137.822 58.6964C137.822 58.6964 128.753 60.1803 124.23 62.7649C119.706 65.3495 116.856 68.1319 113.165 71.5809C109.474 75.0298 104.369 78.7373 100.698 79.7192C100.698 79.7192 104.712 80.8739 106.401 80.5102L109.821 79.1536C109.821 79.1536 96.7889 82.4808 87.7807 108.764C87.7807 108.764 90.942 104.733 93.4326 104.403L91.6514 105.127C91.6514 105.127 87.2096 112.783 85.6884 116.517C84.1672 120.251 81.9573 124.399 80.4348 125.782C80.4348 125.782 83.3637 127.281 86.8777 122.867L84.3539 125.205C84.3539 125.205 83.7869 128.031 83.148 128.289C83.148 128.289 86.832 127.471 87.7821 126.349L85.4657 127.617C85.4657 127.617 77.2541 142.1 77.1158 147.77C77.1158 147.77 79.0519 146.249 79.605 145.972C79.605 145.972 75.7329 155.1 75.4563 159.663C75.4563 159.663 78.6398 156.733 80.4361 156.124L79.3575 156.648C79.3575 156.648 68.5418 174.46 69.3716 189.534C69.3716 189.534 71.0311 183.587 73.7969 180.821C73.7969 180.821 69.6482 187.874 70.8928 196.725C70.8928 196.725 71.5842 189.949 73.1054 188.842C73.1054 188.842 70.6162 211.66 78.3604 219.404C78.3604 219.404 77.5307 215.532 77.669 212.351C77.669 212.351 80.1305 230.882 106.281 240.701C106.281 240.701 106.018 239.733 105.327 237.797C105.327 237.797 113.071 242.775 118.741 244.02C118.741 244.02 118.493 244.253 117.512 241.579L116.113 240.701C129.804 249.551 141.559 249.828 141.559 249.828C141.144 249.413 140.978 248.422 140.978 248.422L138.24 247.477C146.399 250.658 155.664 250.658 155.664 250.658C155.111 250.243 154.835 248.998 154.835 248.998C159.122 249.828 163.685 248.998 163.685 248.998C163.132 248.86 163.27 247.615 163.27 247.615C175.025 248.168 184.152 244.435 184.152 244.435C184.152 245.679 183.046 246.647 183.046 246.647C192.449 244.711 203.098 235.722 203.098 235.722C203.236 236.69 202.821 238.35 202.821 238.35C224.118 228.255 235.181 195.342 234.075 185.938C232.968 176.534 226.469 166.301 226.469 166.301L227.99 168.375C230.064 169.205 232.692 172.109 232.692 172.109C232.83 165.748 222.32 150.536 222.32 150.536C222.32 150.536 223.426 140.026 221.767 139.195C220.107 138.364 217.48 135.324 217.48 135.324C218.448 136.016 221.214 135.601 221.214 135.601C218.448 134.218 214.576 127.892 214.576 127.892C218.724 130.694 221.767 129.378 221.767 129.378C217.618 125.506 214.023 113.369 214.023 113.369L209.597 109.879C216.373 116.24 219.554 114.996 219.554 114.996C216.927 113.059 210.416 95.0458 210.416 95.0458L208.243 94.2161C210.347 94.4567 214.023 97.571 214.023 97.571C213.469 94.8052 210.817 90.8626 210.817 90.8626L207.8 89.1353C214.437 93.5606 216.373 91.2097 216.373 91.2097C213.608 89.5502 208.353 82.2209 208.353 82.2209C208.353 82.2209 222.597 43.0849 221.905 39.4894C221.214 35.8938 222.497 31.4727 222.497 31.4727C223.78 33.5512 225.086 33.2663 225.086 33.2663C224.533 32.5749 223.979 30.6388 223.841 29.1176C223.703 27.5965 224.671 24.8307 224.394 22.2032C224.118 19.5757 222.32 10.7251 211.257 9.6188C200.194 8.51248 192.588 14.5972 188.301 17.5013C184.014 20.4054 178.62 21.5117 178.62 21.5117C180.003 22.8946 183.599 23.3095 183.599 23.3095C173.365 31.0537 166.925 49.4462 166.925 49.4462" stroke="black" stroke-width="1.10632" stroke-linecap="round" stroke-linejoin="round"/>
<path d="M152.562 99.7714C145.007 97.9861 139.969 105.357 137.867 109.919C135.471 115.119 134.671 121.136 134.442 123.437C134.399 123.863 134.793 124.2 135.208 124.091C136.592 123.726 139.835 123.324 146.115 124.676C152.208 125.988 155.25 127.528 156.374 128.202C156.676 128.384 157.064 128.276 157.232 127.967C158.056 126.438 160.165 122.031 160.497 116.379C161.018 107.517 158.752 101.236 152.563 99.7714H152.562Z" fill="white" stroke="black" stroke-width="1.10632" stroke-linecap="round" stroke-linejoin="round"/>
<path d="M145.28 104.348C138.926 103.466 137.197 110.983 136.165 114.28C134.99 118.038 134.952 122.227 134.988 123.823C134.995 124.119 135.287 124.318 135.557 124.209C136.454 123.847 138.595 123.307 142.918 123.726C147.112 124.132 152.247 126.561 152.333 126.336C152.759 125.221 153.822 120.418 153.577 116.517C153.193 110.401 150.258 105.039 145.28 104.348Z" fill="black"/>
<path d="M140.171 106.699C140.171 106.699 143.233 106.619 145.819 109.779C145.819 109.779 140.218 109.747 137.82 110.848C137.82 110.848 138.373 109.742 139.065 108.497C139.549 107.626 140.171 106.699 140.171 106.699Z" fill="white"/>
<path d="M125.835 112.183C125.538 103.31 122.701 97.2644 116.404 96.378C108.718 95.2965 104.379 103.1 102.708 107.837C100.8 113.235 100.5 118.768 100.482 121.082L102.43 121.881C102.43 121.881 105.599 120.529 110.716 121.082C116.231 121.678 119.981 123.295 119.981 123.295C119.981 122.88 120.258 121.912 120.442 121.482C120.626 121.052 121.226 120.391 121.843 119.847C122.459 119.304 123.024 119.284 123.618 119.131C124.213 118.977 125.236 119.284 125.236 119.284V118.731C125.527 117.049 125.904 114.241 125.835 112.183Z" fill="white" stroke="black" stroke-width="1.10632" stroke-linecap="round" stroke-linejoin="round"/>
<path d="M109.303 101.606C102.895 101.313 101.866 108.957 101.143 112.336C100.318 116.187 100.853 120.05 101.036 121.636C101.071 121.929 101.47 122.183 101.727 122.051C102.588 121.607 104.394 121.102 108.736 121.12C113.078 121.138 118.286 123.082 118.351 122.85C118.674 121.701 119.289 116.819 118.686 112.958C117.739 106.902 114.323 101.835 109.302 101.606H109.303Z" fill="black"/>
<path d="M104.427 104.419C104.427 104.419 107.468 104.056 110.335 106.965C110.335 106.965 104.755 107.449 102.469 108.767C102.469 108.767 102.918 107.615 103.491 106.311C103.893 105.398 104.427 104.419 104.427 104.419Z" fill="white"/>
<path d="M150.687 134.635C150.687 134.635 153.867 126.614 167.005 127.444" stroke="black" stroke-width="1.10632" stroke-linecap="round" stroke-linejoin="round"/>
<path d="M156.078 88.9983C156.078 88.9983 166.468 84.544 167.841 103.711" stroke="black" stroke-width="1.10632" stroke-linecap="round" stroke-linejoin="round"/>
<path d="M105.048 94.2544C105.048 94.2544 113.106 81.0035 118.481 85.0706" stroke="black" stroke-width="1.10632" stroke-linecap="round" stroke-linejoin="round"/>
<path d="M128.42 121.774C128.42 121.774 126.345 119.7 125.239 119.285C124.133 118.87 122.058 119.008 120.676 121.082C119.356 123.063 120.399 125.634 121.09 126.199C121.948 126.902 123.75 127.896 124.079 128.292" stroke="black" stroke-width="1.10632" stroke-linecap="round" stroke-linejoin="round"/>
<path d="M96.1973 120.668C96.1973 120.668 101.452 118.871 104.218 125.785" stroke="black" stroke-width="1.10632" stroke-linecap="round" stroke-linejoin="round"/>
<path d="M102.43 121.881L100.482 121.082" stroke="black" stroke-width="1.10632" stroke-linecap="round" stroke-linejoin="round"/>
<path d="M112.4 138.789C112.766 134.765 111.197 131.333 108.896 131.124C106.595 130.915 104.434 134.008 104.068 138.032C103.703 142.057 105.271 145.489 107.572 145.698C109.873 145.907 112.035 142.814 112.4 138.789Z" fill="black"/>
<path d="M121.738 131.009C121.738 131.009 120.537 132.699 118.324 132.699C116.111 132.699 112.862 130.637 111.824 130.071C110.303 129.242 108.12 129.159 106.846 129.795C105.186 130.624 102.58 133.165 102.432 137.702C102.282 142.241 103.527 146.943 107.261 147.357C110.995 147.772 112.938 146.59 114.867 146.804C116.111 146.943 117.633 147.219 118.739 148.74" stroke="black" stroke-width="1.10632" stroke-linecap="round" stroke-linejoin="round"/>
<path d="M106.779 165.818C105.887 164.044 103.726 163.328 101.952 164.22C100.178 165.111 99.4621 167.272 100.354 169.047L113.024 194.262C113.916 196.036 116.077 196.751 117.852 195.86C119.626 194.968 120.341 192.807 119.45 191.033L106.779 165.818Z" fill="#FFE372" stroke="black" stroke-width="1.10632" stroke-linecap="round" stroke-linejoin="round"/>
<path d="M131.213 191.07C130.042 192.674 130.394 194.923 131.998 196.093C133.602 197.264 135.851 196.913 137.022 195.308L145.559 183.609C146.73 182.005 146.378 179.756 144.774 178.585C143.17 177.415 140.921 177.766 139.75 179.37L131.213 191.07Z" fill="#FFE372" stroke="black" stroke-width="1.10632" stroke-linecap="round" stroke-linejoin="round"/>
<path d="M123.573 206.96C125.941 206.96 127.86 205.04 127.86 202.673C127.86 200.305 125.941 198.386 123.573 198.386C121.205 198.386 119.286 200.305 119.286 202.673C119.286 205.04 121.205 206.96 123.573 206.96Z" fill="#FFE372" stroke="black" stroke-width="1.10632" stroke-linecap="round" stroke-linejoin="round"/>
<path d="M104.489 166.856C104.489 168.079 103.499 169.069 102.276 169.069C101.89 169.069 101.529 168.971 101.214 168.798C100.528 168.422 100.063 167.693 100.063 166.856C100.063 165.634 101.054 164.644 102.276 164.644C103.499 164.644 104.489 165.634 104.489 166.856Z" fill="white"/>
<path d="M101.389 164.921C101.389 164.921 104.491 163.262 106.15 165.889C106.15 165.889 104.156 163.989 102.318 165.147" fill="white"/>
<path d="M101.31 168.101C101.31 168.101 113.756 193.408 114.309 194.099C114.863 194.791 115.416 195.897 116.66 195.897C116.66 195.897 114.448 196.174 113.341 194.376C112.235 192.578 99.7891 167.548 99.7891 167.548L101.31 168.101Z" fill="white"/>
<path d="M143.211 179.551C143.211 180.3 142.604 180.908 141.855 180.908C141.618 180.908 141.397 180.847 141.203 180.742C140.783 180.511 140.498 180.064 140.498 179.551C140.498 178.801 141.105 178.194 141.855 178.194C142.604 178.194 143.211 178.801 143.211 179.551Z" fill="white"/>
<path d="M142.582 178.192C142.582 178.192 145.978 177.92 145.978 181.93C145.978 181.93 145.27 178.487 142.582 178.757V178.192Z" fill="white"/>
<path d="M141.002 179.164C141.002 179.164 131.737 191.748 131.46 192.301C131.184 192.855 131.046 193.546 131.184 194.514C131.184 194.514 129.97 193.131 131.13 191.679C132.29 190.227 140.502 178.832 140.502 178.832L141.004 179.164H141.002Z" fill="white"/>
<path d="M123.755 199.75C123.995 200.352 123.621 201.067 122.92 201.346C122.699 201.435 122.472 201.469 122.256 201.455C121.789 201.426 121.379 201.175 121.215 200.763C120.976 200.161 121.349 199.446 122.05 199.167C122.751 198.887 123.515 199.149 123.754 199.75H123.755Z" fill="white"/>
<path d="M160.781 57.33C160.781 57.33 156.909 49.1709 147.644 48.8944C147.644 48.8944 153.175 42.6713 160.09 45.7137C167.004 48.7561 168.664 53.5962 168.664 53.5962C168.664 53.5962 173.78 50.5538 179.174 53.1813C184.567 55.8088 183.599 59.2661 183.599 59.2661C183.599 59.2661 179.035 56.6386 174.333 58.1598" stroke="black" stroke-width="1.10632" stroke-linecap="round" stroke-linejoin="round"/>
<path d="M166.451 59.2665C166.451 59.2665 172.677 54.9796 177.517 60.5111C177.517 60.5111 173.645 60.2346 171.432 62.3089" stroke="black" stroke-width="1.10632" stroke-linecap="round" stroke-linejoin="round"/>
<path d="M173.963 60.9297C173.963 60.9297 180.138 62.5103 183.665 67.1112" stroke="black" stroke-width="1.10632" stroke-linecap="round" stroke-linejoin="round"/>
<path d="M255.342 180.392C259.416 170.784 255.761 163.794 253.683 159.787C251.746 156.053 244.832 144.713 226.439 140.426C208.047 136.139 197.122 146.511 197.122 146.511L198.367 157.712C198.367 157.712 214.086 145.738 229.344 152.319C243.449 158.404 245.8 168.499 245.8 175.69C245.8 175.69 248.82 182.864 255.342 180.392Z" fill="#FFF2C9"/>
<path d="M197.146 146.528C197.146 146.528 208.07 136.156 226.463 140.443C244.855 144.73 251.77 156.069 253.706 159.803C255.784 163.811 259.238 173.356 255.365 180.408" stroke="black" stroke-width="1.10632" stroke-linecap="round" stroke-linejoin="round"/>
<path d="M198.387 157.729C198.387 157.729 214.106 145.754 229.364 152.335C243.469 158.42 247.065 167.824 245.82 175.706" stroke="black" stroke-width="1.10632" stroke-linecap="round" stroke-linejoin="round"/>
<path d="M249.293 214.93C248.198 215.847 245.867 215.985 245.867 215.985L245.963 212.908C245.41 218.163 246.931 222.865 248.867 227.152C250.803 231.439 249.143 236.141 245.548 236.279C241.952 236.418 237.665 235.449 235.315 226.876C232.964 218.302 236.836 211.94 236.836 211.94L234.9 216.366C230.889 216.227 230.412 213.496 230.412 213.496L231.545 209.338C230.126 210.884 230.198 216.227 230.613 220.099C230.777 221.637 231.857 226.184 231.442 230.056C231.028 233.928 228.538 235.449 226.602 235.449C224.666 235.449 219.688 235.173 217.613 223.971C215.539 212.77 222.454 199.494 222.454 199.494L221.624 200.462C220.794 199.079 221.071 197.282 221.071 197.282C221.071 197.282 212.22 200.186 205.306 197.835C198.391 195.484 199.636 190.505 200.88 188.431C202.125 186.357 206.135 185.665 208.348 187.186C210.561 188.708 218.305 189.952 220.656 189.952C223.007 189.952 222.73 188.569 230.474 186.08C238.219 183.591 244.442 187.048 244.442 187.048L239.463 185.389C239.463 185.389 238.08 184.282 237.942 182.208C237.804 180.134 239.502 176.708 242.644 176.123C247.102 175.293 253.292 176.815 256.611 183.038C259.93 189.261 252.739 191.058 252.739 191.058C261.866 200.739 256.122 209.307 256.122 209.307L255.367 207.377C255.92 210.696 260.345 213.738 265.267 215.985C270.188 218.232 271.132 222.727 267.536 225.354C263.94 227.982 258.547 226.046 255.781 223.28C251.631 219.13 248.452 212.355 248.452 212.355" fill="white"/>
<path d="M249.293 214.93C248.198 215.847 245.867 215.985 245.867 215.985L245.963 212.908C245.41 218.163 246.931 222.865 248.867 227.152C250.803 231.439 249.143 236.141 245.548 236.279C241.952 236.418 237.665 235.449 235.315 226.876C232.964 218.302 236.836 211.94 236.836 211.94L234.9 216.366C230.889 216.227 230.412 213.496 230.412 213.496L231.545 209.338C230.126 210.884 230.198 216.227 230.613 220.099C230.777 221.637 231.857 226.184 231.442 230.056C231.028 233.928 228.538 235.449 226.602 235.449C224.666 235.449 219.688 235.173 217.613 223.971C215.539 212.77 222.454 199.494 222.454 199.494L221.624 200.462C220.794 199.079 221.071 197.282 221.071 197.282C221.071 197.282 212.22 200.186 205.306 197.835C198.391 195.484 199.636 190.505 200.88 188.431C202.125 186.357 206.135 185.665 208.348 187.186C210.561 188.708 218.305 189.952 220.656 189.952C223.007 189.952 222.73 188.569 230.474 186.08C238.219 183.591 244.442 187.048 244.442 187.048L239.463 185.389C239.463 185.389 238.08 184.282 237.942 182.208C237.804 180.134 239.502 176.708 242.644 176.123C247.102 175.293 253.292 176.815 256.611 183.038C259.93 189.261 252.739 191.058 252.739 191.058C261.866 200.739 256.122 209.307 256.122 209.307L255.367 207.377C255.92 210.696 260.345 213.738 265.267 215.985C270.188 218.232 271.132 222.727 267.536 225.354C263.94 227.982 258.547 226.046 255.781 223.28C251.631 219.13 248.452 212.355 248.452 212.355" stroke="black" stroke-width="1.10632" stroke-linecap="round" stroke-linejoin="round"/>
<path d="M256.14 196.247C256.977 199.023 256.953 202.052 256.071 204.814C255.868 205.449 255.62 206.074 255.521 206.732C255.42 207.39 255.482 208.104 255.857 208.654C255.911 208.733 255.973 208.811 256.061 208.848C256.328 208.96 256.57 208.65 256.685 208.383C257.226 207.129 257.513 205.782 257.797 204.446C258.015 203.416 258.235 202.364 258.116 201.317C258.02 200.469 257.703 199.664 257.389 198.872C257.045 198.002 256.702 197.131 256.142 196.247H256.14Z" fill="#D7D7D7"/>
<path d="M240.459 185.513C239.663 185.108 238.912 184.386 238.918 183.494C238.922 182.769 239.45 182.12 240.103 181.804C240.756 181.487 241.51 181.454 242.231 181.516C243.06 181.588 243.877 181.779 244.651 182.082C245.055 182.239 245.459 182.437 245.737 182.77C245.971 183.05 246.095 183.402 246.204 183.749C246.402 184.376 246.568 185.038 246.452 185.686C246.336 186.333 245.863 186.956 245.213 187.055C244.873 187.106 244.53 187.013 244.199 186.92C242.753 186.515 241.381 185.984 240.459 185.513Z" fill="#D7D7D7"/>
<path d="M248.293 212.543C247.828 213.041 247.153 213.337 246.473 213.343C246.24 213.344 245.955 213.341 245.842 213.543C245.801 213.617 245.792 213.702 245.785 213.787C245.752 214.166 245.719 214.544 245.686 214.922C245.665 215.167 245.653 215.442 245.813 215.627C245.95 215.785 246.173 215.831 246.38 215.851C247.153 215.926 247.948 215.759 248.626 215.38C249.067 215.132 249.498 214.702 249.427 214.201C249.395 213.979 249.268 213.784 249.14 213.599C248.861 213.186 248.572 212.781 248.293 212.542V212.543Z" fill="#D7D7D7"/>
<path d="M236.164 213.071C235.257 212.977 234.441 212.464 233.763 211.853C233.086 211.242 232.513 210.523 231.852 209.893C231.74 209.787 231.599 209.675 231.448 209.707C231.289 209.74 231.208 209.913 231.151 210.065C230.906 210.73 230.707 211.412 230.555 212.105C230.472 212.481 230.403 212.864 230.417 213.25C230.458 214.471 231.341 215.544 232.416 216.125C232.852 216.36 233.333 216.533 233.828 216.538C234.323 216.544 234.834 216.367 235.162 215.996C235.434 215.688 235.558 215.28 235.675 214.886C235.863 214.254 236.049 213.622 236.163 213.073L236.164 213.071Z" fill="#D7D7D7"/>
<path d="M249.079 212.666C249.014 212.27 249.09 211.696 249.491 211.701C249.619 211.703 249.735 211.775 249.838 211.849C250.833 212.575 251.3 213.798 251.803 214.921C252.806 217.155 254.159 219.256 255.941 220.935C257.724 222.614 259.956 223.858 262.369 224.273C264.252 224.597 266.289 224.385 267.887 223.337C268.702 222.802 269.435 221.852 269.138 220.922C269.04 220.617 268.845 220.26 269.162 220.015C269.729 220.416 269.932 221.191 269.824 221.877C269.716 222.562 269.351 223.178 268.968 223.756C268.567 224.362 268.13 224.956 267.564 225.413C266.324 226.414 264.613 226.63 263.027 226.479C261.947 226.377 260.881 226.123 259.871 225.728C257.133 224.658 254.879 222.579 253.156 220.196C251.433 217.814 249.513 215.327 249.078 212.666H249.079Z" fill="#D7D7D7"/>
<path d="M236.993 212.892C237.206 212.885 237.419 212.877 237.632 212.87C238.039 213.383 237.794 214.129 237.566 214.743C235.957 219.068 236.003 223.986 237.691 228.28C238.045 229.18 238.47 230.057 239.023 230.851C241.085 233.817 244.986 235.378 248.525 234.651C248.254 235.149 247.781 235.507 247.278 235.768C245.185 236.856 242.525 236.386 240.586 235.045C238.647 233.703 237.337 231.621 236.4 229.457C235.198 226.684 234.522 223.683 234.418 220.663C234.368 219.198 234.453 217.714 234.861 216.308C235.269 214.9 236.015 213.566 236.993 212.892Z" fill="#D7D7D7"/>
<path d="M200.496 190.28C200.514 192.167 201.782 193.879 203.39 194.865C205 195.853 206.91 196.221 208.786 196.416C212.524 196.806 216.324 196.579 219.99 195.749C220.791 195.568 221.785 195.419 222.297 196.06C222.915 196.835 222.272 198.117 222.856 198.919C223.098 199.251 223.52 199.444 223.681 199.823C223.796 200.093 223.753 200.401 223.698 200.689C223.409 202.225 222.879 203.705 222.401 205.193C221.015 209.495 220.028 213.952 219.867 218.469C219.708 222.985 220.398 227.572 222.246 231.697C222.917 233.194 223.871 234.741 225.352 235.276C223.435 234.319 221.434 233.292 220.224 231.525C219.575 230.577 219.198 229.475 218.881 228.372C216.72 220.836 217.182 212.575 220.173 205.328C220.668 204.129 221.232 202.948 221.505 201.68C221.777 200.412 221.729 199.018 221.052 197.912C220.99 197.811 220.921 197.71 220.824 197.641C220.589 197.476 220.27 197.545 219.992 197.617C216.186 198.601 212.199 198.873 208.295 198.417C206.107 198.161 203.851 197.633 202.172 196.21C200.492 194.785 199.586 192.253 200.497 190.278L200.496 190.28Z" fill="#D7D7D7"/>
<path d="M249.293 214.93C248.198 215.847 245.867 215.985 245.867 215.985L245.963 212.908C245.41 218.163 246.931 222.865 248.867 227.152C250.803 231.439 249.143 236.141 245.548 236.279C241.952 236.418 237.665 235.449 235.315 226.876C232.964 218.302 236.836 211.94 236.836 211.94L234.9 216.366C230.889 216.227 230.412 213.496 230.412 213.496L231.545 209.338C230.126 210.884 230.198 216.227 230.613 220.099C230.777 221.637 231.857 226.184 231.442 230.056C231.028 233.928 228.538 235.449 226.602 235.449C224.666 235.449 219.688 235.173 217.613 223.971C215.539 212.77 222.454 199.494 222.454 199.494L221.624 200.462C220.794 199.079 221.071 197.282 221.071 197.282C221.071 197.282 212.22 200.186 205.306 197.835C198.391 195.484 199.636 190.505 200.88 188.431C202.125 186.357 206.135 185.665 208.348 187.186C210.561 188.708 218.305 189.952 220.656 189.952C223.007 189.952 222.73 188.569 230.474 186.08C238.219 183.591 244.442 187.048 244.442 187.048L239.463 185.389C239.463 185.389 238.08 184.282 237.942 182.208C237.804 180.134 239.502 176.708 242.644 176.123C247.102 175.293 253.292 176.815 256.611 183.038C259.93 189.261 252.739 191.058 252.739 191.058C261.866 200.739 256.122 209.307 256.122 209.307L255.367 207.377C255.92 210.696 260.345 213.738 265.267 215.985C270.188 218.232 271.132 222.727 267.536 225.354C263.94 227.982 258.547 226.046 255.781 223.28C251.631 219.13 248.452 212.355 248.452 212.355" stroke="black" stroke-width="1.10632" stroke-linecap="round" stroke-linejoin="round"/>
<path d="M241.077 25.9287C249.731 32.4173 253.581 43.9174 246.666 56.7784C239.752 69.6393 221.419 75.034 221.419 75.034L230.637 53.0999C230.637 53.0999 250.193 39.701 244.385 29.8824" fill="#4E4E4E"/>
<path d="M241.077 25.9287C249.731 32.4173 253.581 43.9174 246.666 56.7784C239.752 69.6393 221.419 75.034 221.419 75.034L230.637 53.0999C230.637 53.0999 250.193 39.701 244.385 29.8824" stroke="black" stroke-width="1.10632" stroke-linecap="round" stroke-linejoin="round"/>
<path d="M224.68 71.2156C232.533 60.5525 232.667 47.319 224.98 41.6577C217.293 35.9964 204.695 40.0512 196.842 50.7143C188.989 61.3774 188.855 74.6109 196.542 80.2722C204.229 85.9335 216.827 81.8787 224.68 71.2156Z" fill="#FF6953" stroke="black" stroke-width="1.10632" stroke-linecap="round" stroke-linejoin="round"/>
<path d="M224.68 71.2156C232.533 60.5525 232.667 47.319 224.98 41.6577C217.293 35.9964 204.695 40.0512 196.842 50.7143C188.989 61.3774 188.855 74.6109 196.542 80.2722C204.229 85.9335 216.827 81.8787 224.68 71.2156Z" stroke="black" stroke-width="1.10632" stroke-linecap="round" stroke-linejoin="round"/>
<path d="M223.582 67.9893C228.007 61.9804 228.883 55.1119 225.537 52.6481C222.192 50.1843 215.892 53.0582 211.467 59.0671C207.042 65.0761 206.166 71.9446 209.512 74.4084C212.857 76.8722 219.157 73.9982 223.582 67.9893Z" fill="#00C575" stroke="black" stroke-width="1.10632" stroke-linecap="round" stroke-linejoin="round"/>
<path d="M66.3276 112.372C66.3276 112.372 71.8592 109.053 72.1357 106.287C72.1357 106.287 72.9226 102.996 71.7001 101.599C71.7001 101.599 79.732 95.1809 79.4609 90.2923C79.1899 85.4052 78.7404 84.2961 78.7404 84.2961C78.7404 84.2961 80.4635 76.0983 78.3754 72.8692C76.2858 69.6402 72.7871 67.9364 71.6324 67.9586C70.4776 67.9807 67.7782 68.213 66.4313 69.4798C66.4313 69.4798 66.3124 65.0503 61.8262 64.0948C57.3401 63.1392 55.0791 64.5055 53.9285 66.1733C52.7766 67.841 52.5263 68.4177 52.5263 68.4177C52.5263 68.4177 47.5492 68.3942 45.8759 75.5852C45.8759 75.5852 42.5819 77.8048 42.1476 78.907C41.7134 80.0091 40.5518 89.2745 40.5518 89.2745C40.5518 89.2745 42.7464 101.174 49.0054 102.9C49.0054 102.9 48.8505 113.323 58.9719 113.885C58.9719 113.885 62.5937 114.445 66.3276 112.37V112.372Z" fill="white"/>
<path d="M72.4168 76.9687C72.4168 76.9687 69.0978 87.3405 60.6594 88.5519C52.2209 89.7633 51.6733 83.7449 53.1945 81.2557C54.2981 79.451 59.141 77.2453 61.2153 75.171C63.2896 73.0966 67.5766 64.661 75.0443 69.3628C82.5119 74.0647 78.7435 84.2953 78.7435 84.2953C83.2725 96.6003 67.737 103.713 67.737 103.713" stroke="black" stroke-width="1.10632" stroke-linecap="round" stroke-linejoin="round"/>
<path d="M52.5293 68.4183C52.5293 68.4183 54.9618 62.3363 60.9387 63.8312C66.4703 65.2141 66.4343 69.4789 66.4343 69.4789" stroke="black" stroke-width="1.10632" stroke-linecap="round" stroke-linejoin="round"/>
<path d="M46.1377 75.586C46.1377 75.586 46.8291 67.5652 53.8819 68.5332C60.9347 69.5012 61.2113 75.1711 61.2113 75.1711" stroke="black" stroke-width="1.10632" stroke-linecap="round" stroke-linejoin="round"/>
<path d="M54.8084 79.6914C54.8084 79.6914 51.9071 74.3396 47.432 75.5842C42.957 76.8288 41.7137 78.7649 41.4372 81.2541C41.1606 83.7433 40.3308 88.3069 40.6074 90.1046C40.884 91.9024 41.7663 103.075 54.8084 104.402" stroke="black" stroke-width="1.10632" stroke-linecap="round" stroke-linejoin="round"/>
<path d="M60.6553 88.5521C60.6553 88.5521 60.8489 93.8223 54.8071 93.6245C48.7652 93.4268 46.1377 84.2969 46.1377 84.2969" stroke="black" stroke-width="1.10632" stroke-linecap="round" stroke-linejoin="round"/>
<path d="M47.0349 86.6436C47.0349 86.6436 45.2385 86.6823 44.7227 85.8359" stroke="black" stroke-width="1.10632" stroke-linecap="round" stroke-linejoin="round"/>
<path d="M49.0084 102.901C49.0084 102.901 48.6308 114.031 59.694 113.892C70.7572 113.754 74.5104 106.22 71.5966 101.413" stroke="black" stroke-width="1.10632" stroke-linecap="round" stroke-linejoin="round"/>
<path d="M47.0349 86.6436C47.0349 86.6436 45.2385 86.6823 44.7227 85.8359Z" fill="black"/>
<path d="M173.728 223.15C173.728 223.15 121.501 227.565 107.533 230.469C93.5661 233.373 57.0577 242.777 49.59 244.852C42.1224 246.926 39.3566 250.66 35.3462 255.915C31.3358 261.17 28.2934 262.553 20.8258 261.585C13.3582 260.617 12.9433 246.373 11.837 239.873C10.7307 233.373 7.13513 231.299 3.67788 225.906C0.220644 220.513 0.220644 212.353 0.912092 205.024C1.60354 197.695 4.09275 195.067 6.1671 195.206C8.24144 195.344 9.20947 202.12 9.20947 202.12L6.99684 195.067C9.48605 190.642 13.3582 190.504 16.6771 192.163C19.9961 193.823 20.1344 200.184 20.1344 200.184L17.9217 192.44C17.9217 192.44 21.1024 189.259 26.634 195.482C34.0504 203.825 36.3142 229.64 37.6971 232.405C39.08 235.171 41.8458 235.724 44.1967 235.033C46.5477 234.342 81.3967 224.246 101.034 220.374C120.671 216.502 171.147 211.109 171.147 211.109L173.728 223.15Z" fill="#FFF2C9"/>
<path d="M171.903 219.046C126.484 222.99 80.7285 228.826 38.0026 244.732C36.2311 245.392 34.4001 246.112 33.1804 247.635C33.2012 245.085 32.8001 242.53 31.998 240.109C31.438 238.419 30.6843 236.79 30.2528 235.063C29.7287 232.959 29.6997 230.768 29.7135 228.601C29.7605 221.293 30.2514 213.862 28.4315 206.784C27.7996 204.327 26.8799 201.913 25.4154 199.842C23.951 197.77 21.9057 196.051 19.4289 195.473C20.0083 197.195 20.3236 199.007 20.325 200.706C19.5699 199.58 18.8135 198.455 18.0584 197.329C16.9438 195.668 15.6453 193.877 13.6954 193.433C12.5407 193.171 11.3058 193.443 10.2713 194.021C9.23832 194.599 8.38923 195.465 7.73097 196.806C8.0435 197.873 8.35465 198.939 8.66719 200.005C8.05871 199.536 7.83192 198.738 7.44333 198.076C7.05473 197.413 6.26233 196.815 5.56812 197.145C5.37589 197.236 5.21963 197.39 5.06751 197.539C3.56153 199.029 1.96706 200.698 1.54804 203.486C-0.587155 211.33 -0.0256987 220.201 4.52403 226.938C6.34392 229.634 8.75154 231.942 10.2008 234.853C12.383 239.239 12.1189 244.388 13.0136 249.204C13.405 251.315 14.0259 253.378 14.7575 255.395C15.1391 256.448 15.5582 257.502 16.204 258.417C17.7459 260.605 20.4674 261.767 23.142 261.869C25.8165 261.971 28.4495 261.126 30.8544 259.951C31.7436 259.517 32.6176 259.03 33.3616 258.378C35.447 256.553 36.3472 253.591 38.86 252.041C42.7514 246.851 49.5428 244.949 55.8336 243.368C66.594 240.665 77.3557 237.961 88.116 235.256C97.0827 233.004 106.07 230.747 115.222 229.43C118.742 228.924 122.28 228.558 125.816 228.193C141.31 226.59 156.806 224.988 172.3 223.386C172.854 223.329 173.441 223.258 173.878 222.911C174.665 222.288 174.588 220.984 173.951 220.206C173.313 219.429 172.298 219.076 171.899 219.046H171.903Z" fill="#FFEDA9"/>
<path d="M171.149 211.108C171.149 211.108 120.673 216.501 101.036 220.373C81.3988 224.245 46.5498 234.34 44.1989 235.032C41.8479 235.723 39.0821 235.17 37.6992 232.404C36.3164 229.639 34.0526 203.824 26.6361 195.481C21.1045 189.258 17.9238 192.439 17.9238 192.439" stroke="black" stroke-width="1.10632" stroke-linecap="round" stroke-linejoin="round"/>
<path d="M20.1336 200.184C20.1336 200.184 19.9953 193.823 16.6764 192.163C13.3574 190.504 9.48531 190.642 6.99609 195.067" stroke="black" stroke-width="1.10632" stroke-linecap="round" stroke-linejoin="round"/>
<path d="M9.20947 202.121C9.20947 202.121 8.24144 195.345 6.1671 195.206C4.09275 195.068 1.60354 197.696 0.912092 205.025C0.220644 212.354 0.220644 220.513 3.67788 225.907C7.13513 231.3 10.7307 233.374 11.837 239.874C12.9433 246.373 13.3582 260.617 20.8258 261.585C28.2934 262.553 31.3358 261.17 35.3462 255.915C39.3566 250.66 42.1224 246.927 49.59 244.852C57.0577 242.778 93.5661 233.374 107.533 230.47C121.501 227.566 173.728 223.151 173.728 223.151" stroke="black" stroke-width="1.10632" stroke-linecap="round" stroke-linejoin="round"/>
<path d="M93.4503 56.436C94.772 54.3322 93.7255 51.2961 91.1128 49.6546C88.5001 48.0131 85.3106 48.3879 83.9889 50.4916C82.6672 52.5954 83.7137 55.6315 86.3264 57.273C88.9391 58.9144 92.1286 58.5397 93.4503 56.436Z" fill="black"/>
<path d="M93.1582 54.7022C93.1582 54.7022 100.764 44.8837 99.3812 34.2354" stroke="black" stroke-width="1.10632" stroke-miterlimit="10" stroke-linecap="round"/>
<path d="M63.4206 51.8429C66.6582 51.0543 68.7778 48.342 68.1549 45.7849C67.532 43.2278 64.4025 41.7941 61.1649 42.5828C57.9273 43.3714 55.8077 46.0837 56.4306 48.6408C57.0535 51.1979 60.183 52.6316 63.4206 51.8429Z" fill="black"/>
<path d="M40.4587 56.8205C43.6962 56.0318 45.8159 53.3196 45.193 50.7624C44.5701 48.2053 41.4406 46.7717 38.203 47.5603C34.9654 48.349 32.8458 51.0612 33.4687 53.6184C34.0915 56.1755 37.2211 57.6091 40.4587 56.8205Z" fill="black"/>
<path d="M44.3395 50.5556C44.3395 50.5556 47.6584 36.7266 41.0205 29.5355C41.0205 29.5355 51.9357 32.3705 59.4766 16.7783C59.4766 16.7783 66.2155 23.5545 67.019 44.8857" stroke="black" stroke-width="1.10632" stroke-linecap="round" stroke-linejoin="round"/>
<path d="M43.71 33.7681C43.71 33.7681 48.3413 36.343 52.0806 33.7681C55.82 31.1931 57.8957 25.9381 58.7254 24.4169C59.5552 22.8957 60.6131 20.5545 61.9504 20.6195" stroke="black" stroke-width="1.10632" stroke-linecap="round" stroke-linejoin="round"/>
<path d="M59.6934 17.5049L61.3999 20.6205C61.3999 20.6205 54.957 31.2177 52.8301 32.8661C50.7032 34.5145 46.5559 35.7591 43.9284 33.4082C41.3009 31.0573 41.9924 29.951 41.9924 29.951C41.9924 29.951 46.1411 30.3658 50.428 28.0149C54.715 25.664 59.6934 17.5049 59.6934 17.5049Z" fill="black"/>
<path d="M20.2389 90.5158C23.4765 89.7271 25.5961 87.0149 24.9733 84.4577C24.3504 81.9006 21.2208 80.467 17.9833 81.2556C14.7457 82.0443 12.626 84.7565 13.2489 87.3137C13.8718 89.8708 17.0013 91.3044 20.2389 90.5158Z" fill="black"/>
<path d="M16.4047 69.3623C16.4047 69.3623 17.3727 70.8834 20.5534 70.3303C23.734 69.7771 24.9786 66.873 25.6701 65.4901C26.3615 64.1072 28.5742 62.3095 28.5742 62.3095C28.5742 62.3095 26.6381 62.3095 24.9786 62.8626C23.3192 63.4158 21.798 65.905 18.4099 65.793C15.0218 65.681 13.3623 60.5117 13.3623 60.5117C13.3623 60.5117 15.0218 70.192 23.4574 83.1912" stroke="black" stroke-width="1.10632" stroke-linecap="round" stroke-linejoin="round"/>
<path d="M14.7445 64.1076L19.1131 65.9939L23.555 64.1076C23.555 64.1076 25.2532 62.5864 27.4658 62.7247L25.137 65.9939C25.137 65.9939 23.8703 69.5009 21.7959 69.7775C19.7216 70.0541 18.4244 70.1923 17.4135 69.7775C16.4026 69.3626 15.9062 67.9576 15.9062 67.9576L14.7432 64.1076H14.7445Z" fill="black"/>
<path d="M106.779 165.818C105.887 164.044 103.726 163.328 101.952 164.22C100.178 165.111 99.4621 167.272 100.354 169.047L113.024 194.262C113.916 196.036 116.077 196.751 117.852 195.86C119.626 194.968 120.341 192.807 119.45 191.033L106.779 165.818Z" stroke="black" stroke-width="1.10632" stroke-linecap="round" stroke-linejoin="round"/>
<path d="M131.213 191.07C130.042 192.674 130.394 194.923 131.998 196.093C133.602 197.264 135.851 196.913 137.022 195.308L145.559 183.609C146.73 182.005 146.378 179.756 144.774 178.585C143.17 177.415 140.921 177.766 139.75 179.37L131.213 191.07Z" stroke="black" stroke-width="1.10632" stroke-linecap="round" stroke-linejoin="round"/>
<path d="M123.573 206.96C125.941 206.96 127.86 205.04 127.86 202.673C127.86 200.305 125.941 198.386 123.573 198.386C121.205 198.386 119.286 200.305 119.286 202.673C119.286 205.04 121.205 206.96 123.573 206.96Z" stroke="black" stroke-width="1.10632" stroke-linecap="round" stroke-linejoin="round"/>
</g>
<defs>
<clipPath id="clip0_5238_23912">
<rect width="270.262" height="307.52" fill="white"/>
</clipPath>
</defs>
</svg>
