<svg width="1400" height="1042" viewBox="0 0 1400 1042" fill="none" xmlns="http://www.w3.org/2000/svg">
<g clip-path="url(#clip0_6482_8289)">
<path d="M358.016 223.027C366.336 232.523 377.982 245.749 370.697 258.819C364.365 270.171 351.371 276.661 340.152 282.05C339.109 282.551 338.091 282.691 337.146 282.592C336.99 282.617 336.826 282.649 336.67 282.666C323.619 284.416 313.977 295.76 303.332 302.406C293.049 308.838 280.672 311.976 271.621 320.314C270.98 320.905 270.299 321.3 269.601 321.53C254.028 339.396 242.086 360.155 234.374 382.54C238.859 383.583 243.162 385.177 247.433 386.951C251.926 388.816 256.574 390.541 260.484 393.49C267.646 398.879 272.352 407.381 275.604 415.686C276.467 416.532 276.976 417.781 276.812 419.432C275.342 434.49 279.383 449.35 274.463 464.103C270.102 477.157 261.552 488.329 251.441 497.504C240.378 507.551 227.672 515.815 215.196 523.964C208.486 528.342 201.71 532.622 194.918 536.861C188.98 540.566 183.042 544.64 176.06 546.02H176.052C183.189 554.333 188.503 564.208 190.072 575.174C192.101 589.459 187.386 601.264 178.82 612.436C178.163 613.298 177.35 614.013 176.446 614.481C170.886 621.316 163.494 626.91 154.903 629.227C144.973 631.913 133.927 629.596 123.865 628.726C123.611 628.701 123.364 628.66 123.126 628.611C122.354 629.235 121.377 629.67 120.186 629.785C113.508 630.467 107.513 627.765 101.369 625.571C95.0862 623.337 88.6799 621.431 82.3147 619.427C72.2617 616.256 62.1841 612.608 51.9094 609.996C50.4228 611.869 47.8274 612.953 45.0924 611.631C34.2017 606.373 24.2062 598.988 16.7157 589.435C3.59102 572.701 -0.844117 549.002 9.7345 529.78C20.502 510.229 42.6366 504.142 63.3175 500.807C58.2335 491.886 53.7655 482.554 51.6548 472.507C48.854 459.216 50.431 445.842 55.6546 433.405C53.9545 427.515 50.9566 422.102 50.0532 415.916C49.0101 408.802 49.0019 401.384 49.9218 394.262C51.7205 380.429 58.8906 368.665 66.3728 357.198C66.6192 356.812 66.8985 356.483 67.1942 356.195C67.2516 356.089 67.3091 355.99 67.3831 355.883C76.9104 342.28 89.8462 332.151 105.295 326.072C106.511 325.588 107.595 325.579 108.515 325.883C115.997 325.136 123.496 324.61 131.011 324.372C138.271 324.15 145.647 323.797 152.669 325.99C159.42 328.093 166.549 330.023 173.046 332.825C177.949 334.936 182.426 337.762 186.787 340.777C189.316 331.083 194.121 321.866 198.532 312.978C203.254 303.449 208.461 294.125 214.597 285.426C220.88 276.521 228.025 268.216 236.403 261.201C244.674 254.268 253.766 248.46 262.94 242.808C263.309 241.781 264.073 240.837 265.338 240.163C273.305 235.924 281.411 231.981 289.575 228.17C297.164 224.621 304.786 220.62 312.753 217.983C320.399 215.462 329.36 214.451 337.392 214.698C343.938 214.903 350.599 216.76 355.306 221.376C356.25 221.557 357.178 222.074 358.016 223.027ZM362.558 250.481C362.862 247.934 361.277 245.708 360.02 243.613C357.646 239.662 354.952 235.957 352.012 232.425C351.076 232.228 350.156 231.677 349.351 230.667C344.949 225.155 338.214 225.081 331.701 225.541C324.637 226.042 317.911 227.135 311.348 229.878C298.289 235.341 285.411 241.642 272.878 248.255C272.475 249.109 271.81 249.898 270.808 250.514C261.379 256.289 251.819 262.055 243.376 269.235C235.59 275.839 228.822 283.561 223.023 291.948C217.233 300.327 212.272 309.249 207.747 318.367C202.991 327.962 197.858 337.827 196.01 348.474C195.526 351.275 193.481 352.417 191.329 352.318C189.85 353.838 187.616 354.405 185.341 352.778C179.937 348.917 174.451 344.884 168.282 342.337C162.402 339.906 155.913 338.189 149.827 336.291C143.035 334.172 135.618 334.862 128.596 335.141C121.623 335.404 114.667 335.93 107.726 336.636C107.628 336.653 107.537 336.653 107.439 336.653C95.0698 341.688 84.2612 350.338 76.6065 361.272C76.3601 361.617 76.0973 361.921 75.818 362.192C75.7441 362.324 75.6784 362.455 75.5881 362.586C68.9436 372.781 61.9952 383.337 60.4347 395.683C59.638 401.992 59.5066 409.04 60.7057 415.308C61.9048 421.56 65.3626 427.047 66.611 433.274C67.0381 435.377 66.3236 437.102 65.0916 438.277C60.525 449.046 59.6955 461.13 62.603 472.458C65.609 484.164 71.9085 494.654 78.1506 504.881C81.6658 510.64 72.9106 515.889 69.1818 510.631C45.9794 514.139 18.2023 520.974 14.7692 548.32C12.1081 569.588 25.3807 587.126 42.4149 597.921C43.2937 597.584 44.3039 597.461 45.4209 597.658C58.4471 599.974 71.0626 604.681 83.6534 608.649C89.7969 610.588 95.9733 612.444 102.067 614.531C107.948 616.535 113.821 619.755 120.186 619.106H120.301C121.147 618.342 122.329 617.915 123.865 618.047C128.539 618.449 133.212 618.86 137.885 619.262C142.164 619.632 146.608 620.174 150.846 619.238C158.624 617.504 164.734 612.28 169.539 606.135C170.13 605.379 170.787 604.887 171.461 604.599C174.27 600.861 176.923 596.968 178.352 592.491C179.986 587.381 180.356 581.902 179.559 576.595C177.966 566.023 172.044 556.831 164.628 549.364C160.652 545.363 165.005 539.572 169.375 540.303C169.375 538.216 170.525 536.253 173.219 535.719C179.781 534.421 185.308 530.273 190.885 526.79C197.226 522.83 203.542 518.83 209.808 514.739C221.134 507.346 232.674 499.903 242.826 490.916C251.983 482.8 260.238 473.033 264.163 461.261C268.631 447.871 264.952 434.169 266.044 420.467C263.49 413.501 259.351 405.196 252.862 401.163C245.93 396.858 237.142 393.786 229.126 392.324C225.496 393.597 220.551 390.812 221.997 386.064C230.185 359.169 244.033 334.443 262.595 313.339C263.433 312.395 264.369 311.877 265.305 311.688C275.342 303.096 288.171 299.588 299.135 292.425C311.422 284.399 321.278 274.147 336.432 272.028C344.669 268.06 353.195 263.739 359.174 256.675C360.644 254.933 362.279 252.814 362.558 250.481Z" fill="white"/>
<path d="M360.019 243.61C361.276 245.705 362.861 247.931 362.557 250.478C362.278 252.811 360.643 254.93 359.173 256.671C353.194 263.736 344.668 268.057 336.431 272.025C321.277 274.144 311.421 284.396 299.134 292.422C288.17 299.585 275.341 303.093 265.304 311.685C264.368 311.874 263.432 312.392 262.594 313.336C244.032 334.44 230.184 359.166 221.996 386.061C220.55 390.809 225.495 393.594 229.125 392.32C237.141 393.783 245.929 396.855 252.861 401.159C259.35 405.193 263.489 413.498 266.043 420.464C264.951 434.166 268.631 447.868 264.163 461.258C260.237 473.03 251.982 482.797 242.825 490.913C232.673 499.9 221.134 507.342 209.807 514.736C203.541 518.826 197.225 522.827 190.884 526.787C185.307 530.27 179.78 534.418 173.218 535.716C170.524 536.25 169.374 538.213 169.374 540.3C165.004 539.569 160.651 545.36 164.627 549.36C172.043 556.828 177.965 566.02 179.558 576.592C180.355 581.899 179.985 587.378 178.351 592.488C176.922 596.965 174.269 600.858 171.46 604.596C170.787 604.883 170.129 605.376 169.538 606.132C164.733 612.277 158.623 617.501 150.845 619.234C146.607 620.171 142.163 619.629 137.884 619.259C133.211 618.857 128.538 618.446 123.864 618.043C122.329 617.912 121.146 618.339 120.3 619.103H120.185C113.82 619.752 107.947 616.532 102.067 614.528C95.9723 612.441 89.796 610.584 83.6525 608.646C71.0616 604.678 58.4461 599.971 45.42 597.655C44.303 597.457 43.2928 597.581 42.4139 597.917C25.3797 587.123 12.1072 569.585 14.7683 548.317C18.2014 520.971 45.9785 514.136 69.1808 510.628C72.9096 515.886 81.6649 510.628 78.1496 504.878C71.9076 494.651 65.6081 484.161 62.602 472.455C59.6945 461.127 60.5241 449.043 65.0906 438.273C66.3226 437.099 67.0372 435.374 66.6101 433.271C65.3617 427.044 61.9039 421.556 60.7048 415.305C59.5056 409.037 59.6371 401.989 60.4337 395.68C61.9942 383.334 68.9426 372.778 75.5871 362.583C75.6775 362.452 75.7432 362.32 75.8171 362.189C76.0963 361.918 76.3592 361.614 76.6056 361.269C84.2603 350.335 95.0689 341.685 107.438 336.65C107.537 336.65 107.627 336.65 107.725 336.633C114.666 335.927 121.622 335.401 128.595 335.138C135.618 334.859 143.034 334.169 149.826 336.288C155.912 338.186 162.401 339.903 168.281 342.334C174.45 344.881 179.936 348.914 185.34 352.775C187.615 354.401 189.849 353.835 191.328 352.315C193.48 352.414 195.525 351.272 196.009 348.47C197.857 337.824 202.991 327.958 207.746 318.364C212.271 309.245 217.232 300.324 223.023 291.945C228.821 283.558 235.589 275.836 243.375 269.232C251.818 262.052 261.378 256.285 270.807 250.51C271.809 249.894 272.474 249.106 272.877 248.251C285.41 241.639 298.288 235.338 311.347 229.875C317.91 227.131 324.636 226.039 331.7 225.538C338.213 225.078 344.948 225.152 349.35 230.664C350.155 231.674 351.075 232.225 352.011 232.422C354.951 235.954 357.645 239.659 360.019 243.61Z" fill="white"/>
<path d="M1345.5 1026.07C1346.33 1026.92 1346.87 1028.11 1346.86 1029.66C1346.71 1048.5 1340 1066.49 1339.32 1085.24C1339.79 1086.23 1339.93 1087.41 1339.58 1088.76C1336.69 1099.88 1334.02 1111.06 1331.57 1122.28C1329.42 1132.12 1327.11 1141.95 1321.85 1150.66C1321.23 1152.16 1320.04 1153.41 1318.43 1153.65C1302.41 1156.12 1286.22 1152.94 1272.69 1143.87C1272.38 1143.66 1272.11 1143.44 1271.86 1143.2C1269.52 1142.36 1267.81 1140.12 1268.86 1137.07C1277.92 1110.78 1289.47 1083.89 1291.4 1055.88C1291.46 1054.92 1291.73 1054.1 1292.14 1053.41C1291.69 1052.65 1291.45 1051.78 1291.57 1050.86C1292.73 1041.41 1289.6 1030.97 1286.35 1022.13C1283.17 1013.5 1277.98 1005.73 1271.57 999.166C1270.42 997.983 1269.98 996.661 1270.04 995.388C1265.56 987.419 1258.07 982.178 1250.28 977.545C1240.71 971.861 1230.95 966.497 1221.26 961.017C1220.48 960.985 1219.67 960.771 1218.85 960.311C1202.96 951.488 1186.16 944.736 1168.61 940.07C1168.6 940.07 1168.59 940.078 1168.57 940.078C1160.8 940.243 1153.56 937.68 1146.02 936.217C1143.16 935.659 1140.22 935.421 1137.26 935.33C1140.54 940.875 1145.27 945.738 1148.22 951.423C1152.56 959.744 1156.09 967.762 1161.94 975.204C1167.71 982.548 1173.03 989.892 1176.85 998.468C1180.03 1005.6 1182.41 1012.98 1184.15 1020.57C1185.59 1021.37 1186.64 1022.85 1186.61 1025.02C1186.45 1036.71 1189.54 1048.03 1188.76 1059.63C1189.26 1061.24 1189.48 1062.93 1189.3 1064.73C1188.65 1071.36 1178.46 1071.55 1178.6 1065.2C1177.99 1064.17 1177.69 1062.9 1177.94 1061.44C1177.94 1061.38 1177.95 1061.32 1177.96 1061.25C1176.52 1057.97 1173.13 1054.8 1171.08 1052.51C1168.11 1049.2 1164.93 1046.07 1161.58 1043.16C1157.91 1039.96 1154 1037.08 1149.92 1034.46C1157.04 1047.49 1164.25 1060.51 1170.69 1073.85C1178.04 1089.13 1183.14 1105.7 1180.04 1122.62C1180.22 1123.21 1180.3 1123.86 1180.25 1124.6C1178.14 1154.61 1171.37 1184.08 1159.97 1211.92C1159.85 1212.68 1159.71 1213.45 1159.52 1214.21C1158.29 1219.38 1151.88 1218.85 1149.75 1215.27C1148.79 1213.98 1148.34 1212.33 1148.96 1210.83C1149.17 1210.33 1149.36 1209.83 1149.57 1209.33C1150.45 1201.47 1145.64 1194.27 1141.08 1188.18C1137.59 1183.52 1133.94 1178.81 1129.71 1174.73C1131.48 1185.29 1136.71 1195.33 1138.33 1205.94C1140.44 1219.8 1139.86 1234.01 1139.62 1247.98C1139.38 1262.25 1139.62 1277 1136.33 1290.97C1133.18 1304.36 1126.41 1316.57 1119.78 1328.49C1116.93 1333.6 1110.45 1330.62 1109.83 1325.8C1108.36 1314.49 1104.77 1303.63 1099.49 1293.63C1100.62 1318.7 1098.87 1344.17 1090.29 1367.85C1084.93 1382.62 1076.9 1396.26 1068.22 1409.29C1064.01 1415.62 1059.54 1421.75 1054.8 1427.69C1050.59 1432.95 1046.09 1438.14 1039.27 1439.78C1037.48 1440.21 1035.97 1439.79 1034.84 1438.91C1032.42 1438.1 1030.65 1435.85 1031.78 1432.75C1037.06 1418.21 1041.38 1402.7 1040.1 1387.2C1031.87 1397.88 1023.22 1408.25 1014.1 1418.21C1008.87 1423.91 1003.46 1429.77 996.483 1433.35C990.759 1436.29 984.016 1437.8 979.449 1442.58C975.08 1447.15 968.419 1441.31 971.072 1436.11C971.491 1435.28 972.024 1434.38 972.222 1433.45C972.271 1433.22 972.296 1433.07 972.312 1432.98C971.885 1433.02 969.191 1433.92 967.499 1434.45C950.391 1447.73 933.505 1461.28 916.84 1475.12C912.52 1478.71 904.652 1473.9 908.454 1468.64C911.271 1464.75 914.097 1460.85 916.552 1456.71C917.522 1455.07 918.458 1453.39 919.287 1451.67C919.09 1451.8 918.893 1451.93 918.704 1452.06C917.193 1453.08 915.706 1453.18 914.442 1452.71C905.875 1455.8 899.797 1463.53 892.143 1468.25C883.108 1473.82 872.431 1475.63 863.027 1480.4C858.674 1482.61 852.415 1477.79 855.725 1473.1C857.475 1470.61 859.191 1468.1 860.875 1465.56C856.571 1468.62 851.882 1471.1 846.929 1472.99C846.379 1474.67 845.13 1476.14 843.364 1476.38C833.829 1477.67 826.265 1484.6 817.444 1487.99C809.255 1491.14 800.409 1492.13 791.67 1492.79C790.455 1493.55 789.149 1493.67 787.95 1493.36C786.734 1493.48 785.543 1493.21 784.196 1492.41C779.408 1489.59 781.774 1482.82 786.89 1482.46C786.964 1482.45 787.038 1482.45 787.112 1482.44C793.403 1476.08 799.678 1469.63 805.107 1462.51C807.99 1458.72 810.627 1454.74 812.885 1450.55C813.608 1449.21 814.29 1447.85 814.922 1446.46C789.568 1464.69 767.942 1488.36 737.989 1499.29C735.492 1500.2 733.554 1499.23 732.47 1497.55C731.032 1496.01 730.326 1493.73 731.418 1491.33C732.494 1488.95 733.628 1486.46 734.515 1483.91L754.07 1467.03L639.504 1482.95C637.081 1484.31 634.502 1486.02 631.792 1488.02C628.022 1488.07 624.737 1488.05 622.076 1487.93C595.925 1486.78 580.648 1473.85 580.648 1473.85C580.648 1473.85 569.749 1458.64 568.099 1468.31C566.448 1477.99 572.92 1488.97 572.92 1488.97L547.59 1483.22L528.544 1466.82L525.669 1471.29L509.686 1469.31C507.805 1461.09 506.77 1455.98 506.77 1455.98L448.169 1451.34L449.352 1455.11L417.279 1439.91C410.947 1436.16 404.885 1431.77 398.422 1428.2C399.432 1430.35 400.5 1432.47 401.641 1434.54C404.294 1439.35 407.3 1443.98 410.692 1448.31C414.897 1453.69 408.508 1460.33 403.136 1455.87C398.364 1451.89 392.426 1449.61 386.816 1447.1C381.264 1444.62 375.852 1441.85 370.727 1438.58C361.019 1432.38 352.452 1424.61 346.079 1415.01C345.685 1414.76 345.299 1414.44 344.937 1414.03C340.748 1409.43 336.379 1405.01 331.87 1400.73C332.182 1405.51 333.332 1410.21 335.188 1414.76C337.036 1419.29 331.016 1422.88 327.345 1420.78C320.708 1417 314.072 1413.12 307.978 1408.53C306.294 1409.51 304.068 1409.74 302.294 1408.91C293.974 1405.04 285.942 1398.45 279.084 1392.39C273.4 1387.38 266.797 1381.07 266.271 1373.28C259.774 1364.55 251.019 1357.74 245.032 1348.57C238.436 1338.47 235.143 1326 231.02 1314.77C226.445 1302.28 221.862 1289.79 217.287 1277.3C213.706 1267.52 208.721 1257.25 207.317 1246.72C206.347 1248.7 206.101 1251.28 205.805 1253.23C205.173 1257.42 205.083 1261.72 205.222 1265.95C205.51 1275.03 207.144 1283.97 208.787 1292.89C210.019 1299.58 200.5 1302.39 198.487 1295.72C195.276 1285.08 187.777 1275.94 184.722 1265.45C183.194 1269.67 182.546 1274.19 182.792 1278.84C183.112 1284.83 173.396 1286.16 172.304 1280.26C167.499 1254.31 152.576 1230.84 155.483 1203.81C155.261 1203.23 155.13 1202.57 155.13 1201.82C155.171 1176.32 160.739 1151.34 171.269 1128.15C173.076 1114.94 180.878 1104.63 189.477 1094.77C193.839 1089.76 199.309 1084.48 202.077 1078.33C202.939 1076.42 203.678 1074.82 201.436 1074.11C199.539 1073.51 196.837 1074.43 194.537 1075.11C184.467 1083.97 174.382 1093.11 166.661 1104.12C162.185 1110.51 158.801 1117.53 154.801 1124.2C150.547 1131.3 146.432 1137.62 143.894 1145.58C143.623 1146.44 143.212 1147.14 142.703 1147.68C142.703 1147.99 142.695 1148.3 142.703 1148.62C142.761 1155.51 132.084 1155.49 132.026 1148.62C131.927 1137.27 132.839 1125.96 134.72 1114.77C136.527 1104.08 140.617 1093.41 139.976 1082.46C139.952 1082.07 139.968 1081.7 140.018 1081.35C139.903 1080.23 140.108 1079.03 140.592 1077.9C150.424 1054.74 155.672 1029.99 162.834 1005.95C166.382 994.057 170.324 982.146 176.295 971.22C181.461 961.773 188.829 952.474 189.354 941.31C189.412 940.111 189.79 939.125 190.373 938.345C190.422 937.573 190.66 936.768 191.153 935.946C191.983 934.574 188.024 935.026 187.276 935.24C184.706 935.996 182.71 937.729 180.969 939.692C177.971 943.068 171.54 940.456 171.86 935.913C172.378 928.496 175.54 922.376 179.121 916.289C162.555 915.541 146.087 913.578 129.669 911.269C115.23 909.249 100.06 907.811 88.0525 899.03C76.8497 897.674 66.3121 889.246 57.5815 882.592C48.5387 875.7 40.2187 868.027 32.679 859.542C30.3547 859.813 27.981 858.712 27.2993 855.763C25.9688 849.955 22.741 845.141 19.85 840.023C17 834.988 14.4621 829.796 12.2363 824.448C7.80938 813.802 5.03332 802.663 4.41733 791.13C4.34341 790.85 4.28591 790.555 4.25306 790.259C1.64126 769.648 9.13171 749.457 7.53014 728.83C7.39051 727.031 8.03114 725.708 9.05779 724.854C9.03315 724.509 9.03315 724.147 9.07422 723.761C10.5772 710.396 13.0741 697.178 16.8357 684.257C20.3099 672.354 24.5479 660.377 31.1513 649.821C31.2335 649.229 31.4142 648.621 31.7263 648.014C47.7831 616.395 65.228 585.763 85.5393 556.666C86.0813 555.894 86.722 555.344 87.4201 554.958C88.496 553.274 90.4425 552.296 92.9312 553.224C99.6331 555.713 105.834 559.344 112.01 562.918C117.94 566.351 123.082 570.508 127.049 576.143C129.422 579.495 127.09 582.74 123.985 583.643C120.224 593.788 114.031 602.488 107.534 611.105C100.364 620.626 93.7196 630.352 88.4221 641.056C82.8864 652.228 79.1658 664.081 75.4699 675.952C71.47 688.775 67.462 701.606 63.4621 714.429C62.9118 716.22 61.7374 717.304 60.3658 717.814C61.1378 734.506 55.2571 750.319 53.713 766.798C52.054 784.55 58.7067 800.166 66.1643 815.872C66.4764 816.529 66.6407 817.17 66.7064 817.795C83.2231 847.031 118.491 855.401 149.167 860.905C150.383 861.127 151.278 861.636 151.91 862.326C162.99 863.082 174.143 862.638 185.092 860.65C194.849 858.876 204.302 855.812 214.101 854.383C214.092 854.013 214.109 853.635 214.175 853.241C215.965 842.241 223.743 833.953 230.7 825.779C238.502 816.603 246.666 806.927 252.448 796.305C253.803 793.816 254.945 791.22 255.569 788.452C255.865 787.146 255.733 785.675 256.062 784.418C255.947 783.975 255.881 783.646 255.873 783.416C255.775 783.408 255.676 783.4 255.586 783.391C253.122 784.402 250.978 784.936 248.645 786.464C246.329 787.975 244.079 789.643 241.894 791.335C236.055 795.861 230.494 801.069 226.765 807.411C225.476 809.933 224.31 812.504 223.382 815.174C221.139 821.606 211.16 819.002 213.082 812.34C214.355 807.937 216.294 803.945 218.692 800.264C222.536 793.413 227.012 786.883 230.552 779.851C236.498 768.046 240.761 755.494 245.048 743.025C245.13 742.786 245.221 742.565 245.327 742.351C245.459 741.776 245.697 741.193 246.083 740.601C255.528 726.135 264.867 711.595 274.435 697.211C278.813 690.631 283.65 684.52 288.775 678.506C291.412 675.409 293.999 672.247 296.093 668.797C290.673 671.064 286.098 675.738 281.72 679.632C274.649 685.941 267.733 692.406 261.598 699.651C257.154 704.908 249.639 697.318 254.05 692.102C255.43 690.475 256.85 688.89 258.304 687.337C262.189 660.952 282.878 641.869 295.896 619.689C302.828 607.86 309.563 596.056 317.702 584.991C325.743 574.057 334.465 563.649 343.204 553.265C343.492 552.92 343.796 552.633 344.099 552.403C344.223 552.239 344.354 552.083 344.502 551.926C363.056 532.203 383.145 514.073 404.499 497.447C404.795 497.003 405.181 496.584 405.682 496.182C408.828 493.709 411.776 490.957 414.273 487.819C414.528 487.499 414.815 487.022 415.119 486.488C410.257 486.768 406.807 481.609 410.479 477.526C420.326 466.576 431.8 457.236 442.904 447.616C451.422 440.223 459.881 431.475 470.164 426.472C470.452 408.901 471.133 391.346 472.267 373.816C472.283 373.454 472.349 373.109 472.423 372.789C472.998 359.35 475.166 346.067 477.318 332.816C479.568 318.991 481.819 305.166 484.069 291.34C484.25 290.231 484.677 289.385 485.26 288.769C487.847 268.249 490.722 247.655 497.991 228.186C498.508 226.822 499.379 225.878 500.405 225.303C500.405 224.99 500.43 224.687 500.479 224.358C501.76 216.603 504.011 209.21 507.107 201.989C508.709 198.26 510.475 194.604 511.616 190.694C512.61 187.293 513.119 183.777 514.08 180.368C516.109 173.139 519.92 166.42 523.213 159.717C526.926 152.184 530.638 144.643 534.35 137.102C535.131 135.516 536.33 134.695 537.619 134.456C537.66 134.317 537.71 134.169 537.767 134.013C544.42 117.403 555.951 104.005 567.696 90.7708C573.749 83.9527 579.622 76.8141 586.595 70.9077C589.757 68.2215 593.108 65.8311 596.681 63.7363C598.43 62.7177 600.335 61.7566 601.888 60.4258C602.159 60.204 602.38 59.9658 602.602 59.7358C601.37 59.8261 600.155 59.9576 599.079 59.9987C595.917 60.1219 592.763 60.278 589.609 60.4176L570.464 61.2719C567.893 61.3869 566.292 59.974 565.643 58.1421C559.458 57.8793 559.721 47.8902 566.316 47.4548C590.241 45.8612 613.567 39.2073 634.765 28.0846C634.831 27.5014 635.003 26.9346 635.258 26.3924C635.849 24.4127 637.484 22.7944 640.153 22.7944C640.383 22.7944 640.605 22.8108 640.827 22.8354C641.18 22.6383 641.582 22.474 642.026 22.3426C657.844 17.8081 671.815 8.50905 687.929 4.79601C701.81 1.6005 716.314 1.51836 730.236 4.5085C737.471 6.06107 744.165 8.84585 751.081 11.3924C754.547 12.6657 758.054 13.7582 761.709 14.3086C765.166 14.8344 768.526 15.1465 771.803 16.4526C784.238 21.4143 795.843 30.4997 805.345 39.7905C809.945 44.2922 815.012 49.2949 818.043 55.0452C820.721 60.1383 821.353 65.7243 821.386 71.3513C830.092 69.7577 838.297 62.6766 845.295 58.0764C854.017 52.3426 862.304 45.0562 871.749 40.5463C881.203 36.0447 892.151 33.8349 902.467 32.3809C909.111 31.4526 915.83 31.1405 922.408 32.0277C923.057 30.204 924.659 28.8075 927.221 28.9472C940.486 29.7029 953.504 32.5863 965.799 37.6383C987.662 46.6169 1006.6 61.4362 1020.84 80.2807C1028.92 90.9844 1034.62 102.986 1040.12 115.152C1046.35 128.977 1052.6 142.794 1058.83 156.62C1059.17 157.359 1059.32 158.09 1059.35 158.788C1059.45 159.174 1059.54 159.569 1059.59 159.98C1061.19 173.583 1072.27 184.18 1078.81 195.582C1079.69 197.11 1079.73 198.597 1079.26 199.862C1078.35 202.819 1075.02 205.234 1071.45 203.361C1064.54 199.755 1058.39 194.703 1052.11 190.136C1047.68 186.907 1043.25 183.687 1038.81 180.459C1038.82 187.647 1039.24 194.802 1040.87 201.874C1042.91 210.73 1045.75 219.446 1045.81 228.564C1048.79 232.737 1043.78 238.208 1039.34 236.458C1037.44 236.22 1035.73 235.086 1035.22 233.041C1026.25 224.366 1017.39 215.412 1010.32 205.152C1006.78 212.545 1002.58 219.569 998.249 226.592C992.352 236.171 986.89 245.946 981.938 256.058C973.856 272.529 965.856 289.221 958.974 306.283C959.787 307.137 960.271 308.345 960.165 309.914C959.606 318.211 956.838 325.686 953.545 333.235C950.169 340.957 947.114 348.547 945.085 356.754C941.077 372.896 937.792 389.243 934.277 405.5C946.802 411.382 957.331 420.828 967.885 429.684C981.7 441.275 995.268 453.145 1008.61 465.27C1010.22 466.732 1010.56 468.482 1010.12 470.051C1010.06 473.197 1007.45 476.434 1003.49 475.423C999.917 474.503 996.319 473.772 992.672 473.304C995.128 474.166 997.568 475.062 999.966 476.097C1006.9 479.095 1013 483.383 1017.11 489.84C1019.51 493.619 1015.46 499.27 1011.08 497.685C1004.6 495.336 997.97 492.888 991.161 491.581C999.021 495.492 1006.39 500.24 1013.21 505.785C1013.51 505.908 1013.82 506.056 1014.13 506.253C1022.27 511.321 1029.2 518.493 1035.73 525.451C1042.14 532.277 1048.1 539.522 1053.62 547.072C1063.2 560.149 1071.18 574.229 1077.72 589.016C1079.2 589.821 1080.34 591.291 1080.48 593.419C1080.54 594.372 1080.64 595.308 1080.78 596.236C1080.84 596.417 1080.92 596.59 1080.99 596.77C1081.38 597.756 1081.47 598.66 1081.33 599.448C1083.57 610.242 1089.28 620.256 1091.59 631.058C1092.92 637.261 1085.36 639.922 1081.84 635.174C1079.75 632.373 1077.2 630.106 1074.34 628.356C1089.22 650.642 1099.27 676.042 1103.59 702.518C1104.39 707.397 1098.66 711.916 1094.66 707.718C1091.4 704.268 1087.95 700.998 1084.36 697.91C1092.19 707.504 1098.61 718.29 1103.33 729.914C1105.19 734.498 1099.17 737.956 1095.49 735.943C1094.98 735.672 1094.49 735.41 1093.99 735.138C1095.72 737.233 1097.38 739.394 1099.01 741.595C1104.73 749.333 1110.33 757.178 1115.64 765.204C1126.47 781.56 1135.87 799.205 1139.66 818.616C1140.73 824.038 1134.89 827.233 1130.74 823.816C1127.83 821.401 1124.85 819.084 1121.83 816.825C1132.07 833.632 1141.82 850.727 1151.06 868.109C1153.82 873.301 1146.84 879.249 1142.68 874.583C1139.61 871.141 1136.54 867.69 1133.46 864.249C1132.17 862.803 1130.96 861.111 1129.17 860.281C1127.48 859.492 1125.37 859.312 1123.56 858.942C1119.18 858.055 1114.81 857.176 1110.43 856.289C1118.97 864.602 1126.6 873.802 1133.28 883.742C1133.66 884.301 1133.91 884.867 1134.05 885.41C1160.88 887.718 1187.34 893.066 1212.92 901.535C1213.3 901.666 1213.65 901.823 1213.97 902.003C1224.89 901.543 1235.21 905.971 1244.59 911.286C1255.83 917.652 1266.73 924.692 1277.75 931.428C1278.48 931.872 1279.03 932.406 1279.44 932.989C1288.65 936.53 1295.82 943.43 1302.93 950.182C1310.99 957.847 1318.76 965.856 1324.63 975.377C1325.14 976.206 1325.39 977.028 1325.44 977.808C1327.23 981.866 1329.88 985.588 1331.96 989.498C1334.01 993.367 1335.86 997.335 1337.57 1001.38C1340.95 1009.38 1343.58 1017.61 1345.5 1026.07Z" fill="#FDF2CC"/>
<path d="M811.344 638.173C815.837 640.169 815.122 646.453 811.59 648.137C811.443 649.756 811.229 651.382 810.983 653.017C810.547 655.859 806.934 657.469 804.412 656.746C801.414 655.884 800.248 653.05 800.683 650.175C800.823 649.296 800.963 648.367 801.086 647.431C793.357 648.072 786.294 653.616 779.863 657.773C772.709 662.398 761.629 666.998 759.929 676.445C758.591 683.822 766.015 687.592 771.264 690.87C777.489 694.764 782.992 698.929 785.678 706.001C786.622 708.482 784.618 712.13 781.949 712.565C776.536 713.452 771.223 714.914 766.286 717.33C763.831 718.537 761.449 719.917 759.182 721.462C756.513 723.277 755.429 724.131 755.847 727.491C757.4 740.06 760.11 752.587 762.229 765.073C762.336 765.706 762.344 766.305 762.27 766.864C762.188 769.468 760.48 771.965 757.12 771.867C749.655 771.653 742.049 771.39 734.715 773.05C727.824 774.61 721.245 777.387 714.724 780.032C700.712 785.709 686.996 792.091 673.559 799.008C673.403 799.09 673.255 799.156 673.099 799.222C670.134 802.056 663.851 800.832 663.942 795.55C664.508 761.713 665.247 727.795 671.071 694.37C671.087 694.271 671.12 694.181 671.136 694.09C670.34 686.524 673.288 679.55 676.155 672.699C678.684 666.653 681.255 660.615 684.089 654.701C689.928 642.527 697 630.96 706.371 621.168C707.578 619.903 708.966 619.452 710.28 619.55C728.604 608.017 753.383 602.028 774.45 608.641C779.896 610.35 784.856 613.085 789.595 616.223C794.146 619.246 798.917 622.08 803.328 625.284C808.149 628.783 810.457 633.244 811.344 638.173ZM799.952 636.817C798.047 633.729 794.146 632.11 791.222 630.188C783.567 625.169 776.52 619.772 767.379 617.842C749.31 614.013 729.549 619.673 714.395 629.589C713.697 630.049 713.007 630.311 712.342 630.418C704.712 638.846 698.897 648.614 693.92 658.825C691.242 664.312 688.803 669.906 686.454 675.533C683.883 681.678 681 687.79 681.863 694.591C681.97 695.413 681.781 696.21 681.403 696.916C681.395 697.015 681.386 697.105 681.37 697.204C676.237 726.67 675.309 756.604 674.775 786.456C686.922 780.41 699.299 774.832 711.882 769.739C718.855 766.913 725.918 763.915 733.335 762.445C739.101 761.303 744.932 761.04 750.772 761.073C749.827 755.52 748.891 749.975 747.946 744.422C747.24 740.249 746.517 736.075 745.819 731.894C745.261 728.592 744.497 725.142 745.359 721.815C747.01 715.489 754.32 711.514 759.675 708.729C763.56 706.708 767.633 705.098 771.822 703.899C767.592 700.013 761.145 697.409 757.194 694.156C749.351 687.707 747.084 677.965 751.388 668.699C756.381 657.946 768.052 652.811 777.415 646.609C784.298 642.058 791.887 637.688 799.952 636.817Z" fill="white"/>
<path d="M791.22 630.187C794.144 632.109 798.045 633.727 799.951 636.816C791.885 637.687 784.296 642.057 777.414 646.608C768.051 652.81 756.38 657.944 751.386 668.697C747.082 677.964 749.349 687.706 757.193 694.155C761.143 697.408 767.591 700.012 771.82 703.897C767.632 705.097 763.558 706.707 759.673 708.727C754.318 711.512 747.008 715.488 745.357 721.813C744.495 725.14 745.259 728.591 745.817 731.893C746.515 736.074 747.238 740.247 747.945 744.42C748.889 749.973 749.825 755.518 750.77 761.071C744.93 761.038 739.099 761.301 733.333 762.443C725.917 763.914 718.853 766.912 711.88 769.738C699.298 774.831 686.92 780.409 674.773 786.455C675.307 756.603 676.235 726.668 681.368 697.202C681.385 697.104 681.393 697.013 681.401 696.915C681.779 696.208 681.968 695.411 681.861 694.59C680.999 687.788 683.882 681.676 686.452 675.532C688.801 669.905 691.241 664.311 693.918 658.823C698.895 648.612 704.71 638.845 712.34 630.417C713.006 630.31 713.695 630.047 714.394 629.587C729.547 619.672 749.308 614.012 767.377 617.84C776.518 619.771 783.565 625.168 791.22 630.187Z" fill="white"/>
<path d="M597.673 639.229C599.891 642.696 597.492 645.998 594.412 646.877C595.111 652.479 593.558 658.46 592.022 664.152C588.91 675.669 586.043 687.26 583.423 698.909C580.803 710.549 578.421 722.247 576.294 733.994C574.134 745.93 571.777 757.956 573.198 770.122C573.641 773.892 569.461 775.798 566.446 775.272C556.172 773.482 545.774 772.561 535.343 772.537C525.783 772.512 515.845 772.808 506.515 775.059C496.618 777.449 487.788 783.068 478.935 787.898C469.728 792.926 460.545 798.002 451.396 803.128C448.677 804.656 446.09 803.597 444.62 801.666C443.815 800.713 443.314 799.456 443.133 798.101C440.628 778.944 446.476 760.009 445.228 740.836C445.17 739.974 445.285 739.218 445.54 738.569C445.425 713.21 458.5 690.489 462.705 665.861C462.763 665.508 462.853 665.196 462.96 664.892C462.385 663.577 462.286 662.025 462.985 660.415C468.676 647.247 478.631 635.574 488.331 625.141C498.515 614.182 511.229 609.837 525.816 608.26C553.355 605.286 582.339 615.201 597.673 639.229ZM583.152 655.954C583.973 652.512 585.132 647.682 582.52 644.733C580.302 642.227 580.967 639.147 582.75 637.241C568.565 621.962 546.456 616.672 525.816 618.939C519.565 619.629 512.987 620.894 507.311 623.687C501.784 626.406 497.554 630.702 493.554 635.286C485.513 644.478 477.481 653.95 472.479 665.196C472.997 666.181 473.226 667.364 472.997 668.703C468.865 692.928 455.478 715.445 456.242 740.467C456.266 741.173 456.168 741.798 455.987 742.364C456.718 758.276 452.858 774.032 453.219 789.894C460.923 785.606 468.643 781.343 476.38 777.129C485.579 772.126 494.77 766.663 505.118 764.437C523.549 760.469 543.359 761.11 562.102 763.829C561.913 754.711 563.457 745.634 565.026 736.639C566.939 725.664 569.066 714.73 571.415 703.837C573.814 692.69 576.442 681.584 579.292 670.543C580.54 665.672 581.986 660.842 583.152 655.954Z" fill="white"/>
<path d="M582.529 644.726C585.141 647.675 583.983 652.505 583.162 655.947C581.995 660.835 580.55 665.665 579.301 670.536C576.451 681.577 573.823 692.683 571.425 703.83C569.076 714.723 566.949 725.657 565.035 736.631C563.466 745.626 561.922 754.704 562.111 763.822C543.369 761.103 523.558 760.462 505.128 764.43C494.779 766.656 485.589 772.119 476.39 777.122C468.653 781.336 460.933 785.599 453.229 789.887C452.867 774.025 456.727 758.269 455.996 742.357C456.177 741.79 456.276 741.166 456.251 740.459C455.487 715.438 468.875 692.921 473.006 668.696C473.236 667.357 473.006 666.174 472.489 665.188C477.49 653.942 485.523 644.471 493.564 635.279C497.564 630.695 501.793 626.399 507.321 623.68C512.996 620.887 519.575 619.622 525.825 618.931C546.465 616.664 568.575 621.954 582.759 637.234C580.977 639.14 580.312 642.22 582.529 644.726Z" fill="white"/>
<path d="M487.411 1028.79C481.835 1034.07 476.167 1040.05 474.927 1047.64C473.802 1054.5 476.529 1061.35 479.33 1067.71C496.273 1106.21 517.948 1142.52 534.194 1181.31C538.292 1191.1 542.054 1201.06 546.933 1210.49C551.359 1219.06 557.897 1227.96 567.457 1229.25C574.956 1230.26 582.348 1226.1 587.465 1220.53C590.668 1217.05 593.296 1212.81 593.822 1208.11C594.38 1203.19 592.614 1198.33 590.881 1193.69C588.163 1186.43 585.428 1179.13 581.494 1172.44C578.069 1166.62 573.782 1161.33 570.389 1155.49C565.618 1147.27 562.727 1138.13 559.597 1129.16C549.585 1100.51 536.797 1072.82 521.455 1046.63C517.858 1040.48 513.858 1034.16 507.665 1030.64C499.879 1026.21 489.111 1027.19 487.42 1028.78L487.411 1028.79Z" fill="#FFEDA9"/>
<path d="M756.185 857.943C760.086 866.084 762.534 878.981 749.696 905.153C736.859 931.333 697.937 960.964 666.612 965.884C635.286 970.813 615.369 968.505 599.337 965.44C582.631 962.245 548.694 952.461 531.274 923.735C522.626 909.482 529.714 889.57 543.249 882.554C555.626 876.139 568.759 878.981 580.931 882.111C593.103 885.241 615.747 887.927 634.991 884.797C654.234 881.659 674.291 860.859 695.768 849.392C709.797 841.9 723.414 842.048 732.087 843.337C737.713 844.167 743.249 845.227 748.735 849.195C751.314 851.059 754.863 855.183 756.185 857.943Z" fill="#1D1D1B"/>
<path d="M748.735 849.195C743.249 845.227 737.713 844.167 732.087 843.337C723.414 842.048 709.797 841.9 695.768 849.392C674.291 860.859 654.234 881.659 634.991 884.797C615.747 887.927 593.103 885.241 580.931 882.111C568.759 878.981 555.626 876.139 543.249 882.554C529.714 889.57 522.626 909.482 531.274 923.735C548.694 952.461 582.631 962.245 599.337 965.44C615.369 968.505 635.286 970.813 666.612 965.884C697.937 960.964 736.859 931.333 749.696 905.153C762.534 878.981 760.086 866.084 756.185 857.943C754.863 855.183 751.314 851.059 748.735 849.195Z" stroke="#1D1D1B" stroke-width="4.6568" stroke-linecap="round" stroke-linejoin="round"/>
<path d="M604.91 788.325C586.742 781.359 561.06 773.801 535.213 773.801C497.292 773.801 463.396 794.059 450.912 802.503C448.645 804.039 445.574 802.503 445.442 799.768C443.742 765.463 440.687 604.078 534.055 604.078C564.682 604.078 585.642 620.901 599.957 644.683C625 686.274 629.755 749.773 630.478 781.153" stroke="#1D1D1B" stroke-width="4.6568" stroke-linecap="round" stroke-linejoin="round"/>
<path d="M629.931 766.39L630.276 780.75C627.763 779.657 617.775 779.411 617.775 779.411L605.34 787.839L602.704 786.681L583.28 780.503L562.139 775.804L547.988 774.326L546.419 774.112C537.327 761.051 531.931 743.422 531.265 723.592L568.258 703.614C569.514 702.932 569.58 701.158 568.381 700.385L538.362 681.196C538.378 681.155 538.386 681.122 538.403 681.081C547.528 658.449 564.398 643.26 583.707 643.26C590.162 643.26 596.347 644.961 602.063 648.066C602.063 648.066 607.788 659.682 608.347 660.971C608.913 662.261 615.927 681.327 615.927 681.327L620.223 696.796L624.042 714.786L626.785 732.217L628.543 747.669L629.931 766.39Z" fill="#1D1D1B"/>
<path d="M630.276 780.75L629.931 766.39L628.543 747.669L626.785 732.217L624.042 714.786L620.223 696.796L615.927 681.327C615.927 681.327 608.913 662.261 608.347 660.971C607.788 659.682 602.063 648.066 602.063 648.066C596.347 644.961 590.162 643.26 583.707 643.26C564.398 643.26 547.528 658.449 538.403 681.081C538.386 681.122 538.378 681.155 538.362 681.196L568.381 700.385C569.58 701.158 569.514 702.932 568.258 703.614L531.265 723.592C531.931 743.422 537.327 761.051 546.419 774.112L547.988 774.326L562.139 775.804L583.28 780.503L602.704 786.681L605.34 787.839L617.775 779.411C617.775 779.411 627.763 779.657 630.276 780.75Z" stroke="#1D1D1B" stroke-width="4.6568" stroke-linecap="round" stroke-linejoin="round"/>
<path d="M669.343 802.503C667.076 804.039 664.005 802.503 663.873 799.768C662.173 765.463 659.118 604.078 752.486 604.078C783.113 604.078 804.073 620.901 818.388 644.683C847.956 693.782 849.237 772.544 848.999 794.149C848.966 796.737 846.256 798.396 843.932 797.262C830.602 790.74 792.312 773.809 753.635 773.809C714.959 773.809 681.819 794.067 669.335 802.511L669.343 802.503Z" stroke="#1D1D1B" stroke-width="4.6568" stroke-linecap="round" stroke-linejoin="round"/>
<path d="M848.358 766.39L849.007 793.17L848.982 794.279C848.933 796.85 846.239 798.526 843.907 797.425L832.096 791.856L801.428 781.021L779.835 776.116L766.415 774.326L764.846 774.112C755.754 761.051 750.358 743.422 749.693 723.592L786.685 703.614C787.942 702.932 788.007 701.158 786.808 700.385L756.789 681.196C756.805 681.155 756.814 681.122 756.83 681.081C765.955 658.449 782.825 643.26 802.134 643.26C808.59 643.26 814.774 644.961 820.491 648.066C820.491 648.066 826.215 659.682 826.782 660.971C827.341 662.261 834.355 681.327 834.355 681.327L838.65 696.796L842.478 714.786L845.212 732.217L846.97 747.669L848.358 766.39Z" fill="#1D1D1B"/>
<path d="M848.358 766.39L846.97 747.669L845.212 732.217L842.478 714.786L838.65 696.796L834.355 681.327C834.355 681.327 827.341 662.261 826.782 660.971C826.215 659.682 820.491 648.066 820.491 648.066C814.774 644.961 808.59 643.26 802.134 643.26C782.825 643.26 765.955 658.449 756.83 681.081C756.814 681.122 756.805 681.155 756.789 681.196L786.808 700.385C788.007 701.158 787.942 702.932 786.685 703.614L749.693 723.592C750.358 743.422 755.754 761.051 764.846 774.112L766.415 774.326L779.835 776.116L801.428 781.021L832.096 791.856L843.907 797.425C846.239 798.526 848.933 796.85 848.982 794.279L849.007 793.17L848.358 766.39Z" stroke="#1D1D1B" stroke-width="4.6568" stroke-linecap="round" stroke-linejoin="round"/>
<path d="M644.615 788.965C644.615 788.965 629.626 775.173 614.702 781.736C599.787 788.3 599.344 800.654 599.335 807.226C599.327 822.744 604.633 833.563 608.214 838.935" stroke="#1D1D1B" stroke-width="4.6568" stroke-linecap="round" stroke-linejoin="round"/>
<path d="M779.715 555.808C779.715 555.808 788.667 543.577 807.164 542.377C828.518 540.997 845.84 550.707 859.342 567.481C875.029 586.975 876.36 604.053 876.36 604.053" stroke="#1D1D1B" stroke-width="4.6568" stroke-linecap="round" stroke-linejoin="round"/>
<path d="M443.781 604.063C443.781 604.063 458.787 572.404 477.39 561.298C490.835 553.272 504.838 549.658 531.277 555.736" stroke="#1D1D1B" stroke-width="4.6568" stroke-linecap="round" stroke-linejoin="round"/>
<path d="M567.94 383.606C579.997 381.248 589.639 380.468 596.161 380.361C607.314 380.172 620.398 384.238 608.316 376.632C596.235 369.025 576.539 370.364 567.595 370.364C558.651 370.364 548.351 371.703 556.852 364.548C565.353 357.393 594.477 340.635 630.59 338.589C673.767 336.133 709.462 356.941 709.462 356.941C709.462 356.941 712.074 358.51 716.993 359.405C721.913 360.301 729.527 354.928 732.212 352.242C734.898 349.556 752.573 330.087 772.934 328.075C793.294 326.062 802.69 327.853 810.304 330.761C817.909 333.669 821.712 336.807 820.817 338.819C819.921 340.832 816.037 337.76 807.84 339.263C798.485 340.98 783.668 346.862 775.315 357.007C765.805 368.565 765.55 373.28 769.131 372.836C772.712 372.393 776.293 362.322 785.467 357.393C794.641 352.464 809.458 349.26 815.897 348.217C825.145 346.714 831.403 347.009 832.003 351.043C832.529 354.616 828.907 355.372 826.188 356.497C820.735 358.765 787.027 377.757 785.689 391.188" stroke="#1D1D1B" stroke-width="4.6568" stroke-linecap="round" stroke-linejoin="round"/>
<path d="M211.299 856C227.184 825.761 257.137 786.405 255.955 783.965C254.895 781.78 247.454 786.314 236.727 797.774C230.461 804.469 217.057 827.158 214.667 823.576C212.277 819.995 229.96 769.491 247.183 737.265C270.27 694.08 289.046 674.578 293.744 670.775C296.347 668.664 298.212 667.645 297.661 666.898C296.396 665.181 280.693 676 270.287 687.747C263.297 695.641 252.308 713.294 250.673 713.146C249.031 712.999 253.064 683.007 303.181 604.064C353.298 525.121 428.522 479.759 438.633 473.828C442.033 471.832 445.261 470.008 442.214 469.647C434.206 468.702 418.051 480.835 412.227 484.417C406.404 487.998 403.275 491.128 403.727 487.547C404.178 483.965 437.738 443.237 487.526 414.592" stroke="#1D1D1B" stroke-width="4.6568" stroke-linecap="round" stroke-linejoin="round"/>
<path d="M303.403 1400.43C304.191 1403.8 305.103 1405.75 306.663 1408.25C308.569 1411.28 310.056 1413.02 308.98 1413.36C305.645 1414.39 296.725 1408.67 291.305 1404.03C288.019 1401.22 279.921 1393.44 270.903 1383.48C255.815 1366.8 239.8 1344.35 231.521 1325.22C221.509 1302.07 212.261 1259.74 211.366 1251.68C210.47 1243.63 209.132 1244.08 208.236 1247.21C207.785 1248.8 206.109 1262.31 206.429 1275.91C206.733 1289.04 208.992 1302.27 210.027 1304.95C211.908 1309.82 201.395 1301.2 194.684 1286.88C187.974 1272.55 187.481 1256.92 186.315 1254.81C185.289 1252.97 184.147 1258.19 183.629 1267.35C182.915 1280.05 183.629 1289.73 179.153 1286.6C174.677 1283.47 159.91 1248.55 156.329 1213.64C152.748 1178.73 160.074 1146.86 171.08 1125.3C181.954 1103.98 205.091 1074.27 199.292 1073.99C194.693 1073.77 185.428 1082.35 178.71 1090.11C165.018 1105.9 155.417 1123.73 149.701 1135.86C146.678 1142.26 136.642 1156.8 134.851 1153.22C133.061 1149.64 136.921 1084.35 154.538 1028.34C166.727 989.611 191.235 943.297 192.574 937.037C193.912 930.769 185.863 933.907 182.283 937.481C178.702 941.062 173.33 947.33 172.435 940.167C172.049 937.086 176.55 926.834 182.57 914.414" stroke="#1D1D1B" stroke-width="4.6568" stroke-linecap="round" stroke-linejoin="round"/>
<path d="M1134.65 1181.56C1134.65 1181.56 1143.84 1192.28 1146.26 1197.39C1153.85 1213.41 1151.36 1220.67 1155.84 1219.98C1164.49 1218.62 1177.53 1173.21 1180.53 1139.05C1182.94 1111.6 1182.39 1094.4 1172.77 1071.99C1168 1060.87 1159.52 1047.94 1151.46 1035.86C1143.4 1023.78 1129.31 1004.31 1129.31 1004.31" stroke="#1D1D1B" stroke-width="4.6568" stroke-linecap="round" stroke-linejoin="round"/>
<path d="M1149.65 1033.2C1149.65 1033.2 1158.57 1038.89 1171.5 1053.32C1181.74 1064.73 1183.62 1079.1 1185.39 1075.32C1187.41 1070.99 1189.56 1056.97 1189.62 1052.2C1189.87 1031.91 1183.67 1011.72 1176.63 995.955C1169.31 979.55 1165.58 974.588 1155.51 959.597C1147.17 947.184 1140.51 939.43 1138.86 936.793" stroke="#1D1D1B" stroke-width="4.6568" stroke-linecap="round" stroke-linejoin="round"/>
<path d="M863.471 384.885C860.703 384.006 857.878 383.168 855.02 382.363C810.939 370.057 795.334 377.36 795.334 377.36" stroke="#1D1D1B" stroke-width="4.6568" stroke-linecap="round" stroke-linejoin="round"/>
<path d="M983.548 471.695C983.548 471.695 991.063 470.282 996.607 470.718C1001.32 471.087 1008.87 474.036 1010.11 473.847C1013.54 473.322 1010.55 468.031 1002.87 459.151C998.02 453.549 982.809 437.07 967.828 426.753C959.13 420.756 945.455 411.547 927.805 402.404" stroke="#1D1D1B" stroke-width="4.6568" stroke-linecap="round" stroke-linejoin="round"/>
<path d="M978.817 471.279C978.817 471.279 993.567 472.018 1001.42 476.199C1010.96 481.284 1019.48 494.255 1018.35 496.785C1017.22 499.324 1009.86 494.502 1000.51 491.906C997.962 491.199 986.915 488.497 984.582 488.817" stroke="#1D1D1B" stroke-width="4.6568" stroke-linecap="round" stroke-linejoin="round"/>
<path d="M981.866 487.916C981.866 487.916 1014.98 497.314 1044.82 533.721C1074.44 569.866 1082.67 597.73 1085.85 607.423C1093.03 629.356 1092.37 640.372 1090.86 641.054C1089.71 641.572 1085.85 633.981 1075.9 628.157" stroke="#1D1D1B" stroke-width="4.6568" stroke-linecap="round" stroke-linejoin="round"/>
<path d="M1047.85 595.508C1047.85 595.508 1066.9 612.874 1080.17 634.807C1092.42 655.048 1100.14 685.113 1102.39 693.517C1103.83 698.848 1106.77 712.082 1103.75 712.066C1101.33 712.058 1098.67 705.699 1075.82 688.835C1068.81 683.668 1054.78 675.182 1054.78 675.182" stroke="#1D1D1B" stroke-width="4.6568" stroke-linecap="round" stroke-linejoin="round"/>
<path d="M1087.88 698.477C1087.88 698.477 1096.28 708.729 1100.69 717.544C1106.73 729.627 1107.55 738.598 1105.7 738.803C1104.11 738.976 1103.11 737.234 1094.83 732.018C1092.2 730.359 1085 727.689 1082.01 726.793" stroke="#1D1D1B" stroke-width="4.6568" stroke-linecap="round" stroke-linejoin="round"/>
<path d="M1090.68 730.198C1090.68 730.198 1109.48 751.663 1121.47 772.504C1131.32 789.648 1137.35 809.306 1139.59 821.39C1141.08 829.415 1141.12 835.675 1138.38 830.828C1135.36 825.48 1129.48 817.627 1124.39 812.813C1120.84 809.454 1115.85 806.307 1114.34 806.061C1112.75 805.806 1110.2 804.812 1113.78 808.098C1117.36 811.384 1139.63 838.197 1147.64 856.606C1155.66 875.015 1154.2 877.824 1151.93 877.824C1148.01 877.824 1144.99 870.094 1132.13 864.163C1120.59 858.848 1114.35 857.345 1114.35 857.345" stroke="#1D1D1B" stroke-width="4.6568" stroke-linecap="round" stroke-linejoin="round"/>
<path d="M1104.4 850.036C1104.4 850.036 1126.01 865.307 1134.73 883.552" stroke="#1D1D1B" stroke-width="4.6568" stroke-linecap="round" stroke-linejoin="round"/>
<path d="M700.442 351.837C700.442 351.837 729.509 212.007 764.275 154.25C824.675 53.9322 874.209 20.942 938.486 31.1364C1001.51 41.1337 1027.85 84.1458 1048.58 129.606C1069.36 175.197 1068.34 184.044 1079.83 198.675C1084.51 204.639 1078.35 202.93 1073.12 202.486C1067.09 201.985 1050.46 194.88 1037.32 181.153" stroke="#1D1D1B" stroke-width="4.6568" stroke-linecap="round" stroke-linejoin="round"/>
<path d="M1037.69 181.932C1037.69 181.932 1037.72 206.149 1042.4 220.409C1046.99 234.399 1050.06 241.143 1041.96 236.855C1028.43 229.692 1019.7 218.003 1011.53 204.572" stroke="#1D1D1B" stroke-width="4.6568" stroke-linecap="round" stroke-linejoin="round"/>
<path d="M1011.52 204.592C1011.52 204.592 952.305 290.87 936.799 407.264" stroke="#1D1D1B" stroke-width="4.6568" stroke-linecap="round" stroke-linejoin="round"/>
<path d="M822.8 73.8104C822.8 73.8104 817.478 31.3651 759.788 11.1488C690.345 -13.1831 638.068 26.0831 624.196 32.9341C611.753 39.0787 589.692 47.1784 560.002 50.0864C552.873 50.7846 560.149 58.071 568.806 60.4533C578.81 63.2134 596.895 61.7676 604.279 58.186" stroke="#1D1D1B" stroke-width="4.6568" stroke-linecap="round" stroke-linejoin="round"/>
<path d="M604.276 58.1854C604.276 58.1854 549.921 94.6422 510.399 190.59C478.696 267.561 467.222 427.468 467.222 427.468" stroke="#1D1D1B" stroke-width="4.6568" stroke-linecap="round" stroke-linejoin="round"/>
<path d="M1060.9 930.009C1061.06 930.067 1117.93 929.623 1169.2 943.309C1214.58 955.425 1253.46 977.473 1265.56 991.052C1296.76 1026.07 1291.75 1050.81 1289.2 1071.99C1287.02 1090.11 1269.47 1143.09 1269.47 1143.09" stroke="#1D1D1B" stroke-width="4.6568" stroke-linecap="round" stroke-linejoin="round"/>
<path d="M1065.07 877.819C1065.07 877.819 1146.1 882.633 1204.69 897.953C1245.19 908.542 1284.51 933.104 1300.97 948.474C1341.25 986.072 1344.33 1015.34 1344.67 1038.5C1345.08 1067.14 1332.52 1133.33 1323.8 1152.13" stroke="#1D1D1B" stroke-width="4.6568" stroke-linecap="round" stroke-linejoin="round"/>
<path d="M254.689 846.964C254.689 846.964 184.203 864.421 148.624 861.061C113.044 857.701 71.2796 838.922 60.0111 797.767C46.41 748.06 69.6863 684.955 82.8356 657.624C97.2334 627.706 129.856 574.894 129.856 574.894" stroke="#1D1D1B" stroke-width="4.6568" stroke-linecap="round" stroke-linejoin="round"/>
<path d="M84.7098 554.61C84.7098 554.61 30.6011 636.913 17.1807 680.549C3.75213 724.194 -1.29078 788.022 8.12156 818.178C21.0738 859.67 49.5819 885.087 86.5003 901.204C123.419 917.321 160.633 915.719 182.488 914.577C204.343 913.435 254.69 902.691 254.69 902.691" stroke="#1D1D1B" stroke-width="4.6568" stroke-linecap="round" stroke-linejoin="round"/>
<path d="M48.9127 573.711C48.9127 573.711 74.5707 546.554 105.001 557.003C135.431 567.452 138.412 595.201 138.412 595.201" stroke="#1D1D1B" stroke-width="4.6568" stroke-linecap="round" stroke-linejoin="round"/>
<path d="M100.46 624.598C100.46 624.598 115.548 631.408 138.413 631.523C168.096 631.663 181.984 611.496 187.192 601.835C192.399 592.175 193.836 566.701 178.839 547.454C164.72 529.332 150.199 524.182 150.199 524.182" stroke="#1D1D1B" stroke-width="4.6568" stroke-linecap="round" stroke-linejoin="round"/>
<path d="M84.8566 503.581C84.8566 503.581 67.962 497.765 44.6858 505.372C21.4095 512.979 10.7077 526.221 7.15959 538.551C2.13311 556.015 5.39375 577.374 15.9395 588.176C26.5181 599.019 37.5485 607.916 50.5664 610.585" stroke="#1D1D1B" stroke-width="4.6568" stroke-linecap="round" stroke-linejoin="round"/>
<path d="M178.145 546.097C178.145 546.097 214.226 531.171 232.402 514.692C254.701 494.476 277.714 471.499 278.946 437.704C279.808 413.996 270.889 393.838 249.411 385.335C227.934 376.833 199.344 383.528 185.028 382.206C166.959 380.53 146.5 394.922 150.623 412.419C154.319 428.085 163.156 437.482 185.028 441.286C196.888 443.348 210.817 441.064 220.657 437.03C230.505 433.005 238.668 432.25 246.841 433.432" stroke="#1D1D1B" stroke-width="4.6568" stroke-linecap="round" stroke-linejoin="round"/>
<path d="M235.175 381.789C235.175 381.789 249.836 335.655 285.637 310.592C321.439 285.529 345.249 283.27 363.95 266.282C372.311 258.684 375.022 243.544 363.95 229.136C351.212 212.558 314.572 213.511 293.883 223.262C269.761 234.631 231.972 261.345 209.107 297.482C192.417 323.859 179.12 365.647 179.12 365.647" stroke="#1D1D1B" stroke-width="4.6568" stroke-linecap="round" stroke-linejoin="round"/>
<path d="M152.227 388.081C152.227 388.081 138.577 406.433 136.088 419.576C134.002 430.608 141.846 452.205 123.982 460.362C116.623 463.722 103.802 460.395 99.0796 453.955C91.696 443.883 90.2094 433.41 90.1683 425.302C90.1272 415.904 93.6014 399.343 98.0776 390.094C101.823 382.355 111.58 361.375 122.988 354.885" stroke="#1D1D1B" stroke-width="4.6568" stroke-linecap="round" stroke-linejoin="round"/>
<path d="M188.45 340.283C188.45 340.283 160.648 322.852 138.415 322.688C109.718 322.474 83.7644 329.604 60.9974 369.24C37.4501 410.223 53.1209 429.215 56.5623 433.454C59.1084 436.584 67.1491 443.197 74.771 442.852C84.7254 442.408 90.9099 434.415 90.9099 434.415" stroke="#1D1D1B" stroke-width="4.6568" stroke-linecap="round" stroke-linejoin="round"/>
<path d="M56.5587 433.449C56.5587 433.449 47.4256 441.795 48.9122 467.006C50.0128 485.67 63.696 501.631 63.696 501.631" stroke="#1D1D1B" stroke-width="4.6568" stroke-linecap="round" stroke-linejoin="round"/>
<path d="M630.497 917.86L634.981 884.796L622.062 886.152C618.859 886.488 615.639 886.538 612.428 886.291L599.919 885.338L603.443 918.493C603.673 920.645 605.529 922.247 607.689 922.165L626.588 921.409C628.575 921.327 630.226 919.832 630.497 917.86Z" fill="white" stroke="#1D1D1B" stroke-width="4.6568" stroke-linecap="round" stroke-linejoin="round"/>
<path d="M687.766 896.272L677.606 861.549L663.709 870.643C661.262 872.244 658.781 873.772 656.252 875.243L642.289 883.351L664.966 910.738C666.321 912.373 668.686 912.71 670.436 911.511L686.131 900.823C687.601 899.821 688.259 897.981 687.766 896.272Z" fill="white" stroke="#1D1D1B" stroke-width="4.6568" stroke-linecap="round" stroke-linejoin="round"/>
<path d="M592.65 1195.95L519.05 1040.99C513.464 1029.23 499.403 1024.23 487.644 1029.81L487.637 1029.82C475.878 1035.41 470.874 1049.47 476.46 1061.23L550.06 1216.19C555.646 1227.95 569.707 1232.96 581.466 1227.37L581.473 1227.36C593.232 1221.78 598.236 1207.71 592.65 1195.95Z" stroke="#1D1D1B" stroke-width="4.6568" stroke-linecap="round" stroke-linejoin="round"/>
</g>
<defs>
<clipPath id="clip0_6482_8289">
<rect width="1400" height="1042" fill="white"/>
</clipPath>
</defs>
</svg>
