<svg width="2244" height="2266" viewBox="0 0 2244 2266" fill="none" xmlns="http://www.w3.org/2000/svg">
<g clip-path="url(#clip0_3648_2710)">
<path d="M771.16 443.38C754.92 421.98 742.67 397.57 735.22 371.76C734.39 376.87 732.62 381.83 730.04 386.32C727.53 367.9 724.58 349.51 719.99 331.5C713.14 304.64 702.63 278.69 698.01 251.36C693.38 223.99 694.83 195.62 702.21 168.86C698.32 169.44 694.42 170.01 690.53 170.59C698.29 161.71 704.38 151.37 708.37 140.28C693.43 147.98 675.59 149.89 659.13 143.74C681.67 123.82 701.35 100.66 717.37 75.1999C724.27 64.2199 730.55 52.7599 738.9 42.8399C753.7 25.2599 774.92 13.1999 797.61 9.48986C820.29 5.77986 844.25 10.4299 863.89 22.3699C895.95 41.8599 914.12 78.2999 922.72 114.82C921.72 83.1999 939.83 53.7199 962.58 31.7399C967.1 27.3699 971.86 23.1899 977.2 19.8699C993.27 9.89986 1013.04 8.56986 1031.92 7.49986C1047.88 6.59986 1064.64 5.84986 1079.05 12.7899C1086.67 16.4599 1093.15 22.0699 1099.53 27.6199C1109.16 35.9999 1118.8 44.3699 1128.43 52.7499C1122.76 54.5699 1116.73 55.2299 1112.47 55.3899C1127.83 92.9199 1140.37 131.61 1149.95 171.02C1153.07 183.87 1155.91 196.89 1161.11 209.05C1165.17 218.53 1170.6 227.35 1176.01 236.12C1180.39 243.23 1184.78 250.34 1189.16 257.45C1176.08 255.09 1163.63 249.37 1153.11 241.47C1164.49 284.43 1189.68 323.62 1224.96 352.81C1260.1 366.09 1288.97 392.02 1314.38 419.69C1325.86 432.19 1338.31 445.99 1355.1 448.43C1348.36 453.85 1339.52 456.59 1331.9 456.78C1368.89 512.7 1407.07 569.88 1461.41 609.15C1452.53 613.8 1441.5 614.1 1433.33 609.35C1438.86 619.49 1446.4 628.53 1455.39 635.79C1456.12 636.38 1456.95 637.3 1456.51 638.14C1456.34 638.46 1456.03 638.66 1455.72 638.84C1450.22 642.13 1443.7 643.68 1439.15 644.16C1452.38 671.22 1465.61 698.27 1480.84 726.42C1577.83 588.85 1723.67 486.48 1887.61 443.56C1894.45 450.34 1900.25 458.19 1904.72 466.72C1908.18 473.32 1910.88 480.5 1910.4 489.64C1750.77 533.67 1608.59 638.09 1518.63 778.2C1530.33 792.12 1544.39 804.06 1560.02 813.34C1554.93 815.91 1549.77 818.5 1544.19 819.69C1538.61 820.88 1532.49 820.55 1527.2 817.27C1559.7 856.86 1591.87 897.74 1611.56 945.02C1606.88 945.09 1602.24 942.61 1599.71 938.67C1623.11 972.09 1642 1008.67 1655.7 1047.1C1658.89 1056.04 1661.83 1065.35 1661.25 1074.83C1655.92 1072.61 1651.39 1068.51 1648.75 1065.79C1655.89 1080.94 1660.12 1097.45 1661.14 1114.17C1659.56 1114.24 1657.97 1113.81 1656.65 1112.95C1667.01 1146.84 1675.29 1181.69 1676.22 1217.11C1677.15 1252.53 1670.38 1288.78 1652.33 1319.27C1650.08 1315.52 1647.83 1311.76 1646.3 1308.19C1643.96 1316.6 1640 1324.46 1636.08 1332.25C1626 1352.25 1615.92 1372.25 1605.84 1392.25C1600.77 1402.32 1595.67 1412.41 1589.44 1421.81C1582.49 1432.29 1574.14 1441.83 1564.68 1450.12C1563.34 1447.27 1562 1444.42 1560.65 1441.57C1537.86 1476.27 1509.26 1507.14 1476.4 1532.51C1475.79 1530.48 1475.17 1528.46 1474.56 1526.43C1457.03 1546.43 1435.55 1562.95 1411.72 1574.76C1411.01 1569.95 1410.3 1565.14 1409.65 1561.53C1371.63 1589.19 1330.22 1612.19 1286.64 1629.85C1286.37 1624.18 1286.09 1618.5 1286.76 1613.24C1273.15 1627.79 1259.64 1642.43 1246.61 1657.51C1174.34 1741.18 1117.61 1838.24 1080.17 1942.27C1072.43 1963.76 1065.43 1986.1 1066.25 2008.93C1067.07 2031.76 1077.04 2055.44 1097.63 2066.72C1128.48 2079.04 1163.65 2069.67 1194 2056.16C1224.35 2042.65 1253.55 2024.87 1286.38 2019.8C1327.97 2013.38 1371.32 2028.99 1402.86 2056.84C1409.01 2062.27 1414.77 2068.16 1419.76 2074.66C1437.29 2097.51 1444.48 2128 1438.98 2156.27C1433.49 2184.54 1415.41 2210.13 1390.6 2224.75C1381.13 2230.33 1370.83 2234.34 1361.11 2239.47C1352.59 2243.97 1344.53 2249.32 1335.76 2253.3C1297.41 2270.71 1251.83 2259.3 1214.62 2239.58C1177.41 2219.86 1144.58 2192.29 1106.27 2174.8C1084.64 2164.92 1061.61 2158.44 1039.67 2154.48C1021.12 2153.09 1001.51 2150.98 986.66 2139.79C982.38 2136.57 978.49 2132.43 977.04 2127.28C975.13 2120.5 977.71 2113.11 977.21 2106.83C994.03 1996.27 1018.56 1885.62 1067.48 1785.06C1097.58 1723.2 1136.49 1666.03 1176.56 1610.23C1166.39 1611.08 1156.18 1611.92 1145.99 1611.39C1140.14 1611.08 1134.33 1610.33 1128.53 1609.57C1114.67 1607.76 1100.81 1605.95 1086.95 1604.15C1083.83 1603.74 1079.67 1603.98 1078.84 1607.01C1059 1608.82 1037.9 1610.4 1020.99 1603.54C1000.41 1664.19 979.82 1724.83 959.24 1785.48C954.59 1799.17 949.95 1812.86 944.75 1826.34C936.3 1848.24 926.41 1869.54 916.52 1890.82C900.33 1925.68 884.13 1960.53 867.28 1995.67C863.04 2014.12 853.6 2031.08 849.56 2049.57C847.09 2060.86 846.69 2072.5 846.85 2084.06C847 2094.46 847.58 2104.97 845.59 2115.19C843.6 2125.41 838.67 2135.52 830.01 2141.3C819.8 2148.11 806.61 2147.75 794.33 2147.61C751.44 2147.14 707.85 2152.7 668.64 2170.09C653.66 2176.73 639.31 2185.09 623.87 2192.05C584.69 2211.44 538.78 2216.88 496.15 2207.19C483.64 2204.35 470.26 2199.32 464.18 2188.02C460.93 2181.99 460.15 2174.76 456.23 2169.15C450.43 2160.86 439.53 2158.31 430.81 2153.18C421.38 2147.63 414.35 2138.88 407.54 2130.32C404.07 2125.96 400.6 2121.61 397.13 2117.25C393.05 2112.13 388.94 2106.96 385.98 2101.12C376.69 2082.83 380.14 2059.81 391.99 2044.29C408.97 2018.88 431.24 1996.41 458.64 1982.9C466.95 1978.8 475.64 1975.56 484.38 1972.49C513.08 1962.4 543.89 1953.99 573.64 1960.36C599.86 1965.97 622.38 1982.47 648.11 1991.14C653.87 1995.71 659.63 2000.29 665.39 2004.86C679.25 2015.87 693.71 2027.18 710.94 2031.25C732.53 2036.35 756.68 2028.38 770.38 2009.94C803.31 1967.57 824.3 1917.27 842.83 1866.91C878.82 1769.11 907.26 1667.18 911.07 1564.47C899.18 1559.88 887.78 1554.04 877.11 1547.08C876.84 1550.67 882.41 1554.19 879.9 1556.78C878.83 1557.88 877.03 1557.61 875.54 1557.23C835.77 1547.08 802.71 1520.23 771.05 1494.11C772.07 1499.18 774.45 1503.96 777.88 1507.83C760.49 1503.34 744.1 1495 730.24 1483.57C732.62 1486.69 734.25 1490.37 734.96 1494.23C697.62 1473.03 664.41 1444.59 637.72 1410.96C640.26 1413.66 640.88 1417.99 639.21 1421.3C614.51 1393.34 594.18 1361.53 579.96 1329.55C574.82 1312 571.34 1293.96 569.58 1275.76C567.98 1280.55 566.98 1285.53 566.6 1290.57C564.87 1283.26 563.14 1275.95 561.42 1268.64C557.84 1253.5 554.24 1238.16 554.68 1222.61C554.97 1212.22 557.07 1201.98 558.42 1192.01C500.61 1221.07 449.08 1262.53 408.33 1312.78C389.91 1300.98 370.55 1288.85 348.76 1286.86C347.85 1276.74 355.27 1267.97 362.36 1260.68C405.88 1215.96 455.3 1176.98 508.33 1146.54C524.68 1134.48 542.35 1124.22 560.92 1115.98C562.71 1115.19 564.6 1114.33 565.67 1112.7C566.48 1111.45 566.7 1109.92 566.87 1108.45C567.6 1102.05 567.8 1095.6 567.44 1089.17C565.03 1092.74 562.19 1096.01 558.99 1098.88C552.76 1074.58 551.6 1048.99 555.59 1024.23C550.63 1027.67 547.93 1033.44 545.44 1038.94C543.91 1039.4 543.14 1037.14 543.16 1035.54C543.39 1020.83 543.63 1006.13 543.86 991.42C544.3 964.13 544.8 936.39 552.99 911.2C561.47 878.37 571.8 846.01 583.92 814.34C579.62 816.61 575.31 818.88 571.01 821.15C574.05 808.02 577.09 794.88 580.12 781.75C577.74 784.64 575.37 787.54 572.99 790.43C581.51 723.02 617.99 662.79 654.93 605.76C648.37 607.42 641.81 609.08 636.38 611.26C650.29 589.27 664.2 567.27 678.11 545.28C682.46 538.4 686.82 531.51 691.76 525.05C704.28 508.67 720.29 495.34 736.15 482.16C725.69 481.77 714.57 481.15 706.05 475.07C727.1 468.64 747.43 459.84 766.53 448.88C768.71 447.63 771.18 445.78 771.2 443.36L771.16 443.38Z" fill="#FFF2C9"/>
<path d="M1018.2 849.49C1012.6 852.01 1008.12 856.66 1005.12 862.02C1002.12 867.38 1000.51 873.42 999.63 879.5C999.16 882.72 998.89 886.01 999.39 889.23C1000.18 894.31 1002.83 898.93 1004.21 904.58C1011.28 923.61 1025.64 939.43 1042.74 950.37C1059.84 961.31 1079.57 967.63 1099.57 971.13C1133.57 977.07 1169.69 974.83 1200.85 959.99C1215.52 953.01 1228.77 943.43 1241.85 933.79C1248.3 929.03 1254.77 924.22 1260.33 918.44C1269.07 909.37 1275.46 897.77 1277.07 885.28C1278.68 872.79 1275.16 859.45 1266.56 850.25C1257.96 841.05 1244.14 836.63 1232.11 840.38C1226.72 842.06 1221.92 842.19 1217 844.95C1197.93 855.65 1176.43 864.05 1155.22 869.35C1145.06 871.89 1135.84 867.32 1124.22 867.83C1118.37 868.09 1112.94 869.76 1107.5 867.6C1096.88 863.39 1086.26 859.18 1075.64 854.98C1065.75 851.06 1055.73 847.11 1045.18 845.79C1034.63 844.47 1023.82 846.97 1018.21 849.49H1018.2Z" fill="black"/>
<path d="M920.87 665.829C919.97 658.149 924.9 651.089 929.87 645.159C941.17 631.659 954.71 619.079 971.56 613.989C993.9 607.249 1018.8 615.159 1036.89 629.899C1054.98 644.639 1067.19 665.369 1076.81 686.629C1081.18 696.279 1085.11 706.169 1087.72 716.449C1093.68 739.959 1092.52 764.609 1091.32 788.839C1091.25 790.219 1091.13 791.729 1090.16 792.709C1088.95 793.939 1086.97 793.839 1085.26 793.639C1075.63 792.509 1066.04 791.079 1056.5 789.359C1045.88 787.439 1035.04 785.149 1024.38 786.849C1022.99 787.069 1021.51 787.349 1020.23 786.759C1018.55 785.979 1017.85 784.009 1017.2 782.269C1011.23 766.389 996.33 756.019 983.27 745.199C956.69 723.159 924.66 698.319 920.87 665.829Z" fill="white"/>
<path d="M1177.76 641.64C1181.58 630.81 1188.77 621.47 1196.66 613.13C1205.67 603.61 1216.3 594.83 1229.08 591.87C1247.49 587.61 1266.72 596.38 1281.03 608.73C1300.71 625.7 1313.95 649.56 1319.8 674.88C1325.65 700.2 1324.33 726.91 1317.86 752.08C1316.97 755.54 1315.65 759.39 1312.4 760.87C1310.69 761.65 1308.74 761.62 1306.87 761.57C1295.78 761.29 1284.68 761.02 1273.59 760.74C1270.64 760.67 1267.63 760.58 1264.88 759.52C1261.86 758.36 1259.4 756.11 1257.02 753.92C1246.42 744.15 1235.81 734.37 1225.95 723.86C1209.67 706.5 1195.48 687.17 1183.8 666.43C1178.53 657.07 1175.96 646.73 1177.76 641.63V641.64Z" fill="white"/>
<path d="M1071.24 853.53C1071.61 865.5 1072.68 877.45 1074.43 889.3C1074.76 891.54 1075.21 893.96 1076.86 895.51C1078.41 896.97 1080.68 897.33 1082.79 897.62C1085.2 897.95 1087.62 898.28 1090.03 898.61C1093.1 899.03 1096.21 899.45 1099.28 899.05C1102.35 898.65 1105.43 897.33 1107.3 894.87C1109.35 892.17 1109.66 888.57 1109.8 885.19C1109.95 881.7 1110 878.2 1109.96 874.71C1109.93 872.56 1109.84 870.29 1108.75 868.44C1107.48 866.3 1105.13 865.11 1102.89 864.02C1096.61 860.97 1090.33 857.91 1084.06 854.86C1081.68 853.7 1079.24 852.52 1076.61 852.19C1074.46 851.92 1072.17 852.26 1071.24 853.53Z" fill="white"/>
<path d="M1171.05 863.479C1171.17 873.439 1172.94 883.38 1176.27 892.77C1176.94 894.67 1177.77 896.659 1179.47 897.749C1180.86 898.639 1182.61 898.749 1184.25 898.629C1189.34 898.259 1194.07 895.97 1198.65 893.71C1200.2 892.95 1201.79 892.159 1202.99 890.909C1205.48 888.329 1205.79 884.399 1205.97 880.819C1206.38 872.429 1206.78 864.04 1207.19 855.65C1207.26 854.25 1207.24 852.649 1206.19 851.719C1205.46 851.079 1204.42 850.95 1203.45 850.96C1199.83 850.99 1196.41 852.46 1193.09 853.9C1185.24 857.33 1177.39 860.749 1171.05 863.479Z" fill="white"/>
<path d="M1881.59 388.67C1853.31 380.52 1820.43 392.54 1804.07 417C1801.65 420.62 1799.54 424.52 1798.5 428.75C1797.28 433.67 1797.54 438.83 1797.97 443.88C1798.55 450.69 1799.42 457.48 1800.58 464.22C1800.68 464.79 1800.81 465.41 1801.26 465.78C1801.8 466.22 1802.57 466.13 1803.25 466.01C1830.41 461.19 1854.71 442.99 1882.29 442.96C1884.14 442.96 1886.04 443.05 1887.76 443.74C1889.71 444.52 1891.29 446.01 1892.73 447.54C1902.9 458.26 1909.3 472.49 1910.56 487.21C1902.34 489 1895.48 494.61 1887.52 497.32C1883.61 498.65 1879.49 499.25 1875.45 500.1C1859.06 503.56 1843.85 511.13 1829.17 519.21C1828.12 519.79 1826.95 520.54 1826.78 521.73C1826.63 522.8 1827.37 523.77 1828.06 524.59C1833.02 530.47 1838.24 536.12 1843.7 541.52C1848.87 546.63 1854.44 551.63 1861.24 554.2C1864.79 555.54 1868.57 556.17 1872.35 556.54C1894.32 558.69 1917.55 551.52 1932.8 535.55C1940.11 527.89 1945.4 518.58 1952.37 509.99C1975.61 518.36 2001.75 516.71 2024.96 508.26C2048.17 499.81 2068.63 484.94 2086.19 467.57C2089.27 464.53 2092.3 461.37 2095.92 459C2101.07 455.63 2107.13 454 2113.11 452.56C2137.21 446.78 2162.04 443.31 2186.78 444.81C2195.48 445.34 2204.24 446.47 2212.88 445.34C2221.52 444.21 2230.29 440.42 2235.13 433.17C2242.95 421.46 2237.55 404.64 2226.91 395.41C2216.27 386.18 2201.92 382.75 2188.12 379.94C2196.99 373.68 2201.43 361.9 2199.31 351.25C2197.19 340.6 2188.81 331.55 2178.48 328.2C2176.06 327.42 2173.4 326.84 2171.64 324.99C2169.79 323.04 2169.41 320.17 2168.81 317.55C2165.43 302.99 2152.27 292.15 2137.92 287.95C2123.57 283.75 2108.18 285.2 2093.5 288.05C2064.79 293.62 2035.73 305.44 2017.91 328.62C2015.76 331.42 2013.57 334.52 2010.23 335.67C2008.64 336.21 2006.94 336.26 2005.26 336.29C1994.24 336.53 1983.22 336.78 1972.19 337.02C1979.92 328.67 1984.56 317.52 1985.05 306.16C1985.32 299.92 1984.37 293.67 1982.7 287.65C1978.67 273.17 1969.6 259.32 1955.84 253.27C1942.08 247.23 1923.53 251.33 1916.39 264.56C1910.24 275.95 1913.62 289.83 1915.74 302.6C1919.07 322.56 1917.93 345.56 1903.29 359.54C1899.49 363.17 1894.97 365.98 1891.18 369.61C1885.65 374.91 1881.79 381.95 1881.55 388.64L1881.59 388.67Z" fill="white"/>
<path d="M347.786 1288.69C340.806 1271.12 345.966 1251.41 349.826 1232.91C353.686 1214.41 355.586 1193.2 343.786 1178.43C337.706 1170.81 328.746 1166.06 319.676 1162.51C313.856 1160.24 307.636 1158.35 301.446 1159.21C294.926 1160.12 289.186 1164 284.326 1168.45C266.816 1184.46 258.176 1208.47 256.726 1232.14C255.276 1255.81 260.356 1279.4 266.706 1302.26C251.766 1309.46 241.906 1326.07 242.736 1342.64C232.696 1327.89 222.646 1313.14 212.606 1298.39C198.246 1277.31 183.776 1255.99 174.466 1232.24C169.666 1219.98 164.946 1205.66 152.766 1200.67C147.016 1198.31 140.566 1198.57 134.356 1198.9C126.736 1199.3 118.916 1199.79 111.956 1202.91C96.626 1209.79 89.276 1227.79 88.216 1244.56C86.406 1273.33 98.856 1301.54 116.756 1324.14C134.646 1346.74 157.736 1364.57 180.596 1382.14C174.286 1382.74 171.776 1390.37 167.646 1395.17C160.376 1403.59 147.466 1403.26 136.386 1402.24C120.976 1400.82 105.076 1399.25 91.496 1391.81C84.546 1388 78.466 1382.78 71.726 1378.6C61.356 1372.17 49.076 1368.23 36.946 1369.54C24.816 1370.85 12.996 1377.97 7.86598 1389.04C3.09598 1399.34 4.58598 1411.84 10.076 1421.77C15.566 1431.7 24.626 1439.28 34.556 1444.79C49.316 1452.99 66.356 1457.01 83.226 1456.29C103.116 1455.44 122.866 1448.16 144.556 1453.73C143.256 1470.23 147.306 1487.11 155.946 1501.23C161.956 1511.05 170.016 1519.43 178.236 1527.48C183.376 1532.52 188.626 1537.48 194.456 1541.69C217.606 1558.43 247.866 1562 276.366 1560.19C288.616 1559.41 302.646 1556.56 310.516 1545.91C329.136 1546.41 347.996 1545.3 365.846 1539.97C383.696 1534.65 400.576 1524.86 412.146 1510.25C429.076 1488.87 430.026 1464.04 433.136 1436.95C433.386 1434.73 435.276 1427.63 433.136 1428.26" fill="white"/>
<path d="M992.44 1138.64C987.62 1145.8 988.2 1155.55 991.72 1163.43C995.24 1171.31 1001.29 1177.74 1007.23 1184.01C1022.74 1200.39 1038.25 1216.77 1053.76 1233.15C1058.09 1237.72 1062.41 1242.29 1066.74 1246.86C1090.87 1272.35 1115.01 1297.83 1139.14 1323.32C1147.56 1332.21 1157.5 1341.77 1169.74 1341.52C1174.01 1341.43 1178.18 1340.1 1182 1338.19C1191.67 1333.35 1199.73 1323.36 1198.53 1312.62C1197.7 1305.15 1192.72 1298.89 1187.88 1293.14C1151.94 1250.4 1112.77 1210.5 1073.65 1170.65C1062.72 1159.52 1051.79 1148.38 1040.86 1137.25C1036.01 1132.31 1030.74 1127.14 1023.95 1125.8C1020.51 1125.12 1016.94 1125.5 1013.48 1126.05C1008.26 1126.87 1002.99 1128.12 998.55 1130.98C994.11 1133.84 990.61 1138.59 992.45 1138.63L992.44 1138.64Z" fill="#FFE372"/>
<path d="M1219.27 1352.87C1215.07 1362.52 1210.79 1373.15 1213.7 1383.26C1214.93 1387.55 1217.4 1391.39 1220.33 1394.76C1228.75 1404.44 1243.01 1410.43 1254.7 1405.14C1259.65 1402.9 1263.59 1398.96 1267.4 1395.09C1270.4 1392.05 1273.41 1389.01 1276.41 1385.97C1277.94 1384.43 1279.51 1382.81 1280.26 1380.78C1281.13 1378.42 1280.8 1375.82 1280.45 1373.33C1279.67 1367.69 1278.8 1361.82 1275.59 1357.12C1273.13 1353.51 1269.48 1350.89 1265.92 1348.36C1260.74 1344.68 1255.27 1340.88 1248.97 1340.12C1239.24 1338.95 1230.33 1345.19 1222.52 1351.11C1220.23 1352.84 1217.85 1354.7 1219.27 1352.87Z" fill="#FFE372"/>
<path d="M1313.21 1168.9C1299.81 1202.75 1288.37 1237.34 1276.93 1271.91C1275.78 1275.39 1274.61 1279.01 1275.09 1282.64C1275.72 1287.43 1279.07 1291.36 1282.28 1294.98C1285.8 1298.95 1289.56 1303.08 1294.59 1304.76C1298.84 1306.18 1303.49 1305.67 1307.9 1304.81C1311.71 1304.07 1315.53 1303.06 1318.9 1301.13C1328.74 1295.5 1332.7 1283.59 1336.05 1272.77C1344.47 1245.54 1353.95 1218.64 1364.47 1192.15C1368.3 1182.5 1372.31 1171.79 1368.72 1162.05C1364.75 1151.29 1352.73 1145.66 1341.38 1144C1339.23 1143.68 1337.01 1143.47 1334.9 1144C1332.37 1144.63 1330.23 1146.26 1328.27 1147.98C1319.88 1155.32 1314.7 1165.18 1313.22 1168.91L1313.21 1168.9Z" fill="#FFE372"/>
<path d="M541.02 1313.02C544.91 1327.53 537.74 1342.72 528.8 1354.79C507.9 1383.02 476.83 1402.37 444.04 1414.96C436 1418.05 427.53 1420.95 421.45 1427.05C445.94 1423.73 470.03 1417.43 493 1408.31C511.9 1400.81 530.71 1390.87 542.84 1374.56C554.98 1358.25 558.65 1334.23 546.83 1317.69C545.62 1315.99 544.08 1314.28 542.02 1313.95C539.96 1313.62 537.55 1315.5 541.02 1313.02Z" fill="#D7D7D7"/>
<path d="M921.44 819.91C921.44 819.91 994.44 770.91 1089.44 792.91C1089.44 792.91 1102.6 728.98 1069.44 669.91C1037.44 612.91 1004.44 608.91 979.44 610.91C954.44 612.91 909.44 644.91 904.44 709.91C899.44 774.91 921.44 819.91 921.44 819.91Z" stroke="black" stroke-width="8" stroke-linecap="round" stroke-linejoin="round"/>
<path d="M867.55 819.91C867.55 819.91 899.44 803.91 921.44 819.91C943.44 835.91 946.44 867.91 946.44 867.91" stroke="black" stroke-width="8" stroke-linecap="round" stroke-linejoin="round"/>
<path d="M1137.44 795.911C1137.44 795.911 1151.44 784.911 1154.44 776.911C1157.44 768.911 1173.44 748.911 1190.44 761.911C1207.44 774.911 1207.44 801.911 1183.44 809.911" stroke="black" stroke-width="8" stroke-linecap="round" stroke-linejoin="round"/>
<path d="M913.32 678.88C913.32 678.88 921.44 642.91 963.44 647.91C994.54 651.61 1026.78 691.63 1026.11 783.77C1026.11 783.77 953.37 798.19 922.4 816.55C922.4 816.55 886.2 726.85 913.32 678.88Z" fill="black"/>
<path d="M995.44 664.91C995.44 664.91 970.44 677.91 964.44 700.91C964.44 700.91 1001.44 686.91 1018.44 695.91C1018.44 695.91 1012.44 672.91 995.44 664.91Z" fill="white"/>
<path d="M1202.42 779.23C1202.42 779.23 1263.43 747.91 1311.43 762.91C1311.43 762.91 1333.16 716.33 1315.43 660.91C1299.43 610.91 1265.43 589.91 1240.43 589.91C1213.41 589.91 1175.14 620.35 1167.43 669.91C1160.43 714.91 1171.43 745.91 1175.43 754.91" stroke="black" stroke-width="8" stroke-linecap="round" stroke-linejoin="round"/>
<path d="M1174.44 651.91C1174.44 651.91 1181.44 629.91 1206.44 628.91C1231.44 627.91 1261.44 656.91 1268.44 692.91C1275.44 728.91 1272.12 757.63 1272.12 757.63L1202.42 775.87C1202.42 775.87 1190.43 757.91 1178.43 755.91C1178.43 755.91 1152.43 703.91 1174.43 651.91H1174.44Z" fill="black"/>
<path d="M1240.44 641.91C1240.44 641.91 1215.44 654.91 1209.44 677.91C1209.44 677.91 1246.44 663.91 1263.44 672.91C1263.44 672.91 1257.44 649.91 1240.44 641.91Z" fill="white"/>
<path d="M1202.42 849.29C1202.42 849.29 1169.73 866.91 1135.08 867.91C1100.43 868.91 1075.68 851.54 1064.43 846.91C1047.43 839.91 1000.43 833.91 997.43 881.91C994.43 929.91 1052.43 969.91 1118.43 974.91C1184.43 979.91 1227.46 954.14 1256.43 923.91C1279.43 899.91 1286.43 874.91 1268.43 851.91C1254.46 834.06 1229.41 834.67 1202.42 849.29Z" stroke="black" stroke-width="8" stroke-linecap="round" stroke-linejoin="round"/>
<path d="M1071.44 853.91V889.28C1071.44 893.28 1074.36 896.69 1078.32 897.29L1099.68 900.56C1104.39 901.28 1108.7 897.81 1109 893.05L1110.57 867.9" stroke="black" stroke-width="8" stroke-linecap="round" stroke-linejoin="round"/>
<path d="M1169.93 864.1L1173.37 891.42C1173.95 896.03 1178.29 899.22 1182.86 898.38L1200.78 895.12C1204.63 894.42 1207.44 891.06 1207.44 887.14V849.38" stroke="black" stroke-width="8" stroke-linecap="round" stroke-linejoin="round"/>
<path d="M859.44 651.91C859.44 651.91 891.44 536.91 957.44 545.91" stroke="black" stroke-width="8" stroke-linecap="round" stroke-linejoin="round"/>
<path d="M1188.68 513.47C1188.68 513.47 1234.43 464.92 1282.43 549.92" stroke="black" stroke-width="8" stroke-linecap="round" stroke-linejoin="round"/>
<path d="M1003.44 396.91C1003.44 396.91 943.44 376.91 908.44 396.91C908.44 396.91 894.81 340.63 1026.12 356.27C1026.12 356.27 1067.44 270.91 1133.44 301.91C1133.44 301.91 1100.44 327.91 1096.44 361.91" stroke="black" stroke-width="8" stroke-linecap="round" stroke-linejoin="round"/>
<path d="M1081.44 375.91C1081.44 375.91 1110.44 347.91 1146.44 358.91C1146.44 358.91 1110.44 367.91 1099.44 399.91" stroke="black" stroke-width="8" stroke-linecap="round" stroke-linejoin="round"/>
<path d="M768.44 442.91C768.44 442.91 737.44 387.91 736.44 368.91C736.44 368.91 734.44 382.91 727.44 387.91C727.44 387.91 725.44 355.91 721.44 339.91C717.44 323.91 682.44 225.91 701.44 171.91" stroke="black" stroke-width="8" stroke-linecap="round" stroke-linejoin="round"/>
<path d="M715.44 159.91C715.44 159.91 701.44 171.91 685.29 171.91C685.29 171.91 707.44 146.72 707.44 138.32" stroke="black" stroke-width="8" stroke-linecap="round" stroke-linejoin="round"/>
<path d="M721.44 117.91C721.44 117.91 712.44 151.911 655.44 146.911C655.44 146.911 698.44 102.91 713.44 79.9105C728.44 56.9105 757.44 -0.089502 826.44 9.9105C895.44 19.9105 908.44 78.9105 916.44 99.9105C924.44 120.91 939.67 150.321 952.55 155.111C952.55 155.111 944.44 159.911 927.44 148.911C927.44 148.911 965.01 315.75 1012.22 354.83" stroke="black" stroke-width="8" stroke-linecap="round" stroke-linejoin="round"/>
<path d="M922.72 114.76C922.72 114.76 922.44 35.9102 992.44 11.9102C1035.84 -2.96984 1068.48 5.91016 1084.96 15.9102C1101.44 25.9102 1111.44 45.9102 1127.44 48.9102C1127.44 48.9102 1136.44 56.9102 1103.44 52.9102" stroke="black" stroke-width="8" stroke-linecap="round" stroke-linejoin="round"/>
<path d="M1110.26 53.6299C1110.26 53.6299 1142.6 129.92 1149.52 171.92C1156.44 213.92 1182.93 249.85 1188.68 254.39C1188.68 254.39 1187.43 267.92 1152.43 238.92C1152.43 238.92 1166.53 299.84 1220.43 349.92" stroke="black" stroke-width="8" stroke-linecap="round" stroke-linejoin="round"/>
<path d="M1192.84 346.021C1192.84 346.021 1230.44 345.771 1282.44 388.341C1334.44 430.911 1325.44 442.911 1353.44 447.911C1353.44 447.911 1351.02 464.911 1303.73 447.911" stroke="black" stroke-width="8" stroke-linecap="round" stroke-linejoin="round"/>
<path d="M1331.48 455.09C1331.48 455.09 1378.43 522.91 1412.43 564.91C1446.43 606.91 1465.43 608.91 1465.43 608.91C1465.43 608.91 1462.43 623.91 1407.43 597.91" stroke="black" stroke-width="8" stroke-linecap="round" stroke-linejoin="round"/>
<path d="M1431.89 608.13C1431.89 608.13 1439.44 627.92 1455.44 635.92C1455.44 635.92 1452.44 644.92 1427.44 638.92" stroke="black" stroke-width="8" stroke-linecap="round" stroke-linejoin="round"/>
<path d="M1437.7 640.73C1437.7 640.73 1491.43 781.92 1559.43 811.92C1559.43 811.92 1558.56 823.92 1513.5 811.92" stroke="black" stroke-width="8" stroke-linecap="round" stroke-linejoin="round"/>
<path d="M1525.53 814.78C1525.53 814.78 1593.44 894.91 1611.44 946.91C1611.44 946.91 1598.44 933.91 1576.44 930.91" stroke="black" stroke-width="8" stroke-linecap="round" stroke-linejoin="round"/>
<path d="M1598.57 938C1598.57 938 1654.44 1012.91 1663.44 1081.91C1663.44 1081.91 1647.44 1058.91 1636.44 1052.91" stroke="black" stroke-width="8" stroke-linecap="round" stroke-linejoin="round"/>
<path d="M1643.76 1058.51C1643.76 1058.51 1657.44 1087.92 1660.44 1112.92C1660.44 1112.92 1655.08 1109.8 1643.76 1104.86" stroke="black" stroke-width="8" stroke-linecap="round" stroke-linejoin="round"/>
<path d="M1655.89 1110.51C1655.89 1110.51 1704.76 1237.34 1652.1 1320.63C1652.1 1320.63 1644.44 1306.92 1638.44 1298.92" stroke="black" stroke-width="8" stroke-linecap="round" stroke-linejoin="round"/>
<path d="M1643.41 1306.16C1643.41 1306.16 1614.44 1403.91 1562.44 1450.91C1562.44 1450.91 1563.44 1442.91 1559.44 1433.91C1559.44 1433.91 1539.44 1485.91 1472.44 1534.91C1472.44 1534.91 1476.44 1522.91 1475.44 1515.91C1475.44 1515.91 1458.44 1554.91 1408.44 1576.91C1408.44 1576.91 1413.44 1563.91 1413.44 1557.91" stroke="black" stroke-width="8" stroke-linecap="round" stroke-linejoin="round"/>
<path d="M1423.44 1544.91C1423.44 1544.91 1359.44 1610.91 1282.44 1630.91C1282.44 1630.91 1287.44 1617.91 1286.44 1608.91" stroke="black" stroke-width="8" stroke-linecap="round" stroke-linejoin="round"/>
<path d="M1338.44 1553.91C1338.44 1553.91 1231.44 1659.91 1164.44 1768.91C1097.44 1877.91 1056.44 1992.91 1065.44 2025.91C1074.44 2058.91 1109.88 2076.48 1136.44 2073.91C1167.44 2070.91 1207.93 2046.71 1243.44 2031.91C1303.44 2006.91 1355.44 2017.91 1393.44 2048.91C1432.04 2080.4 1448.44 2115.91 1437.44 2160.91C1426.44 2205.91 1408.44 2206.91 1408.44 2206.91" stroke="black" stroke-width="8" stroke-linecap="round" stroke-linejoin="round"/>
<path d="M1363.44 2067.91C1363.44 2067.91 1416.44 2076.91 1423.44 2132.91C1429.65 2182.61 1411.44 2209.91 1390.44 2223.91C1369.44 2237.91 1353.44 2239.91 1353.44 2239.91" stroke="black" stroke-width="8" stroke-linecap="round" stroke-linejoin="round"/>
<path d="M1300.44 2082.91C1300.44 2082.91 1354.44 2082.91 1375.44 2136.91C1396.44 2190.91 1354.44 2244.91 1340.44 2249.91C1326.44 2254.91 1308.44 2270.91 1254.44 2254.91C1200.44 2238.91 1158.44 2200.91 1135.44 2188.91C1112.44 2176.91 1060.51 2156.91 1027.48 2153.91C994.45 2150.91 972.44 2133.91 974.44 2114.91C976.44 2095.91 985.44 2070.91 986.44 2043.91C987.52 2014.86 1029.44 1853.91 1074.44 1767.91C1119.44 1681.91 1188.76 1587.91 1188.76 1587.91" stroke="black" stroke-width="8" stroke-linecap="round" stroke-linejoin="round"/>
<path d="M909.44 1518.91C909.44 1518.91 914.44 1650.91 867.44 1792.91C820.44 1934.91 784.44 2007.91 754.44 2024.91C724.44 2041.91 696.44 2034.91 667.44 2006.91C638.44 1978.91 575.44 1951.91 520.44 1960.91C465.44 1969.91 401.2 2009.62 386.44 2053.91C372.44 2095.91 391.44 2110.91 403.44 2124.91" stroke="black" stroke-width="8" stroke-linecap="round" stroke-linejoin="round"/>
<path d="M500.44 2017.91C500.44 2017.91 435.6 2027.59 412.44 2073.91C399.44 2099.91 400.44 2153.72 456.44 2166.81" stroke="black" stroke-width="8" stroke-linecap="round" stroke-linejoin="round"/>
<path d="M554.44 2061.91C554.44 2061.91 470.44 2069.91 458.44 2119.91C446.44 2169.91 455.44 2211.91 532.44 2212.91C609.44 2213.91 673.1 2160.91 709.27 2153.91C745.44 2146.91 788.44 2145.91 815.44 2144.91C842.44 2143.91 852.44 2117.91 848.76 2092.36C846.53 2076.89 844.44 2044.91 862.44 2006.91C880.44 1968.91 937.44 1852.91 957.44 1790.91C977.44 1728.91 1029.77 1586.91 1035.1 1544.91" stroke="black" stroke-width="8" stroke-linecap="round" stroke-linejoin="round"/>
<path d="M1172.25 1610.99C1172.25 1610.99 1082.97 1609.11 1064.2 1598.51C1064.2 1598.51 1071.5 1605.31 1082.97 1609.11C1082.97 1609.11 1040.93 1614.11 1021.68 1598.51" stroke="black" stroke-width="8" stroke-linecap="round" stroke-linejoin="round"/>
<path d="M381.5 1398.81C381.5 1398.81 430.44 1376.91 465.44 1334.91C500.44 1292.91 532.44 1297.91 545.44 1315.91C558.44 1333.91 561.44 1369.91 523.44 1391.91C485.44 1413.91 427.44 1426.91 427.44 1426.91" stroke="black" stroke-width="8" stroke-linecap="round" stroke-linejoin="round"/>
<path d="M431.74 1426.91C431.74 1426.91 441.43 1489.91 398.43 1521.91C355.43 1553.91 304.43 1543.91 295.43 1540.91" stroke="black" stroke-width="8" stroke-linecap="round" stroke-linejoin="round"/>
<path d="M308.24 1544.77C308.24 1544.77 266.63 1581.63 202.53 1544.77C138.43 1507.91 142.44 1450.91 142.44 1450.91" stroke="black" stroke-width="8" stroke-linecap="round" stroke-linejoin="round"/>
<path d="M170.44 1400.91C170.44 1400.91 131.44 1413.91 83.44 1382.91C35.44 1351.91 8.41 1373.06 4.44 1395.91C0.469999 1418.76 24.44 1446.91 57.44 1452.91C90.44 1458.91 134.64 1453.91 154.04 1447.91" stroke="black" stroke-width="8" stroke-linecap="round" stroke-linejoin="round"/>
<path d="M260.44 1352.91C260.44 1352.91 250.44 1352.91 244.44 1345.91C238.44 1338.91 195.17 1288.61 181.44 1239.91C170.44 1200.91 142.44 1187.91 118.44 1197.91C94.4399 1207.91 66.4399 1246.91 106.44 1307.91C146.44 1368.91 198.44 1386.91 198.44 1386.91" stroke="black" stroke-width="8" stroke-linecap="round" stroke-linejoin="round"/>
<path d="M376.44 1357.91C376.44 1357.91 348.23 1317.91 345.84 1276.91C343.45 1235.91 355.27 1213.87 350.2 1194.68C344.44 1172.91 331.52 1158.91 304.44 1158.91C279.44 1158.91 256.66 1187.35 255.44 1229.91C254.44 1264.91 270.68 1329.6 306.06 1364.75" stroke="black" stroke-width="8" stroke-linecap="round" stroke-linejoin="round"/>
<path d="M391.44 1361.91C391.44 1361.91 398.86 1367.26 411.15 1382.09" stroke="black" stroke-width="8" stroke-linecap="round" stroke-linejoin="round"/>
<path d="M251.44 1345.91C251.44 1345.91 261.03 1333.78 284.44 1335.91" stroke="black" stroke-width="8" stroke-linecap="round" stroke-linejoin="round"/>
<path d="M159.14 1403.07C159.14 1403.07 169.75 1384.11 182.59 1379.51" stroke="black" stroke-width="8" stroke-linecap="round" stroke-linejoin="round"/>
<path d="M244.44 1345.91C244.44 1345.91 228.44 1321.5 267.94 1299.71" stroke="black" stroke-width="8" stroke-linecap="round" stroke-linejoin="round"/>
<path d="M346.91 1286.93C346.91 1286.93 376.43 1286.91 407.43 1312.91C436.71 1337.46 439.4 1361.05 439.4 1361.05" stroke="black" stroke-width="8" stroke-linecap="round" stroke-linejoin="round"/>
<path d="M407.44 1312.91C407.44 1312.91 450.44 1248.91 579.44 1176.91C689.62 1115.41 791.44 1094.91 791.44 1094.91" stroke="black" stroke-width="8" stroke-linecap="round" stroke-linejoin="round"/>
<path d="M757.44 1043.91C757.44 1043.91 660.44 1057.91 533.44 1130.91C406.44 1203.91 345.84 1276.91 345.84 1276.91" stroke="black" stroke-width="8" stroke-linecap="round" stroke-linejoin="round"/>
<path d="M906.24 1561.15C906.24 1561.15 875.44 1545.91 864.44 1538.91" stroke="black" stroke-width="8" stroke-linecap="round" stroke-linejoin="round"/>
<path d="M850.44 1521.91C850.44 1521.91 873.24 1554.39 885.34 1561.15C885.34 1561.15 824.44 1552.91 758.44 1481.91" stroke="black" stroke-width="8" stroke-linecap="round" stroke-linejoin="round"/>
<path d="M770.68 1494.45C770.68 1494.45 773.44 1504.92 780.44 1512.92C780.44 1512.92 752.44 1505.92 717.44 1469.92" stroke="black" stroke-width="8" stroke-linecap="round" stroke-linejoin="round"/>
<path d="M725.68 1477.99C725.68 1477.99 737.44 1497.91 742.44 1502.91C742.44 1502.91 648.44 1446.91 615.44 1367.91" stroke="black" stroke-width="8" stroke-linecap="round" stroke-linejoin="round"/>
<path d="M637.01 1406.36C637.01 1406.36 639.43 1420.91 643.43 1428.91C643.43 1428.91 572.43 1357.91 567.43 1258.91" stroke="black" stroke-width="8" stroke-linecap="round" stroke-linejoin="round"/>
<path d="M567.44 1276.91C567.44 1276.91 562.44 1286.91 563.44 1294.91C563.44 1294.91 549.14 1225.67 558.79 1188.79" stroke="black" stroke-width="8" stroke-linecap="round" stroke-linejoin="round"/>
<path d="M803.44 418.91C803.44 418.91 766.44 459.91 701.44 472.91C701.44 472.91 712.83 484.12 732.13 481.51" stroke="black" stroke-width="8" stroke-linecap="round" stroke-linejoin="round"/>
<path d="M744.44 474.91C744.44 474.91 698.44 509.91 681.44 539.91C664.44 569.91 642.26 603.15 631.35 610.53C631.35 610.53 657.36 608.41 668.4 598.66" stroke="black" stroke-width="8" stroke-linecap="round" stroke-linejoin="round"/>
<path d="M657.66 604.74C657.66 604.74 582.43 717.91 567.43 792.91C567.43 792.91 575.43 780.91 582.43 776.91" stroke="black" stroke-width="8" stroke-linecap="round" stroke-linejoin="round"/>
<path d="M592.44 760.91C592.44 760.91 571.44 796.57 567.44 824.24C567.44 824.24 572.81 817.69 586.13 812.8" stroke="black" stroke-width="8" stroke-linecap="round" stroke-linejoin="round"/>
<path d="M592.44 797.54C592.44 797.54 530.81 929.91 543.63 1043.91C543.63 1043.91 545.46 1029.25 555.45 1016.58" stroke="black" stroke-width="8" stroke-linecap="round" stroke-linejoin="round"/>
<path d="M561.44 980.62C561.44 980.62 547.44 1053.91 557.44 1102.91C557.44 1102.91 564.44 1085.91 570.44 1077.91C570.44 1077.91 564.74 1099.71 565.59 1113.31" stroke="black" stroke-width="8" stroke-linecap="round" stroke-linejoin="round"/>
<path d="M1517.57 779.23C1517.57 779.23 1596.93 656.2 1694.44 590.91C1809.44 513.91 1911.44 485.91 1911.44 485.91" stroke="black" stroke-width="8" stroke-linecap="round" stroke-linejoin="round"/>
<path d="M1478.48 724.46C1478.48 724.46 1558.32 610.67 1676.97 534.15C1787.44 462.91 1882.44 441.91 1882.44 441.91" stroke="black" stroke-width="8" stroke-linecap="round" stroke-linejoin="round"/>
<path d="M1841.44 433.91C1841.44 433.91 1881.44 419.91 1902.44 459.91C1923.44 499.91 1902.44 518.56 1902.44 518.56" stroke="black" stroke-width="8" stroke-linecap="round" stroke-linejoin="round"/>
<path d="M1823 519.56C1823 519.56 1852.44 562.92 1893.44 555.92C1934.44 548.92 1952.44 517.92 1950.44 488.92" stroke="black" stroke-width="8" stroke-linecap="round" stroke-linejoin="round"/>
<path d="M1948.39 509.721C1948.39 509.721 1988.43 525.911 2030.43 505.911C2072.43 485.911 2086.43 462.911 2091.43 458.911C2096.43 454.911 2151.43 436.911 2189.43 444.911C2227.43 452.911 2244.43 428.911 2238.43 409.911C2234.62 397.851 2212.95 373.461 2153.43 374.911C2112.43 375.911 2089.43 392.911 2082.43 398.911" stroke="black" stroke-width="8" stroke-linecap="round" stroke-linejoin="round"/>
<path d="M2058.44 354.91C2058.44 354.91 2076.44 330.91 2123.44 323.91C2170.44 316.91 2193.44 328.91 2199.44 345.91C2205.44 362.91 2190.24 374.85 2190.24 374.85" stroke="black" stroke-width="8" stroke-linecap="round" stroke-linejoin="round"/>
<path d="M2169.53 321.88C2169.53 321.88 2173.43 301.91 2154.43 291.91C2135.43 281.91 2110.43 281.91 2082.43 287.91C2054.43 293.91 2022.43 313.91 2011.43 335.91C2011.43 335.91 1982.43 325.91 1962.43 340.91" stroke="black" stroke-width="8" stroke-linecap="round" stroke-linejoin="round"/>
<path d="M1971.11 336.05C1971.11 336.05 1985.44 312.91 1983.44 291.91C1981.44 270.91 1969.59 250.85 1950.44 248.91C1931.29 246.97 1907.44 254.91 1914.44 289.91C1920.09 318.14 1917.77 343.36 1911.44 352.91" stroke="black" stroke-width="8" stroke-linecap="round" stroke-linejoin="round"/>
<path d="M1880.44 387.91C1880.44 387.91 1886.44 359.91 1916.44 351.91" stroke="black" stroke-width="8" stroke-linecap="round" stroke-linejoin="round"/>
<path d="M2031.44 354.91C2031.44 354.91 2050.44 356.91 2061.44 391.91" stroke="black" stroke-width="8" stroke-linecap="round" stroke-linejoin="round"/>
<path d="M1967.44 422.91C1967.44 422.91 1982.44 396.91 2015.44 396.91C2048.44 396.91 2063.44 414.91 2063.44 414.91" stroke="black" stroke-width="8" stroke-linecap="round" stroke-linejoin="round"/>
<path d="M1801.44 465.911C1801.44 465.911 1784.48 412.861 1832.26 391.911C1882.44 369.911 1916.44 409.911 1916.44 409.911" stroke="black" stroke-width="8" stroke-linecap="round" stroke-linejoin="round"/>
<path d="M999.162 1130.55L995.925 1133.59C985.457 1143.42 984.94 1159.87 994.77 1170.34L1149.41 1335.01C1159.24 1345.48 1175.69 1346 1186.16 1336.17L1189.4 1333.13C1199.86 1323.3 1200.38 1306.84 1190.55 1296.38L1035.91 1131.7C1026.08 1121.23 1009.63 1120.72 999.162 1130.55Z" stroke="black" stroke-width="8" stroke-linecap="round" stroke-linejoin="round"/>
<path d="M1292.58 1304.17L1296.76 1305.66C1310.29 1310.48 1325.16 1303.41 1329.98 1289.89L1369.6 1178.62C1374.41 1165.09 1367.35 1150.22 1353.82 1145.41L1349.64 1143.92C1336.11 1139.1 1321.24 1146.16 1316.43 1159.69L1276.81 1270.95C1271.99 1284.48 1279.05 1299.35 1292.58 1304.17Z" stroke="black" stroke-width="8" stroke-linecap="round" stroke-linejoin="round"/>
<path d="M1246.03 1406.85C1264.61 1406.85 1279.67 1391.79 1279.67 1373.21C1279.67 1354.63 1264.61 1339.57 1246.03 1339.57C1227.45 1339.57 1212.39 1354.63 1212.39 1373.21C1212.39 1391.79 1227.45 1406.85 1246.03 1406.85Z" stroke="black" stroke-width="8" stroke-linecap="round" stroke-linejoin="round"/>
</g>
<defs>
<clipPath id="clip0_3648_2710">
<rect width="2243.61" height="2265.85" fill="white"/>
</clipPath>
</defs>
</svg>
