<svg xmlns="http://www.w3.org/2000/svg" width="18" height="21" viewBox="0 0 18 21" fill="none">
  <path d="M1.44038 16.9995C0.988871 16.9995 0.63593 16.8898 0.381558 16.6703C0.127186 16.4508 0 16.1582 0 15.7924C0 15.4599 0.0922099 15.1373 0.27663 14.8247C0.461049 14.5121 0.689984 14.2062 0.963434 13.9069C1.24324 13.6076 1.51987 13.3083 1.79332 13.009C2.00318 12.7829 2.16534 12.4869 2.27981 12.1211C2.40064 11.7553 2.48967 11.3663 2.5469 10.9539C2.60413 10.5416 2.64547 10.1425 2.67091 9.75677C2.68998 8.47981 2.82035 7.34252 3.062 6.34489C3.30366 5.34727 3.68203 4.50926 4.19714 3.83088C4.7186 3.15249 5.40223 2.65368 6.24801 2.33444C6.42607 1.68266 6.75358 1.13064 7.23052 0.678385C7.70747 0.226128 8.29571 0 8.99523 0C9.70111 0 10.2925 0.226128 10.7695 0.678385C11.2464 1.13064 11.5739 1.68266 11.752 2.33444C12.5978 2.65368 13.2782 3.15249 13.7933 3.83088C14.3084 4.50926 14.6868 5.34727 14.9285 6.34489C15.1765 7.34252 15.31 8.47981 15.3291 9.75677C15.3545 10.1425 15.3959 10.5416 15.4531 10.9539C15.5103 11.3663 15.5962 11.7553 15.7107 12.1211C15.8315 12.4869 15.9968 12.7829 16.2067 13.009C16.4801 13.3083 16.7536 13.6076 17.027 13.9069C17.3068 14.2062 17.5389 14.5121 17.7234 14.8247C17.9078 15.1373 18 15.4599 18 15.7924C18 16.1582 17.8728 16.4508 17.6184 16.6703C17.3641 16.8898 17.0111 16.9995 16.5596 16.9995H1.44038ZM8.99523 21C8.46105 21 7.98092 20.877 7.55485 20.6309C7.12878 20.3848 6.78537 20.0622 6.52464 19.6632C6.26391 19.2641 6.11447 18.8318 6.07631 18.3663H11.9237C11.8792 18.8318 11.7266 19.2641 11.4658 19.6632C11.2114 20.0622 10.8712 20.3848 10.4452 20.6309C10.0191 20.877 9.53577 21 8.99523 21Z" fill="#A7A7A7"/>
</svg>