<svg width="36" height="37" viewBox="0 0 36 37" fill="none" xmlns="http://www.w3.org/2000/svg">
<g clip-path="url(#clip0_5851_21916)">
<path d="M13.5 27.25C13.5 28.4435 13.9741 29.5881 14.818 30.432C15.6619 31.2759 16.8065 31.75 18 31.75C19.1935 31.75 20.3381 31.2759 21.182 30.432C22.0259 29.5881 22.5 28.4435 22.5 27.25" stroke="#5C79FB" stroke-width="2.1875" stroke-linecap="round" stroke-linejoin="round"/>
<path d="M25.875 3.625C28.0474 5.01117 29.8094 6.95331 30.9783 9.25" stroke="#5C79FB" stroke-width="2.1875" stroke-linecap="round" stroke-linejoin="round"/>
<path d="M5.02148 9.25C6.19032 6.95331 7.95233 5.01117 10.1248 3.625" stroke="#5C79FB" stroke-width="2.1875" stroke-linecap="round" stroke-linejoin="round"/>
<path d="M7.87507 16C7.87507 13.3147 8.94181 10.7393 10.8406 8.84054C12.7394 6.94174 15.3148 5.875 18.0001 5.875C20.6854 5.875 23.2607 6.94174 25.1595 8.84054C27.0583 10.7393 28.1251 13.3147 28.1251 16C28.1251 21.0372 29.2923 23.9594 30.2204 25.5625C30.319 25.7332 30.3709 25.9269 30.3711 26.124C30.3713 26.3212 30.3196 26.5149 30.2214 26.6858C30.1231 26.8567 29.9817 26.9988 29.8112 27.0978C29.6407 27.1968 29.4472 27.2493 29.2501 27.25H6.75007C6.55317 27.2488 6.36002 27.196 6.18994 27.0967C6.01986 26.9975 5.8788 26.8554 5.78086 26.6846C5.68293 26.5138 5.63154 26.3202 5.63184 26.1233C5.63214 25.9264 5.68411 25.733 5.78257 25.5625C6.70929 23.9594 7.87507 21.0358 7.87507 16Z" stroke="#5C79FB" stroke-width="2.1875" stroke-linecap="round" stroke-linejoin="round"/>
</g>
<defs>
<clipPath id="clip0_5851_21916">
<rect width="36" height="36" fill="white" transform="translate(0 0.25)"/>
</clipPath>
</defs>
</svg>
