<svg xmlns="http://www.w3.org/2000/svg" width="32" height="21" viewBox="0 0 32 21" fill="none">
  <path d="M14.8921 21C13.9048 21 13.2167 20.8496 12.828 20.5488C12.4393 20.2556 12.2449 19.8353 12.2449 19.2876C12.2449 18.5471 12.4742 17.768 12.9329 16.9504C13.3916 16.1328 14.0525 15.3653 14.9155 14.6479C15.7784 13.9306 16.8163 13.3521 18.0292 12.9124C19.2498 12.465 20.6142 12.2413 22.1224 12.2413C23.6307 12.2413 24.9913 12.465 26.2041 12.9124C27.4247 13.3521 28.4665 13.9306 29.3294 14.6479C30.1924 15.3653 30.8533 16.1328 31.312 16.9504C31.7707 17.768 32 18.5471 32 19.2876C32 19.8353 31.8056 20.2556 31.4169 20.5488C31.0282 20.8496 30.3362 21 29.3411 21H14.8921ZM22.1224 10.1934C21.2595 10.1934 20.4704 9.96584 19.7551 9.51074C19.0398 9.05565 18.4684 8.43857 18.0408 7.6595C17.6132 6.88044 17.3955 6.01267 17.3878 5.0562C17.3878 4.11515 17.6054 3.26281 18.0408 2.49917C18.4762 1.73554 19.0515 1.13003 19.7668 0.682645C20.482 0.227548 21.2673 0 22.1224 0C22.9854 0 23.7745 0.223691 24.4898 0.671074C25.2051 1.11074 25.7765 1.7124 26.2041 2.47603C26.6395 3.23967 26.8571 4.09201 26.8571 5.03306C26.8571 6.00496 26.6395 6.88044 26.2041 7.6595C25.7765 8.43857 25.2051 9.05565 24.4898 9.51074C23.7745 9.96584 22.9854 10.1934 22.1224 10.1934ZM2.22741 21C1.41108 21 0.835763 20.8303 0.501458 20.4909C0.167153 20.1592 0 19.6926 0 19.0909C0 18.3196 0.202138 17.5328 0.606414 16.7306C1.01846 15.9207 1.60155 15.1763 2.35569 14.4975C3.11759 13.811 4.02332 13.2595 5.07289 12.843C6.13022 12.4187 7.30807 12.2066 8.60641 12.2066C9.63265 12.2066 10.5617 12.3416 11.3936 12.6116C12.2332 12.8738 12.9679 13.2055 13.5977 13.6066C12.9213 14.1388 12.3421 14.7366 11.8601 15.4C11.378 16.0556 11.0087 16.7306 10.7522 17.4248C10.5034 18.119 10.3829 18.7747 10.3907 19.3917C10.4062 20.0165 10.5695 20.5526 10.8805 21H2.22741ZM8.60641 10.4595C7.86006 10.4595 7.17201 10.259 6.54227 9.85785C5.92031 9.45675 5.42274 8.92066 5.04956 8.24959C4.67638 7.5708 4.4898 6.81488 4.4898 5.98182C4.48202 5.15647 4.66861 4.41212 5.04956 3.74876C5.43052 3.0854 5.93197 2.55702 6.55394 2.16364C7.18367 1.77025 7.86783 1.57355 8.60641 1.57355C9.345 1.57355 10.0253 1.77025 10.6472 2.16364C11.277 2.54931 11.7784 3.07383 12.1516 3.73719C12.5326 4.39284 12.723 5.13333 12.723 5.95868C12.723 6.79945 12.5364 7.55923 12.1633 8.23802C11.7901 8.9168 11.2925 9.45675 10.6706 9.85785C10.0486 10.259 9.36054 10.4595 8.60641 10.4595Z" fill="#A7A7A7"/>
</svg>