<svg width="18" height="19" viewBox="0 0 18 19" fill="none" xmlns="http://www.w3.org/2000/svg">
<g clip-path="url(#clip0_5650_2311)">
<path d="M9 1.625C7.35954 1.62686 5.78681 2.27935 4.62683 3.43933C3.46685 4.59931 2.81436 6.17204 2.8125 7.8125C2.8125 13.107 8.4375 17.1057 8.67727 17.273C8.77184 17.3393 8.88452 17.3748 9 17.3748C9.11548 17.3748 9.22816 17.3393 9.32273 17.273C9.5625 17.1057 15.1875 13.107 15.1875 7.8125C15.1856 6.17204 14.5331 4.59931 13.3732 3.43933C12.2132 2.27935 10.6405 1.62686 9 1.625ZM9 5.5625C9.44501 5.5625 9.88002 5.69446 10.25 5.94169C10.62 6.18893 10.9084 6.54033 11.0787 6.95146C11.249 7.3626 11.2936 7.815 11.2068 8.25145C11.12 8.68791 10.9057 9.08882 10.591 9.40349C10.2763 9.71816 9.87541 9.93245 9.43895 10.0193C9.0025 10.1061 8.5501 10.0615 8.13896 9.89123C7.72783 9.72093 7.37643 9.43254 7.12919 9.06253C6.88196 8.69252 6.75 8.25751 6.75 7.8125C6.75 7.21576 6.98705 6.64347 7.40901 6.22151C7.83097 5.79955 8.40326 5.5625 9 5.5625Z" fill="#B7B7B7"/>
</g>
<defs>
<clipPath id="clip0_5650_2311">
<rect width="18" height="18" fill="white" transform="translate(0 0.5)"/>
</clipPath>
</defs>
</svg>
